<?xml version="1.0" encoding="UTF-8"?>
<!-- The Best Svg Icon site in the world: iconSvg.co, Visit us! https://iconsvg.co -->
<svg fill="#000000" width="800px" height="800px" version="1.1" viewBox="144 144 512 512" xmlns="http://www.w3.org/2000/svg">
 <g>
  <path d="m508.39 514.06c-1.7266-0.125-3.4414-0.41797-5.1133-0.86328-3.4102-1.0547-6.25-3.4375-7.875-6.6133-0.92188-1.8555-1.3828-3.9102-1.3359-5.9844-0.042968-3.457 1.2969-6.7891 3.7188-9.2578 2.4258-2.4688 5.7305-3.8672 9.1914-3.8867 5.8281-0.074219 11.465 2.0977 15.742 6.0625 2.9961 1.7852 6.8086 1.3906 9.3711-0.97266 2.5664-2.3633 3.2695-6.1328 1.7305-9.2617-5.2578-5.082-11.828-8.5977-18.973-10.156v-11.648c0.64453-2.3672 0.14453-4.8984-1.3438-6.8477-1.4883-1.9492-3.8008-3.0898-6.2539-3.0898s-4.7617 1.1406-6.2539 3.0898c-1.4883 1.9492-1.9844 4.4805-1.3398 6.8477v12.043c-7.9062 2.2383-14.434 7.8203-17.871 15.281-3.4375 7.4648-3.4375 16.055 0 23.516 3.4375 7.4609 9.9648 13.047 17.871 15.285 1.8242 0.55078 3.6953 0.94531 5.5859 1.1797 4.0742-0.070312 8.0586 1.2031 11.336 3.6211 2.7852 2.5156 4.3867 6.0859 4.4102 9.8398 0.019531 3.457-1.3398 6.7812-3.7773 9.2344s-5.7539 3.832-9.2109 3.832c-5.8555 0.27734-11.578-1.793-15.902-5.7461-3.0117-1.9062-6.9258-1.5508-9.5469 0.86719-2.6211 2.418-3.2891 6.2891-1.6328 9.4453 5.2188 5.125 11.809 8.625 18.973 10.078v11.098c0.92969 3.4297 4.043 5.8086 7.5977 5.8086 3.5508 0 6.6641-2.3789 7.5938-5.8086v-11.73c5.9062-1.6602 11.109-5.2031 14.816-10.094 3.707-4.8867 5.7227-10.848 5.7305-16.984-0.03125-5.8711-1.8672-11.586-5.2617-16.375-3.3945-4.7891-8.1797-8.418-13.711-10.391-2.707-0.71484-5.4727-1.1875-8.2656-1.418z"/>
  <path d="m545.39 384.96c3.7109-4.8398 5.3438-10.957 4.5312-17-0.8125-6.043-4.0039-11.512-8.8594-15.199 34.793-31.488 33.93-52.035 26.609-63.605h-0.003906c-3.5273-6.1172-8.9648-10.906-15.477-13.637-6.5117-2.7305-13.742-3.25-20.578-1.4766-3.9766-5.1172-9.4961-8.8164-15.742-10.551-7.7188-2.2188-16.012-1.2266-22.988 2.7578-3.5703 1.9727-6.7031 4.6523-9.207 7.8711-6.8398-1.9375-14.129-1.5508-20.723 1.1016-6.5977 2.6484-12.129 7.4102-15.727 13.539-7.8711 11.965-8.582 32.512 26.215 64-5.75 4.3359-9.1094 11.141-9.0547 18.344-0.089844 5.8047 2.0195 11.43 5.9062 15.742-43.375 37.391-94.465 125.56-94.465 180.11 0 22.355 5.5898 38.73 17.004 50.066 18.656 18.578 49.672 20.387 86.121 20.387h43.453c42.43 0 78.719 0.47266 99.977-20.387 11.414-11.336 17.004-27.711 17.004-50.066-0.32031-54.395-47.473-144.61-93.996-182zm-25.586-6.8477-34.477-0.003907c-3.4023-0.625-5.8672-3.5859-5.8672-7.043 0-3.457 2.4648-6.4219 5.8672-7.0469h43.926c3.3984 0.625 5.8672 3.5898 5.8672 7.0469 0 3.457-2.4688 6.418-5.8672 7.043h-9.4453zm-59.668-81.637c1.7891-2.9883 4.457-5.3516 7.6445-6.7617s6.7305-1.7969 10.145-1.1094c-0.55859 4.0508-0.28906 8.1758 0.78906 12.121 1.0078 3.2148 3.9531 5.4297 7.3203 5.5117 0.67969 0.10937 1.3711 0.10937 2.0469 0 3.918-1.2812 6.1836-5.3672 5.1953-9.3672-0.66406-2.582-0.66406-5.2891 0-7.8711 1.0859-3.8477 3.6484-7.1094 7.1289-9.0703 3.4805-1.9609 7.5977-2.4648 11.449-1.4023 3.3945 0.91797 6.3516 3.0078 8.3438 5.9062 0 0.62891 0.62891 1.2578 0.94531 1.8125 0.31641 0.55078 0 0 0 0v-0.003906c0.12891 0.25391 0.28906 0.49219 0.47266 0.71094 1.3086 3.1133 1.5312 6.582 0.62891 9.8398-0.011719 3.5195 2.3203 6.6211 5.7031 7.5938 3.3867 0.96875 7.0039-0.42969 8.8594-3.4219 1.1211-4.0469 1.3906-8.2812 0.78906-12.438 3.3594-0.38672 6.7617 0.23047 9.7695 1.7695 3.0117 1.543 5.5 3.9375 7.1562 6.8906 9.6055 15.273-19.363 41.484-32.195 51.957l-30.23-0.003907c-26.844-22.199-38.887-41.641-31.961-52.664zm151.22 309.37c-16.531 16.453-50.145 16.215-89.191 15.742l-29.836 0.003906c-38.965 0-72.66 0.47266-89.109-15.742-8.4219-8.3438-12.516-21.176-12.516-39.359 0-50.301 50.461-136.34 91.316-170.19l-0.003906-0.007813c-3.3438 6.6328-5.5039 13.801-6.375 21.176-0.24609 4.1016 2.7031 7.6992 6.7695 8.2656h0.78906c3.9766 0.035157 7.3555-2.9023 7.8711-6.8477 1.3828-9.3203 5.0312-18.16 10.625-25.742h14.645c5.6211 7.5781 9.2969 16.414 10.707 25.742 0.51562 3.9453 3.8945 6.8828 7.8711 6.8477h0.78906-0.003906c3.7227-0.91016 6.2461-4.3633 5.9844-8.1836-0.92187-7.3672-3.0781-14.527-6.375-21.176 42.98 34.164 88.402 120.52 88.402 170.19 0.15625 18.105-3.9375 30.938-12.359 39.281z"/>
  <path d="m258.3 337.02c1.5742 0.13281 3.0664 0.76953 4.2539 1.8086 0.94531 1.0078 1.5039 2.3203 1.5742 3.6992-0.042968 2.9102-2.3672 5.2695-5.2773 5.3555-1.7578-0.050781-3.3906-0.92578-4.4062-2.3633-0.99609-1.5117-2.5547-2.5625-4.3281-2.918-1.7773-0.35547-3.6172 0.015625-5.1172 1.0312-3.1133 2.0977-3.957 6.3086-1.8906 9.4453 2.1328 3.1836 5.2188 5.6094 8.8164 6.9258v3.4648c0 3.7812 3.0664 6.8477 6.8477 6.8477 3.7852 0 6.8516-3.0664 6.8516-6.8477v-3.1484c2.5469-0.96875 4.8555-2.4688 6.7695-4.4102 3.5469-3.5391 5.5078-8.3672 5.4297-13.383-0.035157-3.875-1.2656-7.6445-3.5195-10.801-2.25-3.1523-5.4219-5.5391-9.0742-6.832-3.3047-1.1797-7.8711 0-10.469-2.6758h-0.003907c-0.92969-1.0195-1.4844-2.3242-1.5742-3.6992 0.042968-2.9102 2.3672-5.2695 5.2773-5.3516 1.5508-0.003906 3.0234 0.6875 4.0117 1.8867 2.4492 2.8867 6.7617 3.2695 9.6836 0.86719 2.8516-2.4453 3.2031-6.7305 0.78906-9.6055-2.1055-2.4492-4.8203-4.293-7.875-5.3516v-3.3047c0-3.7852-3.0664-6.8516-6.8477-6.8516s-6.8477 3.0664-6.8477 6.8516v3.1484c-2.4727 0.94141-4.7031 2.418-6.5352 4.3281-3.5469 3.5391-5.5078 8.3711-5.4297 13.383 0.039063 5.0117 2.082 9.8008 5.668 13.305 1.8828 1.8594 4.1367 3.3086 6.6133 4.25 2.168 0.52734 4.3828 0.84375 6.6094 0.94531z"/>
  <path d="m258.93 402.75c19.227 0 37.668-7.6406 51.266-21.234 13.594-13.598 21.234-32.039 21.234-51.266 0-19.23-7.6406-37.672-21.234-51.27-13.598-13.594-32.039-21.234-51.266-21.234-19.23 0-37.672 7.6406-51.27 21.234-13.594 13.598-21.234 32.039-21.234 51.27 0.023437 19.219 7.668 37.648 21.258 51.242 13.594 13.59 32.023 21.238 51.246 21.258zm0-129.81c15.199 0 29.773 6.0352 40.52 16.785 10.75 10.746 16.785 25.324 16.785 40.523 0 15.199-6.0352 29.773-16.785 40.523-10.746 10.746-25.32 16.785-40.52 16.785-15.199 0-29.777-6.0391-40.523-16.785-10.75-10.75-16.785-25.324-16.785-40.523 0.019531-15.195 6.0625-29.758 16.809-40.5 10.742-10.746 25.305-16.789 40.5-16.809z"/>
  <path d="m218.94 241.54v-19.996c-0.92969-3.4258-4.043-5.8086-7.5977-5.8086-3.5508 0-6.6641 2.3828-7.5938 5.8086v19.996c0.92969 3.4258 4.043 5.8086 7.5938 5.8086 3.5547 0 6.668-2.3828 7.5977-5.8086z"/>
  <path d="m314.04 225.4v-19.918c0.64453-2.3672 0.14844-4.8984-1.3438-6.8438-1.4883-1.9492-3.8008-3.0938-6.25-3.0938-2.4531 0-4.7656 1.1445-6.2539 3.0938-1.4922 1.9453-1.9883 4.4766-1.3438 6.8438v19.918c0.92969 3.4258 4.043 5.8047 7.5977 5.8047 3.5508 0 6.6641-2.3789 7.5938-5.8047z"/>
  <path d="m266.18 190.45v-19.918c0.69141-2.3789 0.22656-4.9453-1.2617-6.9258-1.4844-1.9805-3.8203-3.1484-6.2969-3.1484-2.4766 0-4.8125 1.168-6.2969 3.1484-1.4883 1.9805-1.9531 4.5469-1.2617 6.9258v19.918c-0.69141 2.3789-0.22656 4.9453 1.2617 6.9258 1.4844 1.9844 3.8203 3.1484 6.2969 3.1484 2.4766 0 4.8125-1.1641 6.2969-3.1484 1.4883-1.9805 1.9531-4.5469 1.2617-6.9258z"/>
  <path d="m193.99 598.53v2.5977 18.184c-0.55469 4.2695 0.66406 8.5781 3.3711 11.922 2.707 3.3477 6.668 5.4375 10.957 5.7891h134.3c4.2891-0.35156 8.2461-2.4414 10.953-5.7891 2.707-3.3438 3.9258-7.6523 3.3711-11.922v-18.184c0.46484-4.2617-0.78516-8.5273-3.4727-11.867-2.6875-3.3359-6.5938-5.4688-10.852-5.9219h-18.738c0.078125-0.86719 0.078125-1.7344 0-2.6016v-18.184c-0.003906-1.3477-0.13672-2.6914-0.39062-4.0117h18.895-0.003906c4.2539-0.47656 8.1445-2.6133 10.828-5.9453 2.6836-3.332 3.9414-7.5898 3.5-11.848v-18.184c0.46094-4.2617-0.78906-8.5312-3.4766-11.867-2.6875-3.3359-6.5898-5.4688-10.852-5.9258h-18.5c0.082031-0.86328 0.082031-1.7305 0-2.5977v-18.184c0.078125-1.0469 0.078125-2.1016 0-3.1484h18.738c4.3203-0.34766 8.3047-2.4609 11.016-5.8438 2.7109-3.3828 3.9102-7.7305 3.3086-12.023v-18.027c0.46484-4.2617-0.78516-8.5312-3.4727-11.867-2.6875-3.3398-6.5938-5.4688-10.852-5.9258h-134.54c-4.2617 0.45703-8.1641 2.5859-10.852 5.9258-2.6875 3.3359-3.9375 7.6055-3.4766 11.867v18.027 3.1484h-18.496c-4.2891 0.35156-8.25 2.4414-10.957 5.7891-2.707 3.3438-3.9258 7.6523-3.3711 11.922v18.5c-0.46484 4.2578 0.78516 8.5273 3.4727 11.867 2.6875 3.3359 6.5938 5.4688 10.855 5.9219h18.734v2.5977 18.184c-0.125 1.3359-0.125 2.6797 0 4.0156h-18.734c-4.2539 0.47656-8.1445 2.6133-10.828 5.9453-2.6836 3.332-3.9414 7.5898-3.5 11.848v18.34c-0.44141 4.2578 0.81641 8.5156 3.5 11.848 2.6836 3.332 6.5742 5.4688 10.828 5.9453zm147.76 2.5977v18.184c0.019531 0.89062-0.14062 1.7734-0.47266 2.5977h-131.86c-0.33203-0.82422-0.49219-1.707-0.47266-2.5977v-18.184c-0.035156-0.89062 0.125-1.7773 0.47266-2.5977h131.86c0.34766 0.82031 0.50781 1.707 0.47266 2.5977zm-132.8-156.18c-0.035156-0.89062 0.125-1.7773 0.47266-2.5977h131.86c0.34766 0.82031 0.50781 1.707 0.47266 2.5977v18.027c0.019531 0.88672-0.14062 1.7695-0.47266 2.5977h-131.86c-0.33203-0.82812-0.49219-1.7109-0.47266-2.5977zm-32.828 57.387v-18.344c-0.019532-0.88672 0.14453-1.7734 0.47266-2.5977h131.86c0.33203 0.82422 0.49219 1.7109 0.47266 2.5977v18.344c0.035156 0.89062-0.125 1.7773-0.47266 2.5977h-131.86c-0.34766-0.82031-0.50781-1.707-0.47266-2.5977zm133.82 17.789h31.488c0.34766 0.82031 0.50781 1.707 0.47266 2.5977v18.184c0.019531 0.89062-0.14062 1.7734-0.47266 2.5977h-132.01c-0.33203-0.82422-0.49219-1.707-0.47266-2.5977v-18.34c-0.035156-0.89062 0.125-1.7773 0.47266-2.5977zm-133.82 42.586v0.003906c-0.019532-0.89062 0.14453-1.7734 0.47266-2.5977h131.86c0.33203 0.82422 0.49219 1.707 0.47266 2.5977v18.34c0.019531 0.89062-0.14062 1.7734-0.47266 2.5977h-131.86c-0.32812-0.82422-0.49219-1.707-0.47266-2.5977z"/>
 </g>
</svg>