<svg width="40" height="40" viewBox="0 0 40 40" fill="none" xmlns="http://www.w3.org/2000/svg">
<g clip-path="url(#clip0_5649_56429)">
<path d="M30.875 17.375V30.125C30.8744 30.3237 30.7952 30.5142 30.6547 30.6547C30.5142 30.7952 30.3237 30.8744 30.125 30.875H21.875C21.6763 30.8744 21.4858 30.7952 21.3453 30.6547C21.2048 30.5142 21.1256 30.3237 21.125 30.125V17.375C21.125 17.1761 21.204 16.9853 21.3447 16.8447C21.4853 16.704 21.6761 16.625 21.875 16.625H30.125C30.3237 16.6256 30.5142 16.7048 30.6547 16.8453C30.7952 16.9858 30.8744 17.1763 30.875 17.375ZM29.375 29V23C29.375 22.9005 29.3355 22.8052 29.2652 22.7348C29.1948 22.6645 29.0995 22.625 29 22.625H23C22.9005 22.625 22.8052 22.6645 22.7348 22.7348C22.6645 22.8052 22.625 22.9005 22.625 23V29C22.625 29.0995 22.6645 29.1948 22.7348 29.2652C22.8052 29.3355 22.9005 29.375 23 29.375H29C29.0995 29.375 29.1948 29.3355 29.2652 29.2652C29.3355 29.1948 29.375 29.0995 29.375 29ZM29.375 20.75V18.5C29.375 18.4005 29.3355 18.3052 29.2652 18.2348C29.1948 18.1645 29.0995 18.125 29 18.125H23C22.9005 18.125 22.8052 18.1645 22.7348 18.2348C22.6645 18.3052 22.625 18.4005 22.625 18.5V20.75C22.625 20.8495 22.6645 20.9448 22.7348 21.0152C22.8052 21.0855 22.9005 21.125 23 21.125H29C29.0995 21.125 29.1948 21.0855 29.2652 21.0152C29.3355 20.9448 29.375 20.8495 29.375 20.75ZM21.125 24.125V26.75H19.25C19.1505 26.75 19.0552 26.7105 18.9848 26.6402C18.9145 26.5698 18.875 26.4745 18.875 26.375V24.5C18.875 24.4005 18.9145 24.3052 18.9848 24.2348C19.0552 24.1645 19.1505 24.125 19.25 24.125H21.125Z" fill="#66B7FF"/>
<path d="M21.125 20V22.625H19.25C19.1505 22.625 19.0552 22.5855 18.9848 22.5152C18.9145 22.4448 18.875 22.3495 18.875 22.25V20.375C18.875 20.2755 18.9145 20.1802 18.9848 20.1098C19.0552 20.0395 19.1505 20 19.25 20H21.125Z" fill="#66B7FF"/>
<path d="M21.5 16.25V16.7263C21.3861 16.792 21.2915 16.8866 21.2257 17.0004C21.1599 17.1143 21.1251 17.2435 21.125 17.375V18.5H19.25C19.1505 18.5 19.0552 18.4605 18.9848 18.3902C18.9145 18.3198 18.875 18.2245 18.875 18.125V16.25C18.875 16.1505 18.9145 16.0552 18.9848 15.9848C19.0552 15.9145 19.1505 15.875 19.25 15.875H21.125C21.2245 15.875 21.3198 15.9145 21.3902 15.9848C21.4605 16.0552 21.5 16.1505 21.5 16.25ZM23.375 15.875H25.25C25.3495 15.875 25.4448 15.9145 25.5152 15.9848C25.5855 16.0552 25.625 16.1505 25.625 16.25V16.625H23V16.25C23 16.1505 23.0395 16.0552 23.1098 15.9848C23.1802 15.9145 23.2755 15.875 23.375 15.875Z" fill="#66B7FF"/>
<path d="M17 15.875H15.125C14.9179 15.875 14.75 16.0429 14.75 16.25V18.125C14.75 18.3321 14.9179 18.5 15.125 18.5H17C17.2071 18.5 17.375 18.3321 17.375 18.125V16.25C17.375 16.0429 17.2071 15.875 17 15.875Z" fill="#66B7FF"/>
<path d="M12.875 15.875H11C10.7929 15.875 10.625 16.0429 10.625 16.25V18.125C10.625 18.3321 10.7929 18.5 11 18.5H12.875C13.0821 18.5 13.25 18.3321 13.25 18.125V16.25C13.25 16.0429 13.0821 15.875 12.875 15.875Z" fill="#66B7FF"/>
<path d="M27.125 11.75V14.375H9.125V11.75C9.12559 11.5513 9.2048 11.3608 9.34533 11.2203C9.48585 11.0798 9.67627 11.0006 9.875 11H13.25V12.125C13.25 12.3239 13.329 12.5147 13.4697 12.6553C13.6103 12.796 13.8011 12.875 14 12.875C14.1989 12.875 14.3897 12.796 14.5303 12.6553C14.671 12.5147 14.75 12.3239 14.75 12.125V11H21.5V12.125C21.5 12.3239 21.579 12.5147 21.7197 12.6553C21.8603 12.796 22.0511 12.875 22.25 12.875C22.4489 12.875 22.6397 12.796 22.7803 12.6553C22.921 12.5147 23 12.3239 23 12.125V11H26.375C26.5737 11.0006 26.7642 11.0798 26.9047 11.2203C27.0452 11.3608 27.1244 11.5513 27.125 11.75Z" fill="#66B7FF"/>
<path d="M12.875 15.5H11C10.8011 15.5 10.6103 15.579 10.4697 15.7197C10.329 15.8603 10.25 16.0511 10.25 16.25V18.125C10.25 18.3239 10.329 18.5147 10.4697 18.6553C10.6103 18.796 10.8011 18.875 11 18.875H12.875C13.0739 18.875 13.2647 18.796 13.4053 18.6553C13.546 18.5147 13.625 18.3239 13.625 18.125V16.25C13.625 16.0511 13.546 15.8603 13.4053 15.7197C13.2647 15.579 13.0739 15.5 12.875 15.5ZM11 18.125V16.25H12.875V18.125H11ZM17 15.5H15.125C14.9261 15.5 14.7353 15.579 14.5947 15.7197C14.454 15.8603 14.375 16.0511 14.375 16.25V18.125C14.375 18.3239 14.454 18.5147 14.5947 18.6553C14.7353 18.796 14.9261 18.875 15.125 18.875H17C17.1989 18.875 17.3897 18.796 17.5303 18.6553C17.671 18.5147 17.75 18.3239 17.75 18.125V16.25C17.75 16.0511 17.671 15.8603 17.5303 15.7197C17.3897 15.579 17.1989 15.5 17 15.5ZM15.125 18.125V16.25H17V18.125H15.125ZM29 22.25H23C22.8011 22.25 22.6103 22.329 22.4697 22.4697C22.329 22.6103 22.25 22.8011 22.25 23V29C22.25 29.1989 22.329 29.3897 22.4697 29.5303C22.6103 29.671 22.8011 29.75 23 29.75H29C29.1989 29.75 29.3897 29.671 29.5303 29.5303C29.671 29.3897 29.75 29.1989 29.75 29V23C29.75 22.8011 29.671 22.6103 29.5303 22.4697C29.3897 22.329 29.1989 22.25 29 22.25ZM29 24.5H27.5V23H29V24.5ZM25.25 26.75V25.25H26.75V26.75H25.25ZM26.75 27.5V29H25.25V27.5H26.75ZM24.5 26.75H23V25.25H24.5V26.75ZM25.25 24.5V23H26.75V24.5H25.25ZM27.5 25.25H29V26.75H27.5V25.25ZM24.5 23V24.5H23V23H24.5ZM23 27.5H24.5V29H23V27.5ZM27.5 29V27.5H29V29H27.5Z" fill="#0087FF"/>
<path d="M30.125 16.25H27.5V11.75C27.4991 11.4519 27.3803 11.1663 27.1695 10.9555C26.9587 10.7447 26.6731 10.6259 26.375 10.625H23.375V9.875C23.375 9.57663 23.2565 9.29048 23.0455 9.0795C22.8345 8.86853 22.5484 8.75 22.25 8.75C21.9516 8.75 21.6655 8.86853 21.4545 9.0795C21.2435 9.29048 21.125 9.57663 21.125 9.875V10.625H15.125V9.875C15.125 9.57663 15.0065 9.29048 14.7955 9.0795C14.5845 8.86853 14.2984 8.75 14 8.75C13.7016 8.75 13.4155 8.86853 13.2045 9.0795C12.9935 9.29048 12.875 9.57663 12.875 9.875V10.625H9.875C9.57691 10.6259 9.29127 10.7447 9.08049 10.9555C8.8697 11.1663 8.75089 11.4519 8.75 11.75V27.5C8.75089 27.7981 8.8697 28.0837 9.08049 28.2945C9.29127 28.5053 9.57691 28.6241 9.875 28.625H20.75V30.125C20.7509 30.4231 20.8697 30.7087 21.0805 30.9195C21.2913 31.1303 21.5769 31.2491 21.875 31.25H30.125C30.4231 31.2491 30.7087 31.1303 30.9195 30.9195C31.1303 30.7087 31.2491 30.4231 31.25 30.125V17.375C31.2491 17.0769 31.1303 16.7913 30.9195 16.5805C30.7087 16.3697 30.4231 16.2509 30.125 16.25ZM21.875 9.875C21.875 9.77554 21.9145 9.68016 21.9848 9.60984C22.0552 9.53951 22.1505 9.5 22.25 9.5C22.3495 9.5 22.4448 9.53951 22.5152 9.60984C22.5855 9.68016 22.625 9.77554 22.625 9.875V12.125C22.625 12.2245 22.5855 12.3198 22.5152 12.3902C22.4448 12.4605 22.3495 12.5 22.25 12.5C22.1505 12.5 22.0552 12.4605 21.9848 12.3902C21.9145 12.3198 21.875 12.2245 21.875 12.125V9.875ZM13.625 9.875C13.625 9.77554 13.6645 9.68016 13.7348 9.60984C13.8052 9.53951 13.9005 9.5 14 9.5C14.0995 9.5 14.1948 9.53951 14.2652 9.60984C14.3355 9.68016 14.375 9.77554 14.375 9.875V12.125C14.375 12.2245 14.3355 12.3198 14.2652 12.3902C14.1948 12.4605 14.0995 12.5 14 12.5C13.9005 12.5 13.8052 12.4605 13.7348 12.3902C13.6645 12.3198 13.625 12.2245 13.625 12.125V9.875ZM9.5 11.75C9.5 11.6505 9.53951 11.5552 9.60984 11.4848C9.68016 11.4145 9.77554 11.375 9.875 11.375H12.875V12.125C12.875 12.4234 12.9935 12.7095 13.2045 12.9205C13.4155 13.1315 13.7016 13.25 14 13.25C14.2984 13.25 14.5845 13.1315 14.7955 12.9205C15.0065 12.7095 15.125 12.4234 15.125 12.125V11.375H21.125V12.125C21.125 12.4234 21.2435 12.7095 21.4545 12.9205C21.6655 13.1315 21.9516 13.25 22.25 13.25C22.5484 13.25 22.8345 13.1315 23.0455 12.9205C23.2565 12.7095 23.375 12.4234 23.375 12.125V11.375H26.375C26.4745 11.375 26.5698 11.4145 26.6402 11.4848C26.7105 11.5552 26.75 11.6505 26.75 11.75V14H9.5V11.75ZM20.75 26.375H19.25V24.5H20.75V26.375ZM20.75 22.25H19.25V20.375H20.75V22.25ZM21.125 16.5425C21.0075 16.6471 20.9134 16.7754 20.8488 16.9188C20.7842 17.0622 20.7505 17.2177 20.75 17.375V18.125H19.25V16.25H21.125V16.5425ZM19.25 15.5C19.0513 15.5006 18.8608 15.5798 18.7203 15.7203C18.5798 15.8608 18.5006 16.0513 18.5 16.25V18.125C18.5006 18.3237 18.5798 18.5142 18.7203 18.6547C18.8608 18.7952 19.0513 18.8744 19.25 18.875H20.75V19.625H19.25C19.0513 19.6256 18.8608 19.7048 18.7203 19.8453C18.5798 19.9858 18.5006 20.1763 18.5 20.375V22.25C18.5006 22.4487 18.5798 22.6392 18.7203 22.7797C18.8608 22.9202 19.0513 22.9994 19.25 23H20.75V23.75H19.25C19.0513 23.7506 18.8608 23.8298 18.7203 23.9703C18.5798 24.1108 18.5006 24.3013 18.5 24.5V26.375C18.5006 26.5737 18.5798 26.7642 18.7203 26.9047C18.8608 27.0452 19.0513 27.1244 19.25 27.125H20.75V27.875H9.875C9.77554 27.875 9.68016 27.8355 9.60984 27.7652C9.53951 27.6948 9.5 27.5995 9.5 27.5V14.75H26.75V16.25H26C25.9994 16.0513 25.9202 15.8608 25.7797 15.7203C25.6392 15.5798 25.4487 15.5006 25.25 15.5H23.375C23.1763 15.5006 22.9858 15.5798 22.8453 15.7203C22.7048 15.8608 22.6256 16.0513 22.625 16.25H21.875C21.8744 16.0513 21.7952 15.8608 21.6547 15.7203C21.5142 15.5798 21.3237 15.5006 21.125 15.5H19.25ZM30.5 30.125C30.5 30.2245 30.4605 30.3198 30.3902 30.3902C30.3198 30.4605 30.2245 30.5 30.125 30.5H21.875C21.7755 30.5 21.6802 30.4605 21.6098 30.3902C21.5395 30.3198 21.5 30.2245 21.5 30.125V17.375C21.5 17.2755 21.5395 17.1802 21.6098 17.1098C21.6802 17.0395 21.7755 17 21.875 17H30.125C30.2245 17 30.3198 17.0395 30.3902 17.1098C30.4605 17.1802 30.5 17.2755 30.5 17.375V30.125Z" fill="#0087FF"/>
<path d="M29 17.75H23C22.8011 17.75 22.6103 17.829 22.4697 17.9697C22.329 18.1103 22.25 18.3011 22.25 18.5V20.75C22.25 20.9489 22.329 21.1397 22.4697 21.2803C22.6103 21.421 22.8011 21.5 23 21.5H29C29.1989 21.5 29.3897 21.421 29.5303 21.2803C29.671 21.1397 29.75 20.9489 29.75 20.75V18.5C29.75 18.3011 29.671 18.1103 29.5303 17.9697C29.3897 17.829 29.1989 17.75 29 17.75ZM29 20.75H23V18.5H29V20.75Z" fill="#0087FF"/>
<path d="M27.875 19.25H27.125V20H27.875V19.25Z" fill="#0087FF"/>
<path d="M26.375 19.25H25.625V20H26.375V19.25Z" fill="#0087FF"/>
<path d="M24.875 19.25H24.125V20H24.875V19.25Z" fill="#0087FF"/>
<path d="M12.6295 26C12.6295 26.0828 12.5623 26.15 12.4795 26.15H11.4227C11.3399 26.15 11.2727 26.0828 11.2727 26V23.1067L12.6295 26ZM12.6295 26V21C12.6295 20.9172 12.5623 20.85 12.4795 20.85H11.6108C11.5769 20.85 11.5439 20.8615 11.5174 20.8827L9.90657 22.1651C9.87539 22.19 9.85537 22.2262 9.85093 22.2658C9.8465 22.3054 9.85801 22.3452 9.88293 22.3763L10.3925 23.0124C10.4174 23.0435 10.4536 23.0634 10.4932 23.0677C10.5328 23.0721 10.5725 23.0605 10.6035 23.0355L11.1781 22.5738L11.1781 22.5739L11.1821 22.5705C11.2154 22.5418 11.2498 22.5114 11.2852 22.4794M12.6295 26L11.2852 22.4794M11.2852 22.4794C11.2813 22.5914 11.2782 22.7014 11.2762 22.8096L11.2852 22.4794Z" fill="#0087FF" stroke="#0087FF" stroke-width="0.3" stroke-linejoin="round"/>
<path d="M17.4592 26.15H17.6092V26V25.1234V24.9734H17.4592H15.6395L16.0476 24.5892C16.3392 24.3202 16.5891 24.0738 16.7968 23.8502C17.0118 23.6211 17.1787 23.3862 17.2944 23.1452C17.4128 22.8983 17.471 22.6275 17.471 22.3351C17.471 22.0552 17.4012 21.8002 17.2593 21.5745C17.1175 21.3468 16.916 21.1694 16.6603 21.0414C16.4033 20.9117 16.1014 20.85 15.7599 20.85C15.455 20.85 15.1861 20.8848 14.9562 20.9581C14.7353 21.027 14.5375 21.1195 14.3644 21.2365L14.3644 21.2365L14.3636 21.237C14.2019 21.3479 14.0482 21.4658 13.9024 21.5908L13.7893 21.6877L13.8854 21.8014L14.4518 22.4724L14.5476 22.5859L14.6621 22.4911C14.8508 22.335 15.0285 22.2175 15.1952 22.1362C15.3555 22.058 15.5186 22.0199 15.6858 22.0199C15.8399 22.0199 15.9454 22.061 16.0193 22.1288L16.0193 22.1288L16.0218 22.131C16.0895 22.1904 16.1359 22.2889 16.1359 22.4565C16.1359 22.596 16.1061 22.725 16.0468 22.8454L16.0468 22.8454L16.046 22.8472C15.9866 22.9717 15.8861 23.1173 15.7385 23.2844L15.7385 23.2845C15.5902 23.4526 15.3922 23.6641 15.1438 23.9192C15.1436 23.9193 15.1435 23.9195 15.1434 23.9196L13.9068 25.1696L13.8635 25.2135V25.2751V26V26.15H14.0135H17.4592Z" fill="#0087FF" stroke="#0087FF" stroke-width="0.3"/>
</g>
<defs>
<clipPath id="clip0_5649_56429">
<rect width="24" height="24" fill="white" transform="translate(8 8)"/>
</clipPath>
</defs>
</svg>
