<?xml version="1.0" encoding="UTF-8"?>
<!-- The Best Svg Icon site in the world: iconSvg.co, Visit us! https://iconsvg.co -->
<svg fill="#000000" width="800px" height="800px" version="1.1" viewBox="144 144 512 512" xmlns="http://www.w3.org/2000/svg">
 <g>
  <path d="m525.75 197.69c-11.711 0-21.352 9.543-21.352 21.352v85.117h42.605v-85.117c0.097657-11.809-9.4453-21.352-21.254-21.352z"/>
  <path d="m249.54 217.17-1.4766 248.07h162.76c5.4102 0 9.8398 4.4297 9.8398 9.8398v42.605c0 17.711 14.367 32.078 32.078 32.078 17.711 0 32.078-14.367 32.078-32.078v-298.64c0-7.7734 2.1641-15.055 6.0039-21.352h-221.4c-10.922 0-19.879 8.7578-19.879 19.484zm71.145 63.367c3.8359-3.8359 10.137-3.8359 13.875 0.097657l19.582 19.777 40.344-40.344c3.8359-3.8359 10.035-3.8359 13.875 0 3.8359 3.8359 3.8359 10.035 0 13.875l-47.23 47.332c-1.8711 1.8711-4.3281 2.8555-6.9883 2.8555-2.6562 0-5.1172-1.082-6.9883-2.9531l-26.566-26.766c-3.7383-3.8359-3.7383-10.035 0.097656-13.875zm-34.934 105.09h157.05c5.4102 0 9.8398 4.4297 9.8398 9.8398s-4.4297 9.8398-9.8398 9.8398h-157.05c-5.4102 0-9.8398-4.4297-9.8398-9.8398 0-5.4141 4.332-9.8398 9.8398-9.8398zm0 40.246h94.957c5.4102 0 9.8398 4.4297 9.8398 9.8398s-4.4297 9.8398-9.8398 9.8398h-94.957c-5.4102 0-9.8398-4.4297-9.8398-9.8398 0-5.4141 4.332-9.8398 9.8398-9.8398z"/>
  <path d="m400.98 484.82h-202.21v32.766c0 17.711 14.367 32.078 32.078 32.078h181.35c-6.9883-8.8555-11.219-19.977-11.219-32.078z"/>
  <path d="m582.93 602.31 12.789-28.141h-26.172z"/>
  <path d="m582.53 375.2c-10.332 0-18.695 8.3633-18.695 18.695v10.824h37.391v-10.824c0-10.332-8.3633-18.695-18.695-18.695z"/>
  <path d="m563.84 424.4h37.391v130.18h-37.391z"/>
 </g>
</svg>