<svg width="176" height="44" viewBox="0 0 176 44" fill="none" xmlns="http://www.w3.org/2000/svg">
<g clip-path="url(#clip0_46_1382)">
<path fill-rule="evenodd" clip-rule="evenodd" d="M29.0998 31.41L18.4397 12.0318H10.7115L0.050293 31.41H6.71313L8.5786 27.9124H20.8389L22.7033 31.41H29.0998ZM18.706 23.8748H10.4441L14.7088 16.3384L18.706 23.8748ZM57.3503 31.41L45.3584 21.7209L56.2849 12.0318H48.2883L40.56 19.2981H37.3628V12.0318H31.7654V31.41H37.3628V24.1448H40.2937L49.0894 31.41H57.3503ZM84.8018 26.0276C84.8018 24.4127 84.5354 23.3358 83.7364 22.5299C82.9363 21.991 82.1372 21.7209 80.2707 21.7209C81.8699 21.452 82.4036 21.183 82.9363 20.6451C83.7364 20.1061 84.268 18.7613 84.268 17.1454C84.268 14.9936 83.4679 13.6467 82.1362 12.8398C81.0698 12.3008 80.0044 12.0318 77.6052 12.0318H60.2822V31.41H78.4053C80.5371 31.41 81.6035 31.1411 82.6689 30.8721C84.2691 30.0642 84.8018 28.4493 84.8018 26.0276ZM78.4053 18.2233C78.4053 18.7602 78.1389 19.2981 77.6052 19.5682C77.3388 19.8382 76.8051 19.8382 75.7407 19.8382H65.8786V16.3384H75.7407C76.8061 16.3384 77.0735 16.3385 77.3399 16.6085C77.8726 16.8764 78.4053 17.4154 78.4053 18.2233ZM79.2053 25.4896C79.2053 26.2976 78.6716 26.8345 78.1389 26.8345C77.8726 27.1045 77.6052 27.1045 76.2734 27.1045H65.8786V23.6048H78.1389C78.6726 23.8748 79.2053 24.4117 79.2053 25.4896ZM116.25 31.41L105.857 12.0329H98.1264L87.1999 31.41H93.8638L95.7293 27.9124H107.989L109.854 31.41H116.25ZM106.123 23.8748H97.8611L101.858 16.3384L106.123 23.8748ZM145.035 31.41V12.0318H139.705V26.8345L128.244 12.0318H118.915V31.41H124.513V16.8764L135.705 31.41H145.035ZM175.951 31.41L163.956 21.7209L174.884 12.0318H166.888L158.894 19.2981H155.961V12.0318H150.098V31.41H155.961V24.1448H158.894L167.422 31.41H175.951Z" fill="#CD5241"/>
</g>
<defs>
<clipPath id="clip0_46_1382">
<rect width="176" height="19.4419" fill="white" transform="translate(0 12)"/>
</clipPath>
</defs>
</svg>
