<svg width="176" height="44" viewBox="0 0 176 44" fill="none" xmlns="http://www.w3.org/2000/svg">
<g clip-path="url(#clip0_46_1429)">
<mask id="mask0_46_1429" style="mask-type:luminance" maskUnits="userSpaceOnUse" x="21" y="0" width="42" height="44">
<path fill-rule="evenodd" clip-rule="evenodd" d="M56.7805 44C56.0522 44.0007 55.3321 43.8485 54.667 43.5535C54.0019 43.2585 53.4068 42.8273 52.9205 42.288L36.4931 24.0422L31.0214 38.7566C30.5435 40.0327 29.5768 41.0685 28.333 41.6374C27.0892 42.2062 25.6696 42.2617 24.3847 41.7918C23.7489 41.5617 23.1649 41.209 22.6665 40.7538C22.168 40.2986 21.7648 39.75 21.4801 39.1394C21.1953 38.5288 21.0346 37.8683 21.0072 37.1957C20.9797 36.5231 21.0861 35.8518 21.3201 35.2202L29.7671 12.5C30.0775 11.6692 30.5987 10.9325 31.2801 10.3615C31.9615 9.79048 32.7799 9.40461 33.6555 9.24139C34.5318 9.07608 35.436 9.1385 36.2809 9.42263C37.1258 9.70676 37.8826 10.203 38.4783 10.8633L51.7877 25.6468L52.0644 5.05086C52.0869 3.6907 52.6511 2.39502 53.633 1.44828C54.6149 0.501534 55.9343 -0.0188975 57.3016 0.00123445C58.6688 0.0162125 59.974 0.570751 60.9303 1.54292C61.8866 2.51508 62.4156 3.82528 62.401 5.1854L61.9444 38.9491C61.9291 39.9822 61.6 40.9865 61.0003 41.83C60.4007 42.6735 59.5585 43.3168 58.5845 43.6754C58.0061 43.8894 57.3939 43.9989 56.7767 43.9988" fill="white"/>
</mask>
<g mask="url(#mask0_46_1429)">
<mask id="mask1_46_1429" style="mask-type:luminance" maskUnits="userSpaceOnUse" x="21" y="-1" width="135" height="46">
<path d="M21 44.8406H155.103V-0.0888672H21V44.8406Z" fill="white"/>
</mask>
<g mask="url(#mask1_46_1429)">
<path d="M17.5793 47.403H65.823V-3.40303H17.5793V47.403Z" fill="#1378E8"/>
</g>
</g>
<mask id="mask2_46_1429" style="mask-type:luminance" maskUnits="userSpaceOnUse" x="69" y="12" width="17" height="21">
<path fill-rule="evenodd" clip-rule="evenodd" d="M69.5887 14.2663C69.5824 13.9905 69.6313 13.7161 69.7327 13.4593C69.8341 13.2024 69.9859 12.9682 70.1793 12.7703C70.3823 12.5639 70.6268 12.4022 70.8968 12.2959C71.1668 12.1895 71.4562 12.1409 71.7463 12.1532C72.312 12.1359 72.863 12.3346 73.2861 12.7086C73.4965 12.9072 73.661 13.1489 73.7682 13.417C73.8753 13.6852 73.9225 13.9733 73.9065 14.2614V20.4145L80.9787 12.9505C81.1711 12.7481 81.3888 12.571 81.6263 12.4235C81.9326 12.2355 82.2878 12.1414 82.6475 12.1532C83.1958 12.1501 83.725 12.3533 84.1289 12.7222C84.3403 12.9061 84.508 13.1343 84.62 13.3904C84.732 13.6466 84.7854 13.9242 84.7766 14.2034C84.7757 14.5861 84.6556 14.9591 84.4329 15.2711C84.1142 15.7048 83.758 16.11 83.3683 16.482L77.9314 21.7834L84.5781 28.6487C84.8959 28.9584 85.1842 29.2968 85.4391 29.6596C85.6725 29.9991 85.7935 30.4025 85.7853 30.8137C85.8057 31.097 85.7547 31.3809 85.6368 31.6395C85.519 31.8982 85.338 32.1235 85.1103 32.2949C84.6533 32.6195 84.1035 32.7896 83.542 32.78C83.1456 32.7876 82.7573 32.6672 82.4353 32.4368C82.043 32.141 81.681 31.8074 81.3546 31.4407L73.9102 23.4645V30.7285C73.9128 30.9954 73.8619 31.2602 73.7605 31.5073C73.6591 31.7544 73.5092 31.9789 73.3196 32.1678C73.1166 32.3744 72.8722 32.5361 72.6022 32.6424C72.3321 32.7488 72.0427 32.7973 71.7525 32.7849C71.1868 32.8024 70.6357 32.6037 70.2128 32.2295C70.0058 32.0403 69.843 31.8083 69.7359 31.5499C69.6287 31.2914 69.5797 31.0128 69.5924 30.7335L69.5887 14.2663Z" fill="white"/>
</mask>
<g mask="url(#mask2_46_1429)">
<mask id="mask3_46_1429" style="mask-type:luminance" maskUnits="userSpaceOnUse" x="21" y="-1" width="135" height="46">
<path d="M21 44.8393H155.103V-0.0901031H21V44.8393Z" fill="white"/>
</mask>
<g mask="url(#mask3_46_1429)">
<path d="M66.1667 36.1818H89.2048V8.75137H66.1667V36.1818Z" fill="#171C1F"/>
</g>
</g>
<mask id="mask4_46_1429" style="mask-type:luminance" maskUnits="userSpaceOnUse" x="85" y="12" width="22" height="22">
<path fill-rule="evenodd" clip-rule="evenodd" d="M96.1492 29.4374C97.0151 29.4598 97.8734 29.2713 98.6493 28.8882C99.3367 28.5352 99.9384 28.0373 100.412 27.4292C100.897 26.7997 101.255 26.0836 101.467 25.3197C101.702 24.4976 101.82 23.6466 101.816 22.7918C101.817 21.9407 101.695 21.0938 101.453 20.2775C101.233 19.5099 100.87 18.7899 100.384 18.1545C99.9099 17.5463 99.3082 17.0484 98.6208 16.6955C97.8546 16.315 97.0066 16.1264 96.1505 16.1462C95.2943 16.1262 94.4462 16.3148 93.6801 16.6955C92.9921 17.0475 92.3903 17.5456 91.917 18.1545C91.4298 18.7891 91.0669 19.5093 90.8475 20.2775C90.6056 21.0939 90.4836 21.9407 90.4852 22.7918C90.4804 23.6465 90.597 24.4975 90.8314 25.3197C91.0453 26.083 91.4032 26.7989 91.886 27.4292C92.3597 28.0376 92.9615 28.5356 93.6491 28.8882C94.4255 29.2712 95.2829 29.4597 96.1492 29.4374ZM96.1505 33.4243C94.7072 33.4409 93.2761 33.1606 91.9468 32.601C90.7095 32.0795 89.592 31.3126 88.6626 30.3471C87.736 29.3763 87.013 28.2316 86.5359 26.9799C86.0259 25.642 85.7709 24.2214 85.7841 22.7906C85.7709 21.3594 86.0259 19.9383 86.5359 18.6C87.013 17.3489 87.7355 16.2047 88.6613 15.234C89.5872 14.2717 90.6987 13.5051 91.9294 12.9802C93.2631 12.4178 94.6996 12.1375 96.148 12.1569C97.5825 12.1427 99.004 12.4283 100.321 12.995C101.559 13.5278 102.676 14.3046 103.605 15.2785C104.53 16.2582 105.256 17.4061 105.744 18.6593C106.262 19.9758 106.523 21.3782 106.514 22.7918C106.527 24.2223 106.272 25.6425 105.761 26.9799C105.286 28.228 104.569 29.3715 103.652 30.3459C102.73 31.3129 101.618 32.0802 100.384 32.5998C99.0448 33.1614 97.6035 33.4417 96.1505 33.4231" fill="white"/>
</mask>
<g mask="url(#mask4_46_1429)">
<mask id="mask5_46_1429" style="mask-type:luminance" maskUnits="userSpaceOnUse" x="21" y="-1" width="135" height="46">
<path d="M21 44.8393H155.103V-0.0901031H21V44.8393Z" fill="white"/>
</mask>
<g mask="url(#mask5_46_1429)">
<path d="M82.3633 36.8261H109.936V8.75137H82.3633V36.8261Z" fill="#171C1F"/>
</g>
</g>
<mask id="mask6_46_1429" style="mask-type:luminance" maskUnits="userSpaceOnUse" x="107" y="12" width="13" height="21">
<path fill-rule="evenodd" clip-rule="evenodd" d="M107.811 14.3959C107.789 14.0903 107.833 13.7835 107.94 13.4962C108.047 13.2088 108.215 12.9475 108.431 12.7296C108.857 12.3442 109.416 12.1384 109.991 12.1556C110.566 12.1378 111.126 12.3437 111.552 12.7296C111.769 12.947 111.938 13.2081 112.046 13.4954C112.154 13.7828 112.199 14.0898 112.178 14.3959V28.8153H117.367C117.698 28.8077 118.026 28.8713 118.33 29.0017C118.584 29.1142 118.808 29.2831 118.986 29.4954C119.148 29.6909 119.271 29.9149 119.35 30.1558C119.429 30.3918 119.471 30.6388 119.474 30.8878C119.429 31.3782 119.218 31.8389 118.876 32.1949C118.683 32.3952 118.449 32.5515 118.19 32.6532C117.931 32.7548 117.653 32.7993 117.375 32.7837H110.085C109.777 32.802 109.468 32.7551 109.18 32.6462C108.891 32.5373 108.629 32.3687 108.41 32.1517C107.991 31.6757 107.777 31.0552 107.813 30.4237L107.811 14.3959Z" fill="white"/>
</mask>
<g mask="url(#mask6_46_1429)">
<mask id="mask7_46_1429" style="mask-type:luminance" maskUnits="userSpaceOnUse" x="21" y="-1" width="135" height="46">
<path d="M21 44.8393H155.103V-0.0901184H21V44.8393Z" fill="white"/>
</mask>
<g mask="url(#mask7_46_1429)">
<path d="M104.389 36.1818H122.892V8.75136H104.389V36.1818Z" fill="#171C1F"/>
</g>
</g>
<mask id="mask8_46_1429" style="mask-type:luminance" maskUnits="userSpaceOnUse" x="120" y="12" width="20" height="21">
<path fill-rule="evenodd" clip-rule="evenodd" d="M127.341 24.7581H133.049L130.258 16.5646H130.198L127.341 24.7581ZM127.011 14.5021C127.267 13.8493 127.691 13.2748 128.24 12.8358C128.8 12.3839 129.504 12.1439 130.225 12.1581C130.953 12.134 131.667 12.3694 132.236 12.8222C132.778 13.2676 133.193 13.8475 133.437 14.5033L139.32 29.8719C139.41 30.0686 139.476 30.276 139.514 30.4891C139.539 30.629 139.554 30.7705 139.559 30.9124C139.565 31.1683 139.512 31.4221 139.405 31.6546C139.297 31.8871 139.138 32.0922 138.939 32.2542C138.535 32.6007 138.017 32.7871 137.484 32.7775C136.966 32.8135 136.452 32.6686 136.029 32.3677C135.693 32.0866 135.439 31.7209 135.293 31.3087L134.393 28.6524H126.05L125.149 31.2803C125.002 31.6955 124.749 32.0655 124.415 32.3541C124.006 32.6616 123.499 32.8119 122.988 32.7775C122.415 32.7875 121.858 32.5861 121.426 32.2122C121.216 32.0412 121.048 31.8253 120.933 31.5806C120.819 31.3359 120.762 31.0686 120.767 30.7989C120.762 30.6031 120.788 30.4079 120.844 30.22C120.878 30.0986 120.922 29.9804 120.978 29.867L127.011 14.5021Z" fill="white"/>
</mask>
<g mask="url(#mask8_46_1429)">
<mask id="mask9_46_1429" style="mask-type:luminance" maskUnits="userSpaceOnUse" x="21" y="-1" width="135" height="46">
<path d="M21 44.8393H155.103V-0.0901031H21V44.8393Z" fill="white"/>
</mask>
<g mask="url(#mask9_46_1429)">
<path d="M117.346 36.1818H142.975V8.75137H117.346V36.1818Z" fill="#171C1F"/>
</g>
</g>
<mask id="mask10_46_1429" style="mask-type:luminance" maskUnits="userSpaceOnUse" x="138" y="12" width="17" height="21">
<path fill-rule="evenodd" clip-rule="evenodd" d="M144.817 23.0856L139.358 15.534C139.092 15.161 138.951 14.7139 138.955 14.2565C138.946 13.7123 139.153 13.1867 139.532 12.7938C139.724 12.5919 139.957 12.4332 140.216 12.328C140.475 12.2229 140.754 12.1738 141.033 12.184C141.379 12.164 141.725 12.2316 142.037 12.3805C142.35 12.5295 142.62 12.7549 142.821 13.0357L146.975 18.9691L151.131 13.0357C151.332 12.7547 151.602 12.5291 151.915 12.3801C152.227 12.2311 152.573 12.1636 152.919 12.184C153.199 12.174 153.477 12.2231 153.735 12.3283C153.994 12.4334 154.227 12.5921 154.419 12.7938C154.799 13.1862 155.006 13.7122 154.996 14.2565C155.001 14.714 154.86 15.1613 154.593 15.534L149.14 23.0856V30.6594C149.143 31.1812 148.965 31.6879 148.635 32.0937C148.427 32.3215 148.169 32.4979 147.881 32.6089C147.593 32.7199 147.283 32.7624 146.975 32.7331C146.668 32.762 146.358 32.7193 146.07 32.6083C145.782 32.4973 145.525 32.3211 145.317 32.0937C144.989 31.6874 144.813 31.1806 144.817 30.6594V23.0856Z" fill="white"/>
</mask>
<g mask="url(#mask10_46_1429)">
<mask id="mask11_46_1429" style="mask-type:luminance" maskUnits="userSpaceOnUse" x="21" y="-1" width="135" height="46">
<path d="M21 44.8406H155.103V-0.0888824H21V44.8406Z" fill="white"/>
</mask>
<g mask="url(#mask11_46_1429)">
<path d="M135.533 36.1435H158.417V8.78221H135.533V36.1435Z" fill="#171C1F"/>
</g>
</g>
</g>
<defs>
<clipPath id="clip0_46_1429">
<rect width="134" height="44" fill="white" transform="translate(21)"/>
</clipPath>
</defs>
</svg>
