<svg width="176" height="44" viewBox="0 0 176 44" fill="none" xmlns="http://www.w3.org/2000/svg">
<path d="M158.291 27.389L152.765 18.2502L152.768 33.2927C152.774 34.8436 151.556 36.6377 149.508 36.6494C147.791 36.661 146.213 35.2576 146.201 33.1753C146.198 32.753 146.415 32.1383 146.54 31.7585L151.726 16.5319L149.379 12.6455L140.581 27.713H140.585C139.562 29.3813 138.975 31.3495 138.984 33.4601C139.011 39.0632 143.744 44.0282 149.545 43.9999C155.351 43.9682 160.028 38.9157 160 33.3485C159.989 31.1588 159.402 29.084 158.291 27.389Z" fill="#E2294A"/>
<path d="M127.145 16.6102L132.671 25.7498L132.667 10.7073C132.659 9.15309 133.879 7.36232 135.925 7.35066C137.643 7.33733 139.223 8.74247 139.232 10.8214C139.236 11.2437 139.018 11.8626 138.896 12.2399L133.707 27.4706L136.054 31.3537L144.853 16.282L144.848 16.2854C145.872 14.617 146.461 12.6472 146.451 10.5366C146.424 4.9352 141.69 -0.0323254 135.89 0.000158429C130.084 0.0318093 125.405 5.08429 125.436 10.6482C125.445 12.8413 126.033 14.9169 127.145 16.6102Z" fill="#F16E21"/>
<path d="M82.6286 30.295V27.0408C81.6761 26.7876 81.0114 26.706 80.6207 26.706C76.6123 26.706 74.1786 28.3843 74.1786 32.7238V43.6384H78.3543V32.6089H78.3657C78.4146 30.8364 79.5271 29.9844 80.8956 29.9844C81.6907 29.9844 82.6286 30.295 82.6286 30.295Z" fill="#626168"/>
<path d="M48.9419 43.6376H41.7813V20.684H48.9721C53.3957 20.684 55.4811 23.5684 55.4811 26.3645C55.4811 28.3627 54.5252 30.1734 52.6756 31.1163V31.1555C55.1736 31.746 56.9548 33.9857 56.9548 36.716C56.9556 40.001 54.6231 43.6376 48.9419 43.6376ZM47.9478 24.1614H45.9268V30.1734H48.3939C49.87 30.1734 51.3397 28.9474 51.3397 27.1283C51.3397 25.3808 50.2428 24.1614 47.9478 24.1614ZM48.734 33.7075H45.926V40.0727H48.5619C51.3389 40.0727 52.7098 38.8133 52.7098 36.716C52.7106 34.9319 51.2695 33.7075 48.734 33.7075Z" fill="#626168"/>
<path d="M39.6504 43.6442C39.3714 43.6592 39.0876 43.6642 38.8006 43.6642C34.7937 43.6642 32.3642 41.9875 32.3642 37.6497V20.694H36.5374V37.7655H36.5439C36.601 39.6762 37.9442 40.4491 39.621 40.4491L39.6496 40.4458L39.6504 43.6442Z" fill="#626168"/>
<path d="M97.8291 20.704H102.005V33.6367L108.193 26.7393H113.166L107.371 33.0995L113.634 43.6442H108.731L104.459 36.3329L102.005 39.0207V43.6442H97.8291V20.704Z" fill="#626168"/>
<path d="M122.801 33.1478L119.948 33.2536C115.803 33.391 113.166 35.2451 113.166 38.6742C113.166 41.9317 115.496 43.9924 118.478 43.9924C120.637 43.9924 122.107 43.1528 123.168 42.1749L123.854 43.6425H127.315C127.075 42.8721 126.987 41.6494 126.987 39.2706V32.7247C126.987 28.3901 124.552 26.7052 120.543 26.7052C118.436 26.7052 117.268 27.0067 116.41 27.1641V30.365C116.41 30.365 117.676 29.7403 119.657 29.9077C121.208 30.0343 122.752 30.8389 122.801 32.6097L122.801 33.1478ZM122.809 39.637C122.257 40.126 121.338 40.664 119.916 40.664C118.202 40.664 117.278 39.727 117.278 38.3618C117.278 36.96 118.353 36.2429 120.497 36.1221C121.193 36.0838 122.809 36.0505 122.809 36.0505V39.637Z" fill="#626168"/>
<path d="M91.1619 33.1477L88.3099 33.2535C84.1668 33.391 81.5293 35.245 81.5293 38.6742C81.5293 41.9317 83.8602 43.9957 86.8394 43.9957C88.9998 43.9957 90.4678 43.1569 91.5305 42.1749L92.2164 43.6425H95.6768C95.4329 42.8721 95.3457 41.6493 95.3457 39.2705V32.7246C95.3457 28.3901 92.9137 26.7085 88.9052 26.7085C86.7978 26.7085 85.6283 27.0116 84.7703 27.1641V30.365C84.7703 30.365 86.041 29.7403 88.0171 29.9077C89.5699 30.0385 91.1154 30.8414 91.1627 32.6097L91.1619 33.1477ZM91.1692 39.637C90.6179 40.1259 89.6979 40.669 88.2797 40.669C86.5637 40.669 85.6373 39.7261 85.6373 38.361C85.6373 36.9642 86.7122 36.242 88.8587 36.1213C89.556 36.0829 91.1684 36.0496 91.1684 36.0496L91.1692 39.637Z" fill="#626168"/>
<path d="M67.4836 33.1511L64.6316 33.2585C60.487 33.3926 57.8486 35.2492 57.8486 38.6783C57.8486 41.9317 60.1795 43.9965 63.1612 43.9965C65.3175 43.9965 66.7888 43.1577 67.8515 42.1757L68.5373 43.645H71.9961C71.7564 42.8762 71.6666 41.6518 71.6666 39.2714V32.7305C71.6666 28.391 69.233 26.7101 65.2254 26.7101C63.118 26.7101 61.9501 27.0133 61.0905 27.1657V30.3691C61.0905 30.3691 62.3587 29.7411 64.3388 29.911C65.8892 30.0401 67.4355 30.8431 67.4836 32.6105V33.1511ZM67.4902 39.637C66.9405 40.1259 66.0189 40.6707 64.5998 40.6707C62.8863 40.6707 61.9599 39.7261 61.9599 38.361C61.9599 36.9642 63.034 36.242 65.1813 36.1229C65.877 36.0829 67.4902 36.053 67.4902 36.053V39.637Z" fill="#626168"/>
<path d="M25.6342 33.1511L22.7822 33.2585C18.6375 33.3926 16 35.2492 16 38.6783C16 41.9317 18.3341 43.9965 21.3109 43.9965C23.4681 43.9965 24.941 43.1577 26.0028 42.1757L26.6903 43.645H30.1491C29.9053 42.8762 29.8196 41.6518 29.8196 39.2714V32.7305C29.8196 28.391 27.3844 26.7101 23.3759 26.7101C21.2685 26.7101 20.1006 27.0133 19.2443 27.1657V30.3691C19.2443 30.3691 20.5109 29.7411 22.491 29.911C24.0414 30.0401 25.5877 30.8431 25.6342 32.6105V33.1511ZM25.6399 39.637C25.0935 40.1259 24.1719 40.6707 22.752 40.6707C21.0393 40.6707 20.1137 39.7261 20.1137 38.361C20.1137 36.9642 21.1861 36.242 23.3327 36.1229C24.0267 36.0829 25.6399 36.053 25.6399 36.053V39.637Z" fill="#626168"/>
</svg>
