<svg width="176" height="44" viewBox="0 0 176 44" fill="none" xmlns="http://www.w3.org/2000/svg">
<g clip-path="url(#clip0_46_1433)">
<path d="M12.9228 15.8893H6.1537L10.0888 5.90314L16.0968 20.2098L20.4529 20.004L12.4369 0.0950368L8.11316 0.063385L0 20.1306L11.352 20.099L12.9228 15.8893Z" fill="#7C0741"/>
<path d="M25.9103 0.0158234H21.9104V20.0672H25.9103V0.0158234Z" fill="#7C0741"/>
<path d="M29.3758 3.16517L33.311 2.56378L33.4405 6.67851H36.8412V9.95447L33.3757 10.0811L33.5215 15.1454C33.5215 15.1454 33.2462 17.9782 36.8412 16.5697L36.9708 19.7349C36.9708 19.7349 31.2381 22.6468 29.5054 16.5697L29.3758 10.0811L27.5297 10.0178V6.64686H29.3273L29.3758 3.16517Z" fill="#7C0741"/>
<path d="M95.5443 3.16517L99.4956 2.56378L99.6252 6.67851H103.01V9.95447L99.5604 10.0811L99.6899 15.1454C99.6899 15.1454 99.4146 17.9782 102.929 16.5697L103.074 19.7349C103.074 19.7349 97.3418 22.6468 95.6091 16.5697L95.5443 10.0811H93.7468V6.64686H95.5443V3.16517Z" fill="#7C0741"/>
<path d="M42.5738 14.4016H51.5453L51.691 11.9802C51.6482 11.1973 51.4453 10.4308 51.0944 9.72574C50.7435 9.02071 50.2517 8.39151 49.6479 7.87524C49.0442 7.35897 48.3408 6.9661 47.5791 6.71979C46.8175 6.47349 46.0131 6.37874 45.2135 6.44114C39.0598 6.44114 38.2986 11.9802 38.3796 13.7369C38.4606 15.4936 39.999 22.7735 51.0271 19.1968L50.9947 15.8259C50.9947 15.8259 44.7762 19.4026 42.5738 14.4016Z" fill="#7C0741"/>
<path d="M42.7034 11.9011H47.9665C47.9665 11.9011 47.6426 9.49553 45.4726 9.49553C45.1254 9.45784 44.7741 9.49184 44.4412 9.59532C44.1084 9.6988 43.8015 9.86946 43.5404 10.0962C43.2793 10.323 43.0699 10.6009 42.9258 10.9118C42.7816 11.2227 42.7058 11.5597 42.7034 11.9011Z" fill="white"/>
<path d="M53.2133 7.65972V20.2097H57.359V11.9802C57.359 11.9802 58.2496 9.27396 62.4601 10.2868L62.6058 6.56773C62.6058 6.56773 59.9824 5.28583 57.1484 8.15032V6.71016L53.2133 7.65972Z" fill="#7C0741"/>
<path d="M63.9175 7.51729V19.9248H68.0145V12.1068C68.0554 11.5414 68.3134 11.0119 68.7368 10.6245C69.1603 10.2371 69.7179 10.0204 70.2979 10.0178C72.3707 10.0178 72.4355 11.2997 72.5165 12.1068C72.5974 12.9139 72.5165 20.0197 72.5165 20.0197H76.6459V11.0781C76.6938 10.4615 76.6086 9.84193 76.3959 9.25954C76.1831 8.67715 75.8476 8.14492 75.4109 7.69733C74.9743 7.24975 74.4464 6.89678 73.8613 6.6613C73.2762 6.42581 72.647 6.31306 72.0145 6.33035C71.2629 6.29673 70.5133 6.42861 69.8209 6.71624C69.1286 7.00387 68.5113 7.43989 68.0145 7.99207V6.64687L63.9175 7.51729Z" fill="#7C0741"/>
<path d="M90.2488 30.3382V42.7299H94.4106V34.9436C94.4106 34.9436 94.6211 32.7754 96.694 32.8387C98.7668 32.902 98.8316 34.1206 98.8963 34.9436C98.9611 35.7665 98.8963 42.7457 98.8963 42.7457H102.993L103.091 33.8516C103.136 33.2355 103.049 32.617 102.835 32.0357C102.622 31.4544 102.286 30.9232 101.85 30.4761C101.414 30.0291 100.887 29.6761 100.303 29.4397C99.719 29.2034 99.0909 29.089 98.4591 29.1038C97.6757 29.0596 96.8926 29.1955 96.1726 29.5005C95.4526 29.8056 94.8159 30.2714 94.3135 30.8605V29.5153L90.2488 30.3382Z" fill="#7C0741"/>
<path d="M88.9371 7.27991L91.8358 6.64688V20.0514H87.8036V19.3392C86.7379 20.0784 85.449 20.4463 84.1437 20.3838C81.8604 20.3838 78.1682 18.4846 78.1682 13.3254C78.122 12.4216 78.2647 11.518 78.5876 10.6698C78.9104 9.82162 79.4068 9.04662 80.0462 8.39206C80.6857 7.73751 81.4549 7.21713 82.307 6.86267C83.159 6.5082 84.076 6.32708 85.002 6.33036C86.3814 6.25465 87.7523 6.58545 88.9371 7.27991Z" fill="#7C0741"/>
<path d="M87.755 10.4293V16.3956C86.9745 16.919 86.0156 17.1234 85.083 16.9654C83.2207 16.8388 82.2166 14.813 82.3624 12.9614C82.3624 12.122 82.7036 11.3169 83.311 10.7233C83.9184 10.1297 84.7422 9.79623 85.6012 9.79623C87.6902 9.63797 87.755 10.4293 87.755 10.4293Z" fill="white"/>
<path d="M85.8279 29.8318L88.7266 29.1988V42.6033H84.6781V41.8911C83.6058 42.6293 82.3122 42.9969 81.0021 42.9356C78.7349 42.9356 75.0265 41.0524 75.0265 35.8773C74.9963 34.9863 75.1484 34.0984 75.474 33.2657C75.7996 32.433 76.2922 31.6722 76.9227 31.028C77.5532 30.3838 78.309 29.8692 79.1458 29.5143C79.9826 29.1594 80.8835 28.9714 81.7956 28.9614C83.1984 28.8523 84.6026 29.1554 85.8279 29.8318Z" fill="#7C0741"/>
<path d="M84.581 32.9812V38.9475C83.8057 39.4692 82.8546 39.6789 81.9252 39.5331C80.0629 39.3906 79.0589 37.3649 79.1884 35.5133C79.1884 34.6738 79.5296 33.8688 80.137 33.2752C80.7444 32.6816 81.5682 32.3481 82.4272 32.3481C84.5162 32.2057 84.581 32.9812 84.581 32.9812Z" fill="white"/>
<path d="M108.629 6.71018H104.419V20.0831H108.629V6.71018Z" fill="#7C0741"/>
<path d="M106.556 4.81111C107.853 4.81111 108.904 3.78371 108.904 2.51635C108.904 1.24899 107.853 0.221596 106.556 0.221596C105.259 0.221596 104.208 1.24899 104.208 2.51635C104.208 3.78371 105.259 4.81111 106.556 4.81111Z" fill="#7C0741"/>
<path d="M111.852 10.0811V19.9881H115.9V10.1286L119.139 10.0336V6.69435H115.981V4.71612C115.981 4.71612 116.564 2.84866 119.22 3.86152V0.395647C118.465 0.183033 117.688 0.0503881 116.904 0C115.819 0 112.046 0.53808 112.046 4.09891V6.82096H109.957V10.1127L111.852 10.0811Z" fill="#7C0741"/>
<path d="M58.6544 22.8368V42.7299H66.8485C66.8485 42.7299 73.5366 42.8565 73.569 37.2225C73.7131 36.168 73.4656 35.0979 72.8714 34.2064C72.2771 33.315 71.3755 32.6613 70.3302 32.364C70.3302 32.364 72.8727 31.7309 72.8727 27.9485C72.8727 24.1661 69.6339 22.8842 66.3951 22.8526L58.6544 22.8368Z" fill="#7C0741"/>
<path d="M63.1564 26.4293V30.6073H66.217C66.4942 30.6058 66.7681 30.5487 67.0218 30.4396C67.2755 30.3304 67.5035 30.1715 67.6918 29.9727C67.8801 29.7739 68.0245 29.5394 68.1163 29.2837C68.208 29.0281 68.245 28.7568 68.2251 28.4866C68.259 28.2279 68.2375 27.9652 68.162 27.7151C68.0866 27.4649 67.9588 27.2328 67.7868 27.0335C67.6147 26.8341 67.4022 26.6718 67.1627 26.5569C66.9231 26.442 66.6618 26.377 66.3952 26.366L63.1564 26.4293Z" fill="white"/>
<path d="M63.1564 34.2473V39.2324H66.8C66.8 39.2324 68.7757 39.2324 68.8243 36.7478C68.8678 36.4462 68.8455 36.1391 68.7586 35.8466C68.6717 35.5541 68.5223 35.283 68.3203 35.0512C68.1182 34.8193 67.8681 34.632 67.5865 34.5016C67.3049 34.3712 66.9982 34.3007 66.6867 34.2948L63.1564 34.2473Z" fill="white"/>
<path d="M104.338 23.7072L108.499 22.7418L108.532 34.089L113.698 28.724L118.167 28.6765L113.001 34.0415L118.54 42.6824L113.876 42.7457L110.297 36.8268L108.516 38.4569L108.467 42.7457H104.305L104.338 23.7072Z" fill="#7C0741"/>
<path d="M167.364 1.04454C160.32 3.16521 156.854 6.97925 157.227 12.2651C157.632 17.8358 161.275 21.5549 167.3 22.5678C164.207 24.3244 157.972 23.8655 154.118 19.8141C152.303 17.8669 151.205 15.3842 150.997 12.7586C150.789 10.1331 151.482 7.51461 152.968 5.31753C154.501 3.09868 156.769 1.46291 159.39 0.684835C162.012 -0.0932357 164.827 0.0337733 167.364 1.04454Z" fill="#7B043F"/>
<path d="M159.607 32.364C166.781 30.275 170.182 26.3502 169.696 20.8269C169.512 18.2735 168.398 15.8692 166.556 14.049C164.714 12.2289 162.267 11.1132 159.656 10.9041C162.36 9.19489 168.352 9.44811 172.239 12.9931C174.251 14.8669 175.543 17.3591 175.9 20.0526C176.256 22.7462 175.656 25.4778 174.198 27.7903C172.704 30.1073 170.423 31.8358 167.755 32.6722C165.086 33.5087 162.202 33.3995 159.607 32.364Z" fill="#7B043F"/>
<path d="M148.806 32.2532C146.346 33.286 143.602 33.476 141.018 32.7922C138.434 32.1085 136.162 30.5911 134.572 28.4866C132.946 26.3086 132.133 23.652 132.269 20.9594C132.404 18.2668 133.48 15.701 135.317 13.6894C139.041 9.59051 145.308 9.02078 148.66 10.8566C145.983 11.0633 143.476 12.2234 141.616 14.1167C139.727 15.9793 138.632 18.4743 138.555 21.0959C138.482 22.4745 138.69 23.8536 139.168 25.1525C139.647 26.4514 140.385 27.6441 141.341 28.6607C143.261 30.7555 145.936 32.0429 148.806 32.2532Z" fill="#7B043F"/>
<path d="M140.887 41.9861C146.636 41.1315 150.604 37.3808 151.025 32.4906C151.195 31.0586 151.063 29.6078 150.637 28.2277C150.211 26.8476 149.5 25.5676 148.547 24.4668C147.602 23.3498 146.437 22.4296 145.121 21.7609C143.805 21.0921 142.366 20.6884 140.887 20.5737C143.222 19.5705 145.828 19.3368 148.311 19.9078C150.794 20.4787 153.02 21.8234 154.652 23.7388C156.4 25.8023 157.37 28.3888 157.403 31.0671C157.435 33.7454 156.527 36.3536 154.83 38.4569C153.23 40.4662 150.995 41.9019 148.473 42.5402C145.951 43.1786 143.284 42.9838 140.887 41.9861Z" fill="#7B043F"/>
<path d="M126.313 0H125.487V43.0464H126.313V0Z" fill="#7B043F"/>
</g>
<defs>
<clipPath id="clip0_46_1433">
<rect width="176" height="44" fill="white" transform="matrix(-1 0 0 -1 176 44)"/>
</clipPath>
</defs>
</svg>
