<svg width="176" height="44" viewBox="0 0 176 44" fill="none" xmlns="http://www.w3.org/2000/svg">
<path fill-rule="evenodd" clip-rule="evenodd" d="M32.0159 34.9491H27.0763C23.3948 34.9491 20.4107 31.7839 20.4107 27.8783V15.5695C20.4095 15.5677 32.0159 15.5665 32.0159 15.5665C35.6963 15.5665 38.681 18.7323 38.681 22.6368V27.8783C38.681 31.7839 35.6963 34.9491 32.0159 34.9491Z" fill="#0F7AD1"/>
<mask id="mask0_46_1384" style="mask-type:alpha" maskUnits="userSpaceOnUse" x="0" y="9" width="19" height="20">
<path fill-rule="evenodd" clip-rule="evenodd" d="M0 9H18.2709V28.3833H0V9Z" fill="white"/>
</mask>
<g mask="url(#mask0_46_1384)">
<path fill-rule="evenodd" clip-rule="evenodd" d="M6.66559 9H11.6053C15.2862 9 18.2709 12.1655 18.2709 16.0709V28.3796L6.66559 28.3833C2.98468 28.3833 0 25.2169 0 21.3115V16.0709C0 12.1655 2.98468 9 6.66559 9Z" fill="#221E1F"/>
</g>
<path fill-rule="evenodd" clip-rule="evenodd" d="M51.744 18.4412L49.6824 24.7357H53.737L51.744 18.4412ZM55.5465 30.6417L54.5852 27.5796H48.7886L47.8034 30.6417H44.4824L50.4156 13.3374H52.9122L58.8681 30.6417H55.5465Z" fill="#231F20"/>
<path fill-rule="evenodd" clip-rule="evenodd" d="M67.5744 30.6416V22.9856C67.5744 21.6248 66.8641 20.6768 65.6042 20.6768C64.3208 20.6768 63.6115 21.6006 63.6115 22.9856V30.6416H60.6335V17.9795H63.5422V19.1462C64.3208 18.271 65.3061 17.8333 66.5205 17.8333C67.8266 17.8333 68.8343 18.271 69.5446 19.1704C70.2093 20.0208 70.5524 21.1386 70.5524 22.5483V30.6416H67.5744Z" fill="#231F20"/>
<path fill-rule="evenodd" clip-rule="evenodd" d="M79.4256 25.2951H77.0662C75.9429 25.2951 75.3938 25.781 75.3938 26.7293C75.3938 27.7012 75.9663 28.1871 77.1112 28.1871C78.1423 28.1871 78.807 27.9202 79.1509 27.3856C79.3333 27.0935 79.4256 26.6318 79.4256 25.9759V25.2951ZM79.494 30.6416V29.5477C78.7382 30.3499 77.7539 30.7623 76.5622 30.7623C75.3256 30.7623 74.3635 30.4229 73.6526 29.7666C72.8968 29.0859 72.5307 28.0893 72.5307 26.8016C72.5307 25.5859 72.9429 24.6623 73.7443 24.0061C74.477 23.4229 75.4395 23.1312 76.6077 23.1312H79.4258V22.4994C79.4258 21.163 78.6927 20.5071 77.203 20.5071C76.2412 20.5071 75.4847 20.8471 74.9125 21.5517L73.0112 19.5831C73.5837 18.9031 74.2484 18.4409 74.9584 18.1734C75.577 17.9547 76.3561 17.8333 77.3186 17.8333C80.7084 17.8333 82.4037 19.316 82.4037 22.3055V30.6416H79.494Z" fill="#231F20"/>
<path fill-rule="evenodd" clip-rule="evenodd" d="M91.568 21.8925C91.2702 21.0909 90.6747 20.6775 89.8036 20.6775C88.9102 20.6775 88.3378 21.0909 88.04 21.8925C87.8798 22.3549 87.7887 23.1564 87.7887 24.2992C87.7887 25.4411 87.8798 26.2429 88.04 26.705C88.3378 27.531 88.9342 27.9445 89.8036 27.9445C90.6747 27.9445 91.2702 27.531 91.568 26.7295C91.7511 26.2185 91.8436 25.4167 91.8436 24.2992C91.8436 23.2054 91.7511 22.4028 91.568 21.8925ZM91.912 30.6417V29.4509C91.1556 30.3502 90.1716 30.7876 88.9564 30.7876C86.6885 30.7876 85.3597 29.5965 84.9706 27.2148C84.8556 26.5585 84.81 25.5864 84.81 24.2989C84.81 23.0347 84.8556 22.0625 84.9706 21.4069C85.3597 19.0242 86.6658 17.8338 88.9333 17.8338C90.1476 17.8338 91.1324 18.2466 91.8427 19.0977V13.3374H94.8204V30.6417H91.912Z" fill="#231F20"/>
<path fill-rule="evenodd" clip-rule="evenodd" d="M103.574 21.8684C103.276 21.0668 102.68 20.6775 101.81 20.6775C100.962 20.6775 100.366 21.091 100.068 21.8925C99.8622 22.4274 99.7467 23.2295 99.7467 24.2992C99.7467 25.3928 99.8391 26.194 100.045 26.7295C100.366 27.531 100.962 27.9445 101.81 27.9445C102.68 27.9445 103.276 27.531 103.574 26.7295C103.78 26.2185 103.894 25.3928 103.894 24.2992C103.894 23.2054 103.78 22.4032 103.574 21.8684ZM105.52 29.2318C104.58 30.2768 103.344 30.7871 101.81 30.7871C100.274 30.7871 99.0596 30.2768 98.1209 29.2318C97.2276 28.2357 96.7689 26.6071 96.7689 24.2984C96.7689 19.9964 98.4418 17.8333 101.81 17.8333C105.177 17.8333 106.872 19.9964 106.872 24.2984C106.872 26.6071 106.413 28.2357 105.52 29.2318Z" fill="#231F20"/>
<path fill-rule="evenodd" clip-rule="evenodd" d="M112.21 30.6408C110.124 30.6408 108.728 29.231 108.728 27.0197V13.3365H111.705V26.8249C111.705 27.5787 112.05 27.9671 112.76 27.9671H113.906V30.6408H112.21Z" fill="#231F20"/>
<path fill-rule="evenodd" clip-rule="evenodd" d="M122.244 30.6418V29.4752C121.465 30.3504 120.48 30.7877 119.267 30.7877C117.961 30.7877 116.953 30.3504 116.243 29.451C115.578 28.6003 115.235 27.4822 115.235 26.0728V17.9798H118.212V25.6354C118.212 26.9963 118.922 27.944 120.182 27.944C121.465 27.944 122.175 27.0208 122.175 25.6354V17.9798H125.154V30.6418H122.244Z" fill="#231F20"/>
<path fill-rule="evenodd" clip-rule="evenodd" d="M134.789 21.8925C134.492 21.0909 133.92 20.6775 133.026 20.6775C132.132 20.6775 131.56 21.0909 131.262 21.8925C131.101 22.3549 131.01 23.1564 131.01 24.2992C131.01 25.4411 131.101 26.2429 131.262 26.705C131.56 27.531 132.156 27.9445 133.026 27.9445C133.896 27.9445 134.492 27.531 134.789 26.705C134.95 26.2429 135.043 25.4411 135.043 24.2992C135.043 23.1564 134.95 22.3549 134.789 21.8925ZM137.86 27.2148C137.47 29.5965 136.164 30.7876 133.896 30.7876C132.683 30.7876 131.674 30.3502 130.917 29.4509V30.6417H128.032V13.3374H131.01V19.0977C131.72 18.2466 132.683 17.8338 133.896 17.8338C136.164 17.8338 137.47 19.0242 137.86 21.4069C137.974 22.0625 138.02 23.0347 138.02 24.2989C138.02 25.5864 137.974 26.5585 137.86 27.2148Z" fill="#231F20"/>
<path fill-rule="evenodd" clip-rule="evenodd" d="M146.652 25.2951H144.293C143.171 25.2951 142.621 25.781 142.621 26.7293C142.621 27.7012 143.194 28.1871 144.339 28.1871C145.37 28.1871 146.034 27.9202 146.378 27.3856C146.561 27.0935 146.652 26.6318 146.652 25.9759V25.2951ZM146.722 30.6416V29.5477C145.965 30.3499 144.98 30.7623 143.789 30.7623C142.553 30.7623 141.59 30.4229 140.879 29.7666C140.124 29.0859 139.757 28.0893 139.757 26.8016C139.757 25.5859 140.17 24.6623 140.972 24.0061C141.705 23.4229 142.667 23.1312 143.835 23.1312H146.652V22.4994C146.652 21.163 145.92 20.5071 144.43 20.5071C143.468 20.5071 142.712 20.8471 142.14 21.5517L140.238 19.5831C140.811 18.9031 141.475 18.4409 142.185 18.1734C142.804 17.9547 143.583 17.8333 144.545 17.8333C147.936 17.8333 149.631 19.316 149.631 22.3055V30.6416H146.722Z" fill="#231F20"/>
<path fill-rule="evenodd" clip-rule="evenodd" d="M159.367 30.6416V22.9856C159.367 21.6248 158.658 20.6768 157.398 20.6768C156.115 20.6768 155.404 21.6006 155.404 22.9856V30.6416H152.427V17.9795H155.336V19.1462C156.115 18.271 157.1 17.8333 158.315 17.8333C159.62 17.8333 160.628 18.271 161.338 19.1704C162.003 20.0208 162.346 21.1386 162.346 22.5483V30.6416H159.367Z" fill="#231F20"/>
<mask id="mask1_46_1384" style="mask-type:alpha" maskUnits="userSpaceOnUse" x="165" y="13" width="11" height="18">
<path fill-rule="evenodd" clip-rule="evenodd" d="M165.14 13.3374H176V30.6417H165.14V13.3374Z" fill="white"/>
</mask>
<g mask="url(#mask1_46_1384)">
<path fill-rule="evenodd" clip-rule="evenodd" d="M172.311 30.6417L169.38 25.3676L168.119 26.8744V30.6417H165.14V13.3374H168.119V23.156L172.083 17.9796H175.679L171.418 23.083L176 30.6417H172.311Z" fill="#231F20"/>
</g>
</svg>
