<svg width="176" height="44" viewBox="0 0 176 44" fill="none" xmlns="http://www.w3.org/2000/svg">
<g clip-path="url(#clip0_2633_20491)">
<path d="M49.1075 43.5C48.5938 43.5 48.0802 43.3649 47.6223 43.0946L33.1854 34.4946C32.449 34.0584 31.9416 33.309 31.8179 32.4613L27.48 3.79257C27.3562 2.96329 27.5976 2.12786 28.1483 1.49514C28.699 0.862429 29.4973 0.5 30.3389 0.5H67.8822C68.7238 0.5 69.5221 0.862429 70.0728 1.49514C70.6174 2.12786 70.8649 2.96329 70.7411 3.79257L66.4094 32.4613C66.2795 33.309 65.7783 34.0523 65.0419 34.4946L50.605 43.0946C50.1471 43.3649 49.6334 43.5 49.1198 43.5H49.1075Z" fill="url(#paint0_linear_2633_20491)"/>
<path d="M49.1075 43.5C48.5938 43.5 48.0802 43.3649 47.6223 43.0946L33.1854 34.4946C32.449 34.0584 31.9416 33.309 31.8179 32.4613L28.8723 12.9577L27.48 3.79257C27.3562 2.96329 27.5976 2.12786 28.1483 1.49514C28.699 0.862429 29.4973 0.5 30.3389 0.5H67.8822C68.7238 0.5 69.5221 0.862429 70.0728 1.49514C70.6174 2.12786 70.8649 2.96329 70.7411 3.79257L66.4094 32.4613C66.2795 33.309 65.7783 34.0523 65.0419 34.4946L50.605 43.0946C50.1471 43.3649 49.6334 43.5 49.1198 43.5H49.1075Z" fill="url(#paint1_linear_2633_20491)"/>
<mask id="mask0_2633_20491" style="mask-type:luminance" maskUnits="userSpaceOnUse" x="28" y="1" width="42" height="42">
<path d="M49.0205 42.8181C48.5193 42.8181 48.0242 42.6891 47.5787 42.425C42.9871 39.6668 38.4141 36.8841 33.8534 34.083C33.1603 33.6591 32.7024 32.9343 32.5972 32.1111C31.7742 25.784 30.8645 19.4753 29.8311 13.1727C29.2247 9.61597 28.9029 7.84068 28.2037 4.28397C28.049 3.47925 28.2408 2.6684 28.7358 2.06025C29.2371 1.44597 29.992 1.09583 30.8089 1.09583C42.9499 1.09583 55.0972 1.09583 67.2383 1.09583C68.0551 1.09583 68.8101 1.45211 69.3051 2.06025C69.8002 2.67454 69.9858 3.4854 69.8249 4.28397C68.0366 13.5228 66.6071 22.7801 65.4128 32.105C65.3076 32.922 64.8559 33.6468 64.1628 34.0768C59.6084 36.878 55.0477 39.6607 50.4623 42.4188C50.023 42.683 49.5217 42.812 49.0267 42.812L49.0205 42.8181Z" fill="white"/>
</mask>
<g mask="url(#mask0_2633_20491)">
<path d="M69.7633 22.5405C69.8128 28.6957 70.1037 34.9307 70.7596 41.0981C70.8029 42.1485 70.1223 42.8243 69.2126 42.8243H28.4391C27.5232 42.8243 26.9416 42.0687 26.8859 41.0981C26.3661 34.3594 26.2918 27.5531 26.2671 20.8328C26.2485 14.8743 26.1681 8.78054 26.8859 2.82197C26.9725 1.81454 27.5232 1.09583 28.4391 1.09583C42.0282 1.09583 55.6173 1.09583 69.2126 1.09583C70.1223 1.09583 70.8339 1.88211 70.7596 2.82197C70.1099 9.37025 69.7076 16.0107 69.7633 22.5405Z" fill="url(#paint2_linear_2633_20491)"/>
</g>
<mask id="mask1_2633_20491" style="mask-type:luminance" maskUnits="userSpaceOnUse" x="49" y="5" width="15" height="13">
<path d="M59.3849 11.0104C57.1572 12.3065 56.4765 12.411 54.0632 13.8484L54.1807 13.5842C55.4493 12.2082 56 11.6308 56.8354 10.4207C54.6015 10.5435 51.3651 10.8077 49.0508 11.3114L49.1745 11.0657C51.2723 10.0521 55.177 9.04467 57.1634 8.78053C56.6807 8.10482 52.7265 5.97939 51.7426 5.57396L51.8602 5.32825C54.8552 5.6661 58.8218 7.05439 60.5483 8.10482C61.2785 7.87753 62.0273 7.85296 63.3825 7.73625C63.3825 7.73625 63.1844 8.5471 61.7055 9.55453C62.0706 10.5312 61.1919 15.9185 60.4679 17.3498C60.4369 15.0954 60.2327 12.2512 59.3911 11.0165L59.3849 11.0104Z" fill="white"/>
</mask>
<g mask="url(#mask1_2633_20491)">
<path d="M63.3763 16.5327H49.0508V17.3436H63.3763V16.5327Z" fill="#05A376"/>
<path d="M63.3763 15.3903H49.0508V16.5328H63.3763V15.3903Z" fill="#08A376"/>
<path d="M63.3763 14.2477H49.0508V15.3903H63.3763V14.2477Z" fill="#03A175"/>
<path d="M63.3763 13.1051H49.0508V14.2477H63.3763V13.1051Z" fill="#05A174"/>
<path d="M63.3763 11.9563H49.0508V13.0989H63.3763V11.9563Z" fill="#08A173"/>
<path d="M63.3763 10.8137H49.0508V11.9563H63.3763V10.8137Z" fill="#069F72"/>
<path d="M63.3763 9.67114H49.0508V10.8137H63.3763V9.67114Z" fill="#079F71"/>
<path d="M63.3763 8.52869H49.0508V9.67126H63.3763V8.52869Z" fill="#0A9E70"/>
<path d="M63.3763 7.38611H49.0508V8.52868H63.3763V7.38611Z" fill="#069D6F"/>
<path d="M63.3763 6.24353H49.0508V7.3861H63.3763V6.24353Z" fill="#079D6E"/>
<path d="M63.3763 5.32178H49.0508V6.24321H63.3763V5.32178Z" fill="#039C6D"/>
</g>
<mask id="mask2_2633_20491" style="mask-type:luminance" maskUnits="userSpaceOnUse" x="34" y="22" width="10" height="11">
<path d="M43.1166 30.3359L43.228 30.084C42.046 29.6294 40.8641 29.267 39.905 28.3763C40.2082 27.547 40.5485 26.8959 41.1116 26.0727L41.2292 25.8209C40.2144 25.9744 39.2923 26.343 38.4136 26.5089C37.7205 25.2987 37.4545 23.6463 37.1017 22.0737L36.9842 22.3256C36.7861 24.1193 36.7119 25.4093 36.9656 26.8406C36.2354 27.0433 35.5918 27.0679 35.004 27.3197L34.8926 27.5654C35.8332 28.1429 36.5943 28.579 37.6587 29.0704C38.228 30.2806 38.8158 31.0976 39.7626 32.0313L39.8802 31.7794C39.7069 31.0914 39.4842 30.5202 39.5708 29.7707C40.7527 30.1147 41.7614 30.2929 43.1104 30.3359H43.1166Z" fill="white"/>
</mask>
<g mask="url(#mask2_2633_20491)">
<path d="M43.2286 31.3986H34.8994V32.0313H43.2286V31.3986Z" fill="#10AB84"/>
<path d="M43.2286 30.2499H34.8994V31.3924H43.2286V30.2499Z" fill="#0CAA83"/>
<path d="M43.2286 29.1073H34.8994V30.2499H43.2286V29.1073Z" fill="#0EAA82"/>
<path d="M43.2286 27.9647H34.8994V29.1073H43.2286V27.9647Z" fill="#0CA981"/>
<path d="M43.2286 26.8221H34.8994V27.9647H43.2286V26.8221Z" fill="#07A980"/>
<path d="M43.2286 25.6796H34.8994V26.8221H43.2286V25.6796Z" fill="#08A980"/>
<path d="M43.2286 24.537H34.8994V25.6796H43.2286V24.537Z" fill="#0EA77E"/>
<path d="M43.2286 23.3883H34.8994V24.5309H43.2286V23.3883Z" fill="#0AA67D"/>
<path d="M43.2286 22.2457H34.8994V23.3883H43.2286V22.2457Z" fill="#0CA67C"/>
<path d="M43.2286 22.0671H34.8994V22.2453H43.2286V22.0671Z" fill="#06A57C"/>
</g>
<mask id="mask3_2633_20491" style="mask-type:luminance" maskUnits="userSpaceOnUse" x="37" y="12" width="15" height="10">
<path d="M46.396 12.3802C46.396 12.3802 45.9195 13.2157 45.542 14.3275H45.4492C48.2215 14.6961 50.8391 15.8141 51.5012 16.195L51.3836 16.4407C48.5062 15.937 46.9901 15.9922 45.9195 16.0905C44.849 16.195 44.6324 16.324 44.6324 16.324C44.0136 17.6631 43.6547 19.85 43.5062 20.6608L43.3886 20.9127C42.8626 19.6595 42.1015 17.1471 42.1015 17.1471C40.6534 17.9211 37.3057 21.0355 37.3057 21.0355C39.1497 17.3867 41.0123 15.722 41.0123 15.722C40.3688 15.0831 38.6918 14.7575 37.4604 14.7022L37.5718 14.4565C38.3453 14.2292 39.9294 14.1371 40.9938 14.088C42.25 14.0511 43.0111 14.1248 43.0111 14.1248C44.1312 13.2402 45.8019 12.4601 46.3898 12.3802H46.396Z" fill="white"/>
</mask>
<g mask="url(#mask3_2633_20491)">
<path d="M51.5019 19.9606H37.3125V21.0417H51.5019V19.9606Z" fill="#04A47B"/>
<path d="M51.5019 18.818H37.3125V19.9606H51.5019V18.818Z" fill="#06A47A"/>
<path d="M51.5019 17.6754H37.3125V18.818H51.5019V17.6754Z" fill="#03A378"/>
<path d="M51.5019 16.5328H37.3125V17.6754H51.5019V16.5328Z" fill="#05A376"/>
<path d="M51.5019 15.3903H37.3125V16.5328H51.5019V15.3903Z" fill="#08A376"/>
<path d="M51.5019 14.2477H37.3125V15.3903H51.5019V14.2477Z" fill="#03A175"/>
<path d="M51.5019 13.1051H37.3125V14.2477H51.5019V13.1051Z" fill="#05A174"/>
<path d="M51.5019 12.3802H37.3125V13.1051H51.5019V12.3802Z" fill="#08A173"/>
</g>
<mask id="mask4_2633_20491" style="mask-type:luminance" maskUnits="userSpaceOnUse" x="45" y="27" width="8" height="6">
<path d="M49.9296 28.069C49.3479 28.8492 48.8528 29.4696 48.2093 30.1822C47.2625 30.4402 46.1239 30.3235 45.2514 30.3542L45.1338 30.606C45.7897 30.9439 46.4395 31.1466 47.1264 31.2879C46.5694 31.7916 45.8207 32.1786 45.2947 32.5288L45.1771 32.7745C46.3033 32.5103 47.7823 32.0373 48.8838 31.3923C49.4593 31.4169 49.9915 31.38 50.3875 31.3002L50.5051 31.0545C50.4308 30.8026 50.208 30.649 50.14 30.2928C51.1734 29.4942 51.9222 28.7693 52.7885 27.9093L52.9061 27.6575C52.0521 28.241 51.0125 29.0458 50.0162 29.5188C49.9729 29.0335 49.942 28.6158 49.9172 28.069H49.9296Z" fill="white"/>
</mask>
<g mask="url(#mask4_2633_20491)">
<path d="M52.9184 32.541H45.1338V32.7806H52.9184V32.541Z" fill="#10AB84"/>
<path d="M52.9184 31.3923H45.1338V32.5349H52.9184V31.3923Z" fill="#10AB84"/>
<path d="M52.9184 30.2498H45.1338V31.3923H52.9184V30.2498Z" fill="#0CAA83"/>
<path d="M52.9184 29.1072H45.1338V30.2497H52.9184V29.1072Z" fill="#0EAA82"/>
<path d="M52.9184 27.9646H45.1338V29.1072H52.9184V27.9646Z" fill="#0CA981"/>
<path d="M52.9184 27.6575H45.1338V27.9646H52.9184V27.6575Z" fill="#07A980"/>
</g>
<path d="M59.5031 10.7585C57.2816 12.0547 56.6009 12.1652 54.1813 13.6027C55.586 12.0854 56.0749 11.4404 56.9474 10.175C54.7197 10.2917 51.4833 10.5558 49.1689 11.0657C51.1801 9.99682 55.1714 8.81125 57.2754 8.52868C56.7865 7.8591 52.8323 5.73368 51.8546 5.32825C54.9858 5.56782 58.81 6.72882 60.6603 7.85296C61.3905 7.62568 62.1454 7.61339 63.5068 7.49668C63.1603 8.08639 63.1479 8.42425 61.8113 9.30268C62.1826 10.2794 61.2977 15.6667 60.5736 17.098C60.5489 14.8435 60.3509 11.9994 59.4969 10.7585H59.5031Z" fill="white"/>
<path d="M43.2279 30.0839C41.9532 29.6109 41.0311 29.0642 40.0163 28.1244C40.3195 27.2951 40.666 26.6439 41.2292 25.8146C40.1895 25.9682 39.4284 26.0849 38.5311 26.2508C37.8009 24.9854 37.473 23.7629 37.1017 22.0675C36.9037 23.8674 36.8294 25.1574 37.0831 26.5886C36.2601 26.8159 35.6784 27.0125 35.0039 27.3135C35.9507 27.8909 36.718 28.3332 37.77 28.8185C38.3393 30.0286 38.9272 30.8456 39.8801 31.7794C39.6574 30.9869 39.5955 30.3542 39.6883 29.5188C40.8702 29.8628 41.8789 30.0409 43.2217 30.0778L43.2279 30.0839Z" fill="white"/>
<path d="M46.551 12.1652C46.1549 12.6751 45.6908 13.6333 45.5671 14.0756C48.8591 14.5179 51.5015 16.1949 51.5015 16.1949C48.624 15.6912 47.1079 15.7526 46.0312 15.8448C44.9668 15.9431 44.744 16.0721 44.744 16.0721C43.9705 17.7613 43.5002 20.6608 43.5002 20.6608C42.9742 19.4076 42.2193 16.8952 42.2193 16.8952C40.7651 17.6692 37.4297 20.7836 37.4297 20.7836C39.2676 17.1348 41.1302 15.4701 41.1302 15.4701C40.4866 14.8251 38.8096 14.5056 37.5782 14.4503C38.2156 14.1923 39.8554 13.8913 41.1116 13.8299C42.374 13.7931 43.1351 13.8668 43.1351 13.8668C44.2614 12.9883 45.9631 12.2451 46.551 12.1591V12.1652Z" fill="white"/>
<path d="M50.0409 27.8233C49.4592 28.6035 48.958 29.2178 48.3144 29.9365C47.2068 30.2436 46.3218 30.3603 45.2451 30.3603C45.9072 30.6982 46.5508 30.9009 47.2439 31.0483C46.5508 31.6688 45.9691 32.111 45.2946 32.5349C46.4209 32.2708 47.8998 31.7978 49.0013 31.1466C49.5768 31.1712 50.1152 31.1343 50.5112 31.0545C50.406 30.7228 50.3441 30.477 50.2637 30.047C51.3033 29.2485 52.052 28.5298 52.9184 27.6575C52.0025 28.2963 51.2043 28.7693 50.1461 29.2669C50.1028 28.7816 50.0718 28.37 50.0471 27.8233H50.0409Z" fill="white"/>
<path d="M81.4163 17.1165C82.7839 17.1165 83.7925 17.5403 84.7208 18.3819C84.8445 18.4863 84.8445 18.6522 84.7331 18.7627L83.6688 19.8623C83.576 19.9545 83.4213 19.9545 83.3284 19.8623C82.821 19.4139 82.1527 19.1682 81.4844 19.1682C79.9435 19.1682 78.8049 20.4459 78.8049 21.9632C78.8049 23.4805 79.9497 24.7152 81.4967 24.7152C82.1403 24.7152 82.8334 24.4879 83.3284 24.064C83.4213 23.9842 83.6007 23.9842 83.6812 24.0763L84.7455 25.2005C84.8383 25.2926 84.826 25.4707 84.7331 25.569C83.8049 26.4659 82.6292 26.8836 81.4163 26.8836C78.6873 26.8836 76.4844 24.7275 76.4844 22.0123C76.4844 19.2972 78.6873 17.1165 81.4163 17.1165Z" fill="#010101"/>
<path d="M87.7402 17.5157C87.7402 17.3805 87.8516 17.2577 88.0001 17.2577H93.6561C93.8046 17.2577 93.916 17.3805 93.916 17.5157V18.99C93.916 19.1251 93.8046 19.248 93.6561 19.248H89.8751V20.9311H92.9878C93.1239 20.9311 93.2477 21.054 93.2477 21.1891V22.6695C93.2477 22.817 93.1239 22.9275 92.9878 22.9275H89.8751V24.7581H93.6561C93.8046 24.7581 93.916 24.881 93.916 25.0161V26.4965C93.916 26.6317 93.8046 26.7545 93.6561 26.7545H88.0001C87.8516 26.7545 87.7402 26.6317 87.7402 26.4965V17.5218V17.5157Z" fill="#010101"/>
<path d="M97.1094 17.5157C97.1094 17.3805 97.2208 17.2577 97.3693 17.2577H100.661C102.345 17.2577 103.724 18.6091 103.724 20.2554C103.724 21.9017 102.345 23.3023 100.68 23.3023H99.2443V26.4904C99.2443 26.6255 99.1205 26.7484 98.9844 26.7484H97.3755C97.2269 26.7484 97.1156 26.6255 97.1156 26.4904V17.5157H97.1094ZM100.538 21.3243C101.125 21.3243 101.614 20.8635 101.614 20.2554C101.614 19.6841 101.125 19.2541 100.538 19.2541H99.2381V21.3304H100.538V21.3243Z" fill="#010101"/>
<path d="M107.752 19.248H105.797C105.648 19.248 105.537 19.1251 105.537 18.99V17.5157C105.537 17.3805 105.648 17.2577 105.797 17.2577H111.861C112.01 17.2577 112.121 17.3805 112.121 17.5157V18.99C112.121 19.1251 112.01 19.248 111.861 19.248H109.906V26.4904C109.906 26.6255 109.782 26.7484 109.646 26.7484H108.006C107.87 26.7484 107.746 26.6255 107.746 26.4904V19.248H107.752Z" fill="#010101"/>
<path d="M114.856 17.5157C114.856 17.3805 114.968 17.2577 115.116 17.2577H120.772C120.921 17.2577 121.032 17.3805 121.032 17.5157V18.99C121.032 19.1251 120.921 19.248 120.772 19.248H116.985V20.9311H120.098C120.234 20.9311 120.358 21.054 120.358 21.1891V22.6695C120.358 22.817 120.234 22.9275 120.098 22.9275H116.985V24.7581H120.772C120.921 24.7581 121.032 24.881 121.032 25.0161V26.4965C121.032 26.6317 120.921 26.7545 120.772 26.7545H115.116C114.968 26.7545 114.856 26.6317 114.856 26.4965V17.5218V17.5157Z" fill="#010101"/>
<path d="M125.458 19.248H123.502C123.354 19.248 123.242 19.1251 123.242 18.99V17.5157C123.242 17.3805 123.347 17.2577 123.502 17.2577H129.566C129.715 17.2577 129.826 17.3805 129.826 17.5157V18.99C129.826 19.1251 129.721 19.248 129.566 19.248H127.617V26.4904C127.617 26.6255 127.493 26.7484 127.357 26.7484H125.717C125.581 26.7484 125.458 26.6255 125.458 26.4904V19.248Z" fill="#010101"/>
<path d="M132.555 17.5157C132.555 17.3805 132.666 17.2577 132.815 17.2577H138.471C138.619 17.2577 138.73 17.3805 138.73 17.5157V18.99C138.73 19.1251 138.619 19.248 138.471 19.248H134.683V20.9311H137.796C137.932 20.9311 138.056 21.054 138.056 21.1891V22.6695C138.056 22.817 137.932 22.9275 137.796 22.9275H134.683V24.7581H138.471C138.619 24.7581 138.73 24.881 138.73 25.0161V26.4965C138.73 26.6317 138.619 26.7545 138.471 26.7545H132.815C132.666 26.7545 132.555 26.6317 132.555 26.4965V17.5218V17.5157Z" fill="#010101"/>
<path d="M141.924 17.5157C141.924 17.3805 142.035 17.2577 142.184 17.2577H145.364C146.98 17.2577 148.304 18.3573 148.304 19.7824C148.304 20.8267 147.363 21.5884 146.72 21.9263C147.444 22.2211 148.551 22.8845 148.551 24.1315C148.551 25.6488 147.196 26.7484 145.575 26.7484H142.184C142.035 26.7484 141.924 26.6255 141.924 26.4904V17.5157ZM145.123 21.1031C145.643 21.1031 146.082 20.667 146.082 20.1264C146.082 19.5858 145.643 19.205 145.123 19.205H144.059V21.1031H145.123ZM145.303 24.8073C145.835 24.8073 146.286 24.3773 146.286 23.8183C146.286 23.2593 145.699 22.8661 145.166 22.8661H144.059V24.8073H145.303Z" fill="#010101"/>
</g>
<defs>
<linearGradient id="paint0_linear_2633_20491" x1="27.449" y1="22" x2="70.7659" y2="22" gradientUnits="userSpaceOnUse">
<stop stop-color="#008155"/>
<stop offset="0.6" stop-color="#81C4AB"/>
<stop offset="1" stop-color="#039C6D"/>
</linearGradient>
<linearGradient id="paint1_linear_2633_20491" x1="49.1075" y1="-0.851429" x2="49.1075" y2="50.0913" gradientUnits="userSpaceOnUse">
<stop stop-color="#008155"/>
<stop offset="0.6" stop-color="#81C4AB"/>
<stop offset="1" stop-color="#039C6D"/>
</linearGradient>
<linearGradient id="paint2_linear_2633_20491" x1="48.5133" y1="-10.5879" x2="48.5133" y2="41.5097" gradientUnits="userSpaceOnUse">
<stop stop-color="#00A76D"/>
<stop offset="0.3" stop-color="#80CBAE"/>
<stop offset="0.55" stop-color="#00A76D"/>
<stop offset="0.84" stop-color="#008053"/>
<stop offset="0.89" stop-color="#00885B"/>
<stop offset="0.97" stop-color="#00A172"/>
<stop offset="1" stop-color="#00AD7E"/>
</linearGradient>
<clipPath id="clip0_2633_20491">
<rect width="125" height="43" fill="white" transform="translate(25.5 0.5)"/>
</clipPath>
</defs>
</svg>
