<svg width="176" height="44" viewBox="0 0 176 44" fill="none" xmlns="http://www.w3.org/2000/svg">
<path fill-rule="evenodd" clip-rule="evenodd" d="M31.9338 29.7759C32.2211 23.64 28.9095 19.8781 24.707 19.8781C20.9464 19.8781 17.9244 23.2692 17.9244 28.6973C17.9244 34.3397 21.3259 36.9929 25.0387 36.9929C27.7529 36.9929 30.9329 35.1727 31.6896 31.2254H26.1078C25.9965 31.9982 25.5523 32.5821 24.9513 32.5821C23.7504 32.5821 23.5936 31.1026 23.5936 29.7759M23.5936 26.386C23.5936 25.2447 24.0162 24.2564 24.883 24.2564C25.7067 24.2564 26.2838 25.2736 26.2838 26.386H23.5936Z" fill="#005699"/>
<path fill-rule="evenodd" clip-rule="evenodd" d="M39.4455 20.2476H33.8411V36.6221H39.5784V28.6347C39.5784 27.6777 39.5784 26.321 40.5351 26.321C41.5132 26.321 41.5132 27.6777 41.5132 28.6347V36.6221H47.2518V26.5389C47.2518 22.931 46.094 19.8769 43.1595 19.8769C41.3145 19.8769 40.468 21.0795 39.3557 22.8684H39.2228" fill="#005699"/>
<path fill-rule="evenodd" clip-rule="evenodd" d="M69.0183 21.1746V20.2477H56.8552V25.4097H59.6341L60.9463 25.1942V25.3158L56.2781 35.5134V36.6234H68.7298V31.4132H65.4612L64.2819 31.5986V31.4132L65.5055 28.3904" fill="#005699"/>
<path fill-rule="evenodd" clip-rule="evenodd" d="M110.057 20.2476H103.994V36.6221H110.189V28.6347C110.189 27.6777 110.189 26.321 111.147 26.321C112.124 26.321 112.124 27.6777 112.124 28.6347V36.6221H117.861V26.5389C117.861 22.931 116.705 19.8769 113.77 19.8769C111.924 19.8769 111.079 21.0795 109.968 22.8684H109.834" fill="#005699"/>
<path fill-rule="evenodd" clip-rule="evenodd" d="M119.551 36.6234H125.413L125.422 28.406L128.171 36.6234H135.1L130.761 27.52L135.002 20.2476H128.285L125.664 27.1673L125.289 26.3222V13.5219H119.551" fill="#005699"/>
<path fill-rule="evenodd" clip-rule="evenodd" d="M77.0041 22.2845V18.9848H77.428C78.3188 18.9848 79.4514 18.8608 79.4514 20.557C79.4514 22.1605 78.4505 22.2857 77.5597 22.2857M70.8334 36.6234H80.3948C83.3306 36.6234 86.5321 34.9885 86.5321 30.2093C86.5321 27.4032 85.4055 25.8707 83.2037 24.6922C85.6509 23.2765 86.0005 22.069 86.0005 20.0346C86.0005 15.2108 81.4568 13.3714 79.194 13.3714H70.8334V36.6234ZM77.0041 27.1877H77.604C78.5834 27.1877 80.1398 27.1564 80.1398 29.0994C80.1398 31.04 78.6935 31.0737 77.6938 31.0737H77.0041V27.1877Z" fill="#005699"/>
<path fill-rule="evenodd" clip-rule="evenodd" d="M96.1103 36.6233H102.261V20.2488H96.1103L96.2875 22.1906H96.1546C95.3106 20.5871 94.1336 19.8781 92.7077 19.8781C88.9686 19.8781 87.5714 24.3804 87.5714 28.5131C87.5714 32.4906 89.3493 36.9929 92.552 36.9929C94.1767 36.9929 95.1094 36.0058 96.1546 34.4637H96.2875M93.2644 28.359C93.2644 27.1564 93.8415 25.1725 94.7538 25.1725C95.6662 25.1725 96.2875 27.0336 96.2875 28.2988C96.2875 29.5629 96.0002 31.7683 94.9107 31.7683C93.8654 31.7671 93.2644 29.6544 93.2644 28.359Z" fill="#005699"/>
<path fill-rule="evenodd" clip-rule="evenodd" d="M1.0488 36.6233H8.76407C13.6789 36.6233 17.1929 32.2438 17.1929 25.3374C17.1929 16.7951 12.8791 13.3726 7.25191 13.3726H1.04761M7.14296 19.0306H7.5177C9.74225 19.0306 11.0988 22.0365 11.0988 25.3061C11.0988 28.3578 9.5435 30.8823 7.5177 30.8823H7.14296V19.0306Z" fill="#005699"/>
<path fill-rule="evenodd" clip-rule="evenodd" d="M49.6141 18.7585H54.7288V13.7241H49.6141V18.7585ZM49.304 36.6234H55.0413V20.2476H49.304V36.6234Z" fill="#005699"/>
<path d="M141.978 19.7529C142.352 17.5956 143.179 15.5973 144.356 13.8601L142.799 12.2831C141.764 11.237 141.755 9.548 142.779 8.5115C143.802 7.47862 145.469 7.48584 146.501 8.53438L148.035 10.0849C149.765 8.84376 151.769 7.97099 153.937 7.57372V5.49952C153.937 4.02001 155.111 2.81979 156.556 2.81979C158.004 2.81979 159.176 4.02001 159.176 5.49952V7.55687C161.378 7.94691 163.409 8.82931 165.162 10.0849L166.552 8.67884C167.587 7.63271 169.255 7.62308 170.276 8.65717C171.299 9.69366 171.29 11.3814 170.257 12.4276L168.84 13.8589C170.018 15.5948 170.845 17.592 171.218 19.7493H172.851C174.313 19.7493 175.498 20.935 175.498 22.4001C175.498 23.8652 174.313 25.0521 172.851 25.0521H171.203C170.811 27.2479 169.945 29.2752 168.724 31.0279L169.973 32.292C171.006 33.3393 171.016 35.0259 169.991 36.0636C168.97 37.0977 167.302 37.0892 166.27 36.0419L164.996 34.7538C163.28 35.9444 161.307 36.7823 159.176 37.1591V39.1008C159.176 40.5815 158.004 41.783 156.556 41.783C155.111 41.783 153.937 40.5827 153.937 39.1008V37.1446C151.839 36.7618 149.893 35.9287 148.204 34.7538L146.786 36.1864C145.751 37.2337 144.084 37.2421 143.06 36.2068C142.038 35.1739 142.046 33.4838 143.082 32.4376L144.474 31.0279C143.25 29.2752 142.384 27.2455 141.992 25.0485L141.852 25.0521H139.659C138.198 25.0521 137.013 23.8652 137.013 22.4001C137.013 20.935 138.198 19.7493 139.659 19.7493H141.852" fill="white"/>
<path fill-rule="evenodd" clip-rule="evenodd" d="M147.854 21.354C148.039 19.6915 148.677 18.1674 149.638 16.9106L152.784 20.0863C152.557 20.4776 152.385 20.9061 152.282 21.3612M151.123 15.3866C152.311 14.4295 153.752 13.7758 155.327 13.5459L155.333 18.0663C154.953 18.1819 154.593 18.3456 154.26 18.5563L151.123 15.3866ZM157.446 13.4929C159.219 13.6651 160.841 14.3681 162.15 15.4468L159.02 18.6068C158.551 18.2962 158.02 18.0747 157.452 17.9628L157.446 13.4929ZM163.616 16.9841C164.552 18.2324 165.171 19.7384 165.347 21.378L160.918 21.372C160.823 20.9447 160.668 20.5414 160.462 20.1682L163.616 16.9841ZM165.327 23.5088C165.119 25.1496 164.469 26.6508 163.503 27.8871L160.365 24.7187C160.593 24.3467 160.769 23.9386 160.883 23.5028L165.327 23.5088ZM162.003 29.3931C160.725 30.3995 159.166 31.058 157.466 31.2266L157.461 26.7568C157.962 26.6568 158.432 26.4702 158.856 26.2162L162.003 29.3931ZM155.349 31.1796C153.829 30.9605 152.435 30.349 151.27 29.4497L154.425 26.2656C154.712 26.4293 155.02 26.5617 155.344 26.6592L155.349 31.1796ZM149.756 27.9606C148.751 26.705 148.078 25.1677 147.869 23.4847L152.315 23.492C152.436 23.9614 152.63 24.4033 152.886 24.8005L149.756 27.9606ZM143.203 23.8868H140.059C139.084 23.8868 138.293 23.2223 138.293 22.4025C138.293 21.5827 139.084 20.9194 140.059 20.9194H143.195C143.47 18.2818 144.483 15.8681 146.026 13.895L143.896 11.745C143.206 11.048 143.113 10.0127 143.684 9.43242C144.256 8.85338 145.28 8.94848 145.97 9.64671L148.082 11.7847C150.039 10.1668 152.455 9.09535 155.101 8.79921L155.092 5.9064C155.092 4.92047 155.748 4.12112 156.556 4.12112C157.367 4.12112 158.023 4.92047 158.023 5.9064V8.79319C160.701 9.07729 163.146 10.1559 165.125 11.7919L167.087 9.79237C167.776 9.09535 168.8 8.99904 169.372 9.57808C169.944 10.1571 169.848 11.1936 169.161 11.8906L167.175 13.901C168.717 15.8729 169.731 18.2854 170.004 20.9206H172.6C173.572 20.9206 174.363 21.5851 174.363 22.4037C174.363 23.2235 173.573 23.888 172.6 23.888H169.996C169.701 26.5605 168.645 28.9995 167.051 30.9786L168.978 32.9396C169.668 33.6378 169.762 34.6719 169.189 35.251C168.618 35.8312 167.594 35.7361 166.904 35.0379L164.959 33.0672C163.013 34.6262 160.633 35.6518 158.03 35.9323L158.023 38.8468C158.023 39.834 157.367 40.6333 156.556 40.6333C155.748 40.6333 155.092 39.834 155.092 38.8468V35.9227C152.523 35.6338 150.171 34.6129 148.245 33.0732L146.149 35.1836C145.461 35.8806 144.437 35.9769 143.866 35.3978C143.293 34.8188 143.387 33.7823 144.077 33.0841L146.149 30.9858C144.556 29.0043 143.496 26.5617 143.203 23.8868Z" fill="#CE2145"/>
</svg>
