<svg width="176" height="44" viewBox="0 0 176 44" fill="none" xmlns="http://www.w3.org/2000/svg">
<g clip-path="url(#clip0_46_1550)">
<path d="M25.3412 22.0023C26.2801 16.549 29.1325 11.7984 33.149 8.53715C36.2601 4.33044 40.7962 1.33999 45.9969 0.357185C44.7815 0.128407 43.5281 1.14441e-05 42.248 1.14441e-05C37.4064 1.14441e-05 32.9527 1.72285 29.3979 4.61058C26.6436 8.33172 25 12.9983 25 18.0734C25 19.4134 25.1249 20.7254 25.3412 22.0023Z" fill="#F89D1E"/>
<mask id="mask0_46_1550" style="mask-type:luminance" maskUnits="userSpaceOnUse" x="25" y="21" width="22" height="23">
<path d="M25 21.5168H46.1241V44H25V21.5168Z" fill="white"/>
</mask>
<g mask="url(#mask0_46_1550)">
<path d="M45.9992 43.6428C40.7984 42.6577 36.2623 39.6696 33.1512 35.4652C29.1347 32.2063 26.2823 27.4533 25.3412 22.0023C25.1227 23.277 25 24.5889 25 25.9289C25.0022 31.004 26.6459 35.673 29.4001 39.3918C32.955 42.2772 37.4086 44 42.2503 44C43.5326 44 44.786 43.8716 45.9992 43.6428Z" fill="#24ABE2"/>
</g>
<path d="M33.149 8.53714C29.1325 11.7984 26.2823 16.549 25.3412 22.0023C26.2823 27.4533 29.1347 32.2039 33.1512 35.4652C30.3947 31.7441 28.7511 27.0751 28.7511 22.0023C28.7511 16.9295 30.3947 12.2559 33.149 8.53714Z" fill="#C6E9FB"/>
<path d="M45.9969 0.357169C51.2043 1.33764 55.736 4.32576 58.8493 8.5348C62.8658 11.796 65.7159 16.549 66.6593 21.9977C66.8779 20.723 66.996 19.4087 66.996 18.0711C66.996 12.996 65.3524 8.32937 62.5982 4.6059C59.0455 1.7205 54.5897 -3.8147e-06 49.748 -3.8147e-06C48.4657 -3.8147e-06 47.2146 0.128392 45.9969 0.357169Z" fill="#A955A1"/>
<path d="M33.149 8.53712C36.6994 5.65172 41.1575 3.92889 45.9969 3.92889C50.8408 3.92889 55.2944 5.64939 58.8493 8.53479C55.736 4.32808 51.2043 1.33997 45.9969 0.357159C40.7962 1.33997 36.26 4.33042 33.149 8.53712Z" fill="#FFCD7C"/>
<mask id="mask1_46_1550" style="mask-type:luminance" maskUnits="userSpaceOnUse" x="45" y="21" width="23" height="23">
<path d="M45.553 21.5168H67.248V44H45.553V21.5168Z" fill="white"/>
</mask>
<g mask="url(#mask1_46_1550)">
<path d="M66.6548 21.9977C65.7181 27.4486 62.8658 32.2016 58.8515 35.4629C55.7382 39.6672 51.2043 42.6577 45.9991 43.6428C47.219 43.8716 48.4701 44 49.7502 43.9977C54.5897 43.9977 59.05 42.2748 62.6026 39.3894C65.3546 35.6706 66.996 30.9994 66.996 25.9266C66.996 24.5866 66.8778 23.2746 66.6548 21.9977Z" fill="#98C93E"/>
</g>
<mask id="mask2_46_1550" style="mask-type:luminance" maskUnits="userSpaceOnUse" x="32" y="35" width="28" height="9">
<path d="M32.993 35.2621H59.2553V44H32.993V35.2621Z" fill="white"/>
</mask>
<g mask="url(#mask2_46_1550)">
<path d="M33.1513 35.4652C36.2624 39.6695 40.7985 42.6577 45.9992 43.6428C51.2067 42.6577 55.7383 39.6672 58.8516 35.4628C55.299 38.3459 50.8431 40.0687 45.9992 40.0687C41.1598 40.0687 36.7039 38.3482 33.1513 35.4652Z" fill="#C5DD88"/>
</g>
<path d="M58.8515 35.4629C62.8658 32.2039 65.7181 27.4486 66.6548 21.9977C65.7159 16.5467 62.8658 11.7961 58.8492 8.53481C61.6013 12.2536 63.2471 16.9249 63.2471 22C63.2493 27.0705 61.6035 31.7417 58.8515 35.4629Z" fill="#D1B5D6"/>
<path d="M33.1491 8.53714C30.3948 12.2559 28.7512 16.9295 28.7512 22.0023C28.7512 27.0751 30.3948 31.7441 33.1513 35.4652C36.7039 38.3483 41.1598 40.0688 45.9992 40.0688C50.8431 40.0688 55.299 38.3459 58.8516 35.4629C61.6036 31.7417 63.2495 27.0728 63.2473 21.9977C63.2473 16.9249 61.6014 12.2536 58.8494 8.5348C55.2945 5.6494 50.8409 3.9289 45.997 3.9289C41.1576 3.9289 36.6995 5.65174 33.1491 8.53714Z" fill="white"/>
<path d="M36.3024 19.0539V20.3402H40.6735V19.0516C40.6735 18.0244 40.058 17.4361 38.488 17.4361C36.889 17.4361 36.3024 18.0244 36.3024 19.0539ZM44.0901 18.8461L44.0924 22.2474C44.0924 22.7167 43.9229 22.9221 43.4768 22.9221L36.3024 22.9244V25.0931C36.3024 26.1203 36.8354 26.7063 38.4902 26.7063C40.1428 26.7063 40.6735 26.118 40.6735 25.0931V24.9461C40.6735 24.4465 40.8698 24.2107 41.3738 24.2107H43.3363C43.8136 24.2107 44.0366 24.4465 44.0366 24.9461L44.0388 25.2682C44.0388 27.9085 42.5826 29.6103 38.4612 29.6103C34.3444 29.6103 32.7186 27.9085 32.7186 25.2706L32.7163 18.8461C32.7163 16.2339 34.3689 14.5367 38.488 14.5344C42.5803 14.5344 44.0901 16.2339 44.0901 18.8461ZM47.3328 14.7655H49.4894C49.9934 14.7655 50.1339 14.9709 50.1584 15.4705L50.2164 16.1755C51.0036 15.4985 52.4309 14.5344 54.7012 14.5344C57.2793 14.5344 58.7646 16.1732 58.7646 18.4633V28.6135C58.7646 29.1388 58.5683 29.3722 58.0621 29.3722H55.794C55.29 29.3722 55.0647 29.1411 55.0647 28.6135V19.4321C55.0647 18.3746 54.757 17.875 53.5527 17.875C52.1522 17.875 50.8899 18.7271 50.3034 19.1963V28.6135C50.3034 29.1411 50.1339 29.3722 49.6588 29.3722H47.3328C46.8265 29.3722 46.6325 29.1411 46.6348 28.6135L46.6325 15.4705C46.6325 14.9732 46.8243 14.7655 47.3328 14.7655Z" fill="#A955A1"/>
<path d="M77.6718 17.5832C77.6718 16.6774 77.2525 15.8977 75.8453 15.8977C74.2396 15.9 73.0264 16.8058 72.4845 17.247V23.375C73.0286 23.7882 74.2396 24.694 75.8453 24.694C77.2525 24.694 77.6718 23.9189 77.6718 23.0132V17.5832ZM71.9158 13.8854C72.2614 13.8854 72.3596 14.0395 72.3863 14.4013L72.4332 15.202C73.1268 14.6324 74.4626 13.6753 76.5367 13.6753C78.9341 13.6753 80.0202 15.0713 80.0202 17.1933V23.4007C80.0202 25.5204 78.9363 26.9187 76.5367 26.9187C74.534 26.9187 73.2003 26.041 72.4845 25.4713L72.4867 31.4989C72.4867 31.8351 72.3596 31.9892 72.0407 31.9892H70.6067C70.261 31.9892 70.1383 31.8351 70.1383 31.4989L70.1361 14.4013C70.1361 14.0395 70.261 13.8854 70.6067 13.8854H71.9158Z" fill="#A955A1"/>
<path d="M88.7179 23.5571V21.33H85.3102C84.0724 21.33 83.6755 21.8996 83.6755 22.9081V23.4264C83.6777 24.4348 84.2219 24.8761 85.4596 24.8761C86.965 24.8761 88.1492 24.0216 88.7179 23.5571ZM81.675 17.1653C81.675 15.0993 82.9596 13.6753 86.345 13.6753C89.8285 13.6753 91.0172 15.097 91.0172 17.1653L91.0194 26.1927C91.0194 26.5545 90.8923 26.7109 90.5711 26.7109H89.2888C88.9409 26.7109 88.8405 26.5545 88.8182 26.1927L88.7669 25.4433C88.0488 26.0386 86.7397 26.9187 84.8642 26.9187C82.5649 26.9187 81.3784 25.4713 81.3784 23.7882V22.5486C81.3784 20.8678 82.5158 19.4157 84.8129 19.4157H88.7179V17.4244C88.7179 16.3646 88.1982 15.6666 86.3204 15.6666C84.4427 15.6666 83.874 16.2876 83.874 17.3474V17.5575C83.874 17.9147 83.7513 18.0734 83.4056 18.0734H82.1188C81.7977 18.0734 81.675 17.9147 81.675 17.5575V17.1653Z" fill="#A955A1"/>
<path d="M99.5632 14.1655V15.3538C99.5632 15.7179 99.3914 15.8463 99.0703 15.872C97.2148 16.0028 95.8076 17.0112 95.2411 17.5295V26.1927C95.2411 26.5545 95.1162 26.7109 94.7973 26.7109H93.3633C93.0177 26.7109 92.8928 26.5545 92.8928 26.1927V14.3733C92.8928 14.0371 93.0177 13.8831 93.3633 13.8831H94.6702C95.0159 13.8831 95.1162 14.0371 95.1408 14.3733L95.2166 15.4868C95.8812 14.7865 97.2661 13.673 99.0703 13.673C99.3914 13.673 99.5632 13.8294 99.5632 14.1655Z" fill="#A955A1"/>
<path d="M107.15 23.5547V21.3277H103.74C102.505 21.3277 102.108 21.8996 102.108 22.9081V23.4264C102.108 24.4325 102.654 24.8737 103.887 24.8737C105.395 24.8737 106.581 24.0193 107.15 23.5547ZM100.11 17.1653C100.11 15.097 101.392 13.673 104.777 13.673C108.261 13.673 109.447 15.097 109.447 17.163V26.1904C109.447 26.5545 109.325 26.7109 109.003 26.7109H107.717C107.373 26.7109 107.275 26.5545 107.248 26.1927L107.199 25.441C106.483 26.0363 105.172 26.9164 103.296 26.9164C100.997 26.9164 99.8107 25.469 99.8107 23.7859V22.5463C99.8107 20.8654 100.948 19.4157 103.245 19.4157H107.15V17.4221C107.15 16.3623 106.631 15.6643 104.753 15.6666C102.875 15.6666 102.306 16.2852 102.306 17.3451V17.5552C102.306 17.9147 102.184 18.0711 101.836 18.0711H100.551C100.23 18.0711 100.11 17.9147 100.11 17.5552V17.1653Z" fill="#A955A1"/>
<path d="M112.857 26.3981C112.857 26.6316 112.759 26.7086 112.56 26.7086H111.844C111.624 26.711 111.548 26.6316 111.548 26.3981V24.4068C111.548 24.1991 111.624 24.0964 111.844 24.0964H112.56C112.759 24.0964 112.857 24.1991 112.857 24.4068V26.3981Z" fill="#D1B5D6"/>
<path d="M123.212 16.9575V17.4478C123.212 17.6812 123.134 17.7606 122.913 17.7583L122.271 17.7606C122.048 17.7606 121.974 17.6812 121.974 17.4501V17.0346C121.974 15.767 121.332 14.8869 118.885 14.8869C116.463 14.8869 115.819 15.767 115.819 17.0346L115.821 23.6318C115.821 24.9274 116.463 25.7772 118.885 25.7772C121.332 25.7772 121.974 24.9251 121.974 23.6318V23.0085C121.974 22.775 122.048 22.698 122.271 22.698H122.913C123.134 22.698 123.212 22.775 123.212 23.0085V23.7345C123.212 25.5951 122.197 26.9164 118.861 26.9164C115.551 26.9164 114.536 25.5951 114.536 23.7345V16.9575C114.536 15.069 115.549 13.7523 118.885 13.7523C122.197 13.7523 123.212 15.069 123.212 16.9575Z" fill="#D1B5D6"/>
<path d="M131.831 17.0323C131.831 15.7646 131.064 14.8869 128.644 14.8869C126.222 14.8869 125.457 15.7646 125.457 17.0346V23.6318C125.457 24.9251 126.225 25.7772 128.647 25.7772C131.066 25.7772 131.831 24.9251 131.831 23.6318V17.0323ZM124.171 16.9575C124.168 15.069 125.335 13.75 128.644 13.75C131.956 13.75 133.116 15.0666 133.116 16.9552L133.118 23.7322C133.118 25.5951 131.956 26.914 128.647 26.914C125.335 26.914 124.171 25.5951 124.171 23.7345V16.9575Z" fill="#D1B5D6"/>
<mask id="mask3_46_1550" style="mask-type:luminance" maskUnits="userSpaceOnUse" x="134" y="13" width="18" height="14">
<path d="M134.617 13.7477H151.231V26.8954H134.617V13.7477Z" fill="white"/>
</mask>
<g mask="url(#mask3_46_1550)">
<path d="M135.832 13.9556C136.031 13.9556 136.131 14.0607 136.131 14.2661L136.153 15.326C136.822 14.733 138.205 13.7502 140.306 13.7502C142.012 13.7502 143.024 14.4459 143.468 15.5337C144.061 14.9641 145.469 13.7502 147.817 13.7502C150.141 13.7479 151.227 15.0412 151.227 16.8504L151.229 26.3937C151.229 26.6038 151.131 26.7065 150.93 26.7065H150.239C150.018 26.7065 149.918 26.6038 149.918 26.3937V17.1095C149.918 15.8419 149.227 14.9641 147.496 14.9641C145.422 14.9641 144.135 16.101 143.64 16.5422C143.691 16.722 143.691 16.9297 143.691 17.1118L143.693 26.396C143.693 26.6038 143.62 26.7065 143.419 26.7065H142.703C142.507 26.7065 142.433 26.6038 142.433 26.396V17.1118C142.433 15.8419 141.715 14.9641 140.009 14.9641C138.009 14.9641 136.724 16.024 136.205 16.5165V26.396C136.205 26.6038 136.106 26.7088 135.91 26.7088H135.219C134.994 26.7088 134.92 26.6038 134.92 26.396V14.2661C134.92 14.0607 134.991 13.9556 135.219 13.9556H135.832Z" fill="#D1B5D6"/>
</g>
</g>
<defs>
<clipPath id="clip0_46_1550">
<rect width="176" height="44" fill="white" transform="matrix(-1 0 0 -1 176 44)"/>
</clipPath>
</defs>
</svg>
