<svg width="176" height="44" viewBox="0 0 176 44" fill="none" xmlns="http://www.w3.org/2000/svg">
<path d="M92.319 10.2587C92.7079 10.456 93.1352 10.5582 93.5695 10.5596C94.0694 10.5611 94.5601 10.4253 94.9881 10.167C95.4161 9.90873 95.765 9.53785 95.9966 9.09484C96.2407 8.65768 96.3656 8.16232 96.3614 7.66129C96.3659 7.19069 96.2507 6.72666 96.0264 6.3129C95.7961 5.9261 95.4725 5.60324 95.0852 5.37387C94.6979 5.1445 94.2592 5.01595 93.8094 5C93.3222 5.00639 92.8464 5.14844 92.4354 5.41019C91.9898 5.67277 91.6264 6.05742 91.3894 6.51871C91.142 6.95537 91.0165 7.45048 91.026 7.95226C91.0189 8.4178 91.1339 8.87626 91.361 9.28219C91.5838 9.69097 91.9159 10.0288 92.319 10.2587ZM54.6877 10.2587C55.0752 10.4546 55.5024 10.5568 55.9367 10.5596C56.4367 10.5616 56.9277 10.426 57.3557 10.1677C57.7838 9.9093 58.1326 9.53815 58.3638 9.09484C58.608 8.65768 58.7329 8.16232 58.7286 7.66129C58.7333 7.19067 58.618 6.72662 58.3936 6.3129C58.1633 5.92619 57.8397 5.60339 57.4524 5.37404C57.0651 5.14468 56.6264 5.01608 56.1766 5C55.6894 5.00639 55.2136 5.14844 54.8027 5.41019C54.3584 5.67561 53.9993 6.0631 53.7637 6.52581C53.5178 6.96355 53.3924 7.45873 53.4004 7.96077C53.3933 8.4249 53.5097 8.88335 53.7353 9.28929C53.9582 9.6938 54.2889 10.0302 54.6877 10.2587ZM36.696 18.1276C36.696 14.2443 33.5266 11.6937 28.9151 11.6937C24.5321 11.6937 19.9391 14.8659 19.9391 21.9414C19.9391 27.3463 23.1766 31.3347 28.7916 31.3347C31.9426 31.3347 35.4086 29.5279 36.2886 28.2873C36.2886 28.2873 35.6925 25.9667 34.0531 25.9667C33.1916 25.9667 32.56 26.3031 31.8546 26.6026C30.9924 26.9739 30.0639 27.1671 29.1251 27.1703C27.5596 27.1703 24.8671 26.533 24.8671 23.145C24.8671 23.145 26.1346 23.5112 29.0201 23.5112C35.1986 23.4999 36.696 20.8755 36.696 18.1276ZM29.1095 15.9134C31.2386 15.9134 32.2562 17.0801 32.2562 18.1461C32.2562 19.405 31.1307 20.2212 29.0911 20.2212C26.1331 20.2212 25.0076 19.7925 25.0076 19.7925C25.0076 17.9843 26.417 15.9134 29.1095 15.9134ZM48.2226 27.1845C47.453 27.1693 46.7079 26.9115 46.0935 26.4479C45.4769 25.9821 45.0218 25.3348 44.792 24.597C44.5463 23.612 44.4242 22.6003 44.4286 21.5852L44.4613 15.7701H46.0126C47.2617 15.7701 48.2297 15.4039 48.8982 14.6729C49.6078 13.8582 49.9755 12.7951 49.9201 11.7121H44.4684L44.4357 9.12464C44.4357 8.30851 44.4357 7.63432 44.4542 7.13755C44.4712 6.64077 44.4868 6.23342 44.5053 5.93252C44.5195 5.67135 44.5478 5.41161 44.5918 5.15329C42.9383 5.15329 41.685 5.51948 40.8093 6.21781C39.9335 6.91755 39.5077 8.09561 39.5077 9.74348L39.4722 22.6468C39.4722 27.9268 41.9717 31.3858 46.7393 31.3858C49.0983 31.3858 50.8242 30.1084 50.8242 28.1781C50.8427 27.7522 50.7887 27.3264 50.6638 26.9177C49.8634 27.1025 49.044 27.1921 48.2226 27.1845ZM60.1891 27.4343C59.1345 27.4343 58.4476 26.6537 58.4476 25.3961V14.1052C58.4476 13.6112 58.4802 13.201 58.4987 12.8987C58.5171 12.5935 58.5526 12.3168 58.5853 12.1181C56.9005 12.1181 55.6316 12.4843 54.7672 13.1826C53.9014 13.8823 53.4656 15.0604 53.4656 16.7111L53.4302 26.1924C53.4302 29.579 55.6103 31.4553 58.3241 31.3503C60.0472 31.2793 61.5262 30.4646 61.5262 28.6379C61.5262 28.1795 61.4836 27.7224 61.4027 27.2725C61.0066 27.3773 60.5988 27.4317 60.1891 27.4343ZM72.4211 12.1535C71.3722 12.1621 70.3276 12.2855 69.3056 12.5212C68.2737 12.7475 67.3053 13.2014 66.4712 13.8497C65.5708 14.5758 64.8643 15.5135 64.4145 16.5791C63.8375 18.0011 63.5676 19.5291 63.6225 21.0628V26.3996C63.6225 28.0461 63.834 29.5719 64.8176 30.3142C65.8907 31.1303 67.1397 31.1658 68.7975 31.1658C68.7606 31.0054 68.7436 30.5271 68.7067 30.2077C68.6689 29.8077 68.6519 29.4059 68.6556 29.0041C68.6371 28.4875 68.6371 27.8331 68.6371 27.017V20.1658C68.6371 18.552 68.9025 16.4812 71.7157 16.2498C73.2997 16.1079 74.7105 15.5174 74.7105 13.7688C74.7091 13.2181 74.6126 12.6716 74.4267 12.155L72.4211 12.1535ZM8.80141 11.6937C3.02748 11.6937 0 15.7701 0 20.7335C0 25.3223 2.78051 29.6116 7.83058 29.6116C10.455 29.6116 11.9666 28.4946 12.3555 28.1468V30.4533C12.3555 33.0919 11.3335 34.8448 8.69638 34.8448C7.61844 34.8321 6.55782 34.5718 5.59651 34.084C4.82155 33.7178 4.24103 33.2679 3.46748 33.2679C1.49742 33.2679 0.952387 35.712 0.969419 35.7304C2.44697 37.6451 5.82645 39.0645 8.6609 39.0645C14.239 39.0645 17.3204 35.7716 17.3204 29.2781V21.6916C17.3019 15.7516 14.7144 11.6937 8.80141 11.6937ZM8.76593 25.2159C6.5858 25.2159 4.94787 23.8362 4.94787 20.8017C4.94787 17.5783 6.6369 15.895 8.76593 15.895C10.895 15.895 12.3995 17.1724 12.3995 20.5575C12.3924 24.0492 10.736 25.2159 8.76593 25.2159ZM88.7252 9.89677H88.5876C88.1903 9.77426 87.7866 9.67381 87.3783 9.59587C86.874 9.50866 86.3628 9.46733 85.8511 9.47238C85.3969 9.46813 84.9427 9.51497 84.4998 9.61432C84.1118 9.6967 83.7498 9.87259 83.4452 10.1267C83.1372 10.3964 82.8974 10.7342 82.7441 11.116C82.5525 11.617 82.4631 12.1521 82.4787 12.6886V14.3876H87.8864V15.6934C87.8921 16.0908 87.7899 16.4826 87.5883 16.8246C87.384 17.1582 87.1143 17.4477 86.7963 17.6734C86.4654 17.9103 86.0969 18.0898 85.7063 18.2043C85.3193 18.3197 84.9178 18.379 84.514 18.3803H82.4758V31.1048H80.5824C79.843 31.107 79.1316 30.822 78.5982 30.3099C78.3166 30.0531 78.0942 29.7382 77.9462 29.3871C77.7982 29.0359 77.7281 28.6568 77.7409 28.276V12.3012C77.7508 11.539 77.8729 10.7824 78.1042 10.0586C78.3625 9.22116 78.7869 8.44619 79.3504 7.77768C79.98 7.03634 80.7573 6.43449 81.6327 6.01058C82.7188 5.50681 83.9079 5.26471 85.1045 5.30374C86.0295 5.27069 86.9387 5.55074 87.6849 6.09858C88.0209 6.35444 88.2903 6.68769 88.4699 7.06998C88.6496 7.45227 88.7342 7.87229 88.7167 8.29432L88.7252 9.89677ZM137.944 24.6013C137.956 25.5515 137.777 26.4945 137.419 27.3747C137.084 28.189 136.581 28.924 135.944 29.5321C135.291 30.1449 134.521 30.6199 133.68 30.9288C132.749 31.2694 131.764 31.4355 130.774 31.4227H129.83C128.788 31.4353 127.751 31.2795 126.758 30.9614C125.894 30.6895 125.085 30.2645 124.371 29.7067C123.718 29.1957 123.183 28.5428 122.808 27.8005C122.432 27.0486 122.241 26.2182 122.249 25.3777C122.242 24.5622 122.409 23.7545 122.739 23.0088C123.091 22.2476 123.642 21.5955 124.334 21.121C125.217 20.5246 126.203 20.0986 127.242 19.8649C128.686 19.5314 130.165 19.3769 131.647 19.405H133.296V19.1595C133.296 17.8168 132.965 16.8942 132.311 16.4003C131.658 15.9063 130.629 15.6679 129.222 15.6679C128.462 15.6616 127.704 15.7329 126.958 15.8808C126.362 16.0014 125.78 16.1859 125.221 16.4286C124.463 16.7652 123.782 17.2552 123.223 17.8679H123.048V16.3492C123.051 15.7871 123.174 15.2321 123.411 14.724C123.691 14.1396 124.099 13.6254 124.604 13.2195C125.242 12.7199 125.971 12.348 126.747 12.1223C127.777 11.8177 128.849 11.674 129.923 11.6965C130.949 11.6934 131.97 11.8304 132.958 12.1039C133.908 12.3636 134.785 12.8419 135.52 13.5019C136.303 14.2292 136.904 15.1307 137.274 16.1334C137.743 17.4534 137.963 18.8486 137.921 20.2495L137.944 24.6013ZM133.345 24.6382V22.8072H131.664C130.917 22.7973 130.17 22.8514 129.432 22.969C128.937 23.0428 128.457 23.1961 128.013 23.4261C127.701 23.5904 127.447 23.8459 127.285 24.1584C127.137 24.4849 127.066 24.8426 127.075 25.2017C127.059 25.5397 127.128 25.8764 127.274 26.1815C127.421 26.4866 127.64 26.7508 127.914 26.9503C128.479 27.3619 129.286 27.5691 130.338 27.5691C132.343 27.5691 133.345 26.5926 133.345 24.6382ZM158.333 31.1048H157.073C156.152 31.1521 155.249 30.8338 154.562 30.2191C154.257 29.9358 154.017 29.5907 153.856 29.2069C153.695 28.8231 153.619 28.4094 153.631 27.9935V20.4284C153.631 18.8046 153.299 17.6266 152.632 16.8942C151.967 16.1618 151.022 15.7956 149.809 15.7956C149.337 15.7775 148.867 15.867 148.436 16.0574C148.004 16.2477 147.621 16.5339 147.316 16.8942C146.683 17.6266 146.367 18.6812 146.367 20.0593V31.0863H144.964C144.524 31.1085 144.084 31.0415 143.671 30.8893C143.257 30.7371 142.879 30.5028 142.559 30.2006C142.264 29.9117 142.032 29.5647 141.878 29.1816C141.724 28.7986 141.651 28.3877 141.664 27.9751V19.7414C141.666 18.7237 141.837 17.7146 142.174 16.7551C142.51 15.7976 143.035 14.9176 143.718 14.1676C144.458 13.3671 145.361 12.7345 146.367 12.3125C147.579 11.8145 148.883 11.5738 150.193 11.6057C151.27 11.5977 152.34 11.7837 153.351 12.155C154.316 12.5055 155.195 13.0605 155.932 13.7801C156.691 14.5324 157.289 15.4337 157.687 16.4286C158.136 17.5698 158.356 18.789 158.333 20.0153V31.1048ZM167.901 31.2581C164.324 31.2581 161.662 29.5264 161.662 27.6557V25.5806H161.845C162.884 26.489 165.383 27.3122 167.681 27.3122C170.071 27.3122 171.221 26.6608 171.221 25.3053C171.221 24.2592 170.527 23.744 167.17 23.2983C163.067 22.749 161.078 21.2232 161.078 18.4441C161.078 15.0135 164.361 12.0968 169.342 12.0968C173.737 12.0968 175.544 14.24 175.544 15.9915V17.7231H175.361C174.358 16.7792 172.114 16.0255 169.797 16.0255C166.842 16.0255 165.894 16.8658 165.894 18.0666C165.894 18.975 166.477 19.3525 169.797 19.8677C173.847 20.4852 176 22.1486 176 25.0654C176.018 28.9601 173.136 31.2581 167.901 31.2581ZM118.723 31.1048H117.463C116.541 31.1523 115.639 30.834 114.951 30.2191C114.647 29.9354 114.406 29.5902 114.246 29.2065C114.086 28.8227 114.009 28.4092 114.021 27.9935V20.4284C114.021 18.8046 113.689 17.6266 113.022 16.8942C112.357 16.1618 111.412 15.7956 110.199 15.7956C109.727 15.7775 109.258 15.867 108.826 16.0574C108.394 16.2477 108.011 16.5339 107.706 16.8942C107.073 17.6266 106.757 18.6812 106.757 20.0593V31.0863H105.354C104.914 31.1083 104.475 31.0412 104.061 30.889C103.648 30.7369 103.269 30.5027 102.949 30.2006C102.654 29.9118 102.422 29.5649 102.268 29.1818C102.114 28.7987 102.041 28.3877 102.054 27.9751V19.7414C102.056 18.7237 102.229 17.7146 102.564 16.7551C102.9 15.7977 103.425 14.9177 104.108 14.1676C104.848 13.3671 105.751 12.7346 106.757 12.3125C107.97 11.8145 109.273 11.5738 110.583 11.6057C111.66 11.5976 112.73 11.7837 113.741 12.155C114.707 12.5055 115.587 13.0605 116.322 13.7801C117.083 14.533 117.68 15.4346 118.077 16.4286C118.526 17.5698 118.745 18.789 118.723 20.0153V31.1048ZM97.8105 27.4343C96.7531 27.4343 96.0661 26.6537 96.0661 25.3961V16.0894C96.0661 15.2733 96.0661 14.5991 96.0846 14.1052C96.103 13.6112 96.1215 13.201 96.1385 12.8987C96.157 12.5935 96.1896 12.3168 96.2265 12.1181C94.5375 12.1181 93.2686 12.4843 92.4071 13.1826C91.5455 13.8823 91.1055 15.0604 91.1055 16.7111L91.07 26.1924C91.07 29.579 93.2501 31.4553 95.9611 31.3503C97.687 31.2793 99.166 30.4646 99.166 28.6379C99.166 28.1795 99.1234 27.7224 99.0425 27.2725C98.6405 27.3788 98.2264 27.4332 97.8105 27.4343Z" fill="#5D3EBC"/>
</svg>
