<svg width="176" height="44" viewBox="0 0 176 44" fill="none" xmlns="http://www.w3.org/2000/svg">
<g clip-path="url(#clip0_46_1462)">
<path d="M5.07558 7.88498V35.1025H4.09138V7.88498H5.07558ZM3.10734 10.6936V32.2951H2.1233V10.6936H3.10734ZM1.13927 13.4999V29.4889H0.155228V13.4999H1.13927ZM21.7678 37.9072V21.9984H7.04349V37.9072H6.05945V5.08144H7.04366V21.0359H21.768V5.08144H22.7519V37.9073H21.7678V37.9072ZM23.7359 35.1344V7.88742H24.7198V35.1342H23.7359V35.1344ZM25.704 32.2951V10.6936H26.6879V32.2951H25.704ZM27.6719 29.4889V13.4999H28.6559V29.4889H27.6719ZM8.02753 20.0706V7.88758H9.0114V19.1142H19.8074L19.7996 7.88758H20.7836V20.0706H8.02753ZM9.9956 18.1462V10.6936H10.9796V17.1897H17.8295V10.6936H18.8137V18.1462H9.9956ZM11.9637 16.2202V13.4999H12.9477V15.2643H15.8638V13.4999H16.8476V16.2202H11.9637ZM20.7836 22.958V35.1389H19.7996L19.7998 23.9144H9.00392L9.0114 35.1389H8.02753V22.958H20.7836ZM18.8129 24.8944V32.2951H17.8288V25.8446H10.9796V32.2951H9.9956V24.8831L18.8129 24.8944ZM16.8476 26.8083V29.4889H15.8638V27.7646H12.9477V29.4889H11.9637V26.8083H16.8476ZM47.4421 21.7237V23.313C47.4421 24.8553 47.4233 26.2307 47.3849 27.4389C47.3472 28.6283 47.2903 29.7996 47.214 30.9513C47.5371 30.9139 47.8888 30.8956 48.2689 30.8956C48.649 30.8956 49.0762 30.8956 49.5514 30.8956C50.0262 30.8956 50.4538 30.8956 50.8339 30.8956C51.214 30.8956 51.5655 30.9139 51.8886 30.9513C51.8126 29.7994 51.7555 28.6283 51.7179 27.4389C51.6797 26.2307 51.6607 24.8553 51.6607 23.313V19.5213C51.6607 17.9784 51.6795 16.6126 51.7179 15.4228C51.7556 14.2148 51.8126 13.0068 51.8886 11.7983C51.5657 11.8359 51.214 11.8728 50.8339 11.9098C50.4538 11.9285 50.0264 11.9381 49.5514 11.9381C49.0764 11.9381 48.649 11.9285 48.2689 11.9098C47.8888 11.8726 47.5373 11.8359 47.214 11.7983C47.2903 13.0068 47.3473 14.2055 47.3849 15.3948C47.4231 16.5659 47.4421 17.9225 47.4421 19.4655C46.891 19.4837 46.2923 19.5026 45.6467 19.5213C45.0003 19.5213 44.1645 19.5213 43.1385 19.5213C42.112 19.5213 41.2475 19.5213 40.5447 19.5213C39.8606 19.5026 39.2713 19.4839 38.7777 19.4655C38.7777 17.9225 38.787 16.5659 38.8061 15.3948C38.8438 14.2055 38.9103 13.0068 39.0055 11.7983C38.6824 11.8359 38.3309 11.8728 37.9509 11.9098C37.5708 11.9285 37.1431 11.9381 36.6682 11.9381C36.1935 11.9381 35.7657 11.9285 35.3856 11.9098C35.0056 11.8726 34.6542 11.8359 34.331 11.7983C34.4069 13.0068 34.4641 14.2148 34.5018 15.4228C34.54 16.6126 34.5588 17.9784 34.5588 19.5213V23.313C34.5588 24.8553 34.5402 26.2307 34.5018 27.4389C34.4641 28.6283 34.4069 29.7996 34.331 30.9513C34.654 30.9139 35.0056 30.8956 35.3856 30.8956C35.7657 30.8956 36.1933 30.8956 36.6682 30.8956C37.143 30.8956 37.5708 30.8956 37.9509 30.8956C38.3309 30.8956 38.6823 30.9139 39.0055 30.9513C38.9294 29.7994 38.8724 28.6283 38.8347 27.4389C38.7965 26.2307 38.7777 24.8553 38.7777 23.313V21.7237C39.4996 21.6866 40.2217 21.6587 40.9435 21.6403C41.6658 21.6216 42.3878 21.6122 43.1099 21.6122C43.8316 21.6122 44.5538 21.6309 45.2759 21.6679C45.998 21.6868 46.7199 21.7048 47.4421 21.7237ZM62.007 17.04C61.5127 18.1551 61.0472 19.261 60.6105 20.3577C60.1734 21.4356 59.7459 22.5419 59.3275 23.6754H64.5435C64.1253 22.5417 63.7073 21.4356 63.2895 20.3577C62.8903 19.2609 62.4627 18.1551 62.007 17.04ZM72.0968 30.9515C71.6405 30.9141 71.2036 30.8957 70.7854 30.8957C70.3864 30.8957 69.9875 30.8957 69.5883 30.8957C69.1894 30.8957 68.7808 30.8957 68.3626 30.8957C67.9639 30.8957 67.5646 30.9141 67.1659 30.9515C66.8617 30.0411 66.5481 29.1118 66.2252 28.1639C65.9021 27.2162 65.5601 26.2683 65.1991 25.3199C64.5912 25.3018 63.9832 25.2924 63.3748 25.2924C62.7669 25.2737 62.1587 25.2643 61.5505 25.2643C61.0565 25.2643 60.5624 25.2737 60.0683 25.2924C59.5743 25.2924 59.0803 25.3018 58.5862 25.3199C58.2066 26.2683 57.8548 27.2162 57.5321 28.1639C57.209 29.1116 56.9143 30.0411 56.6484 30.9515C56.4204 30.9141 56.192 30.8957 55.9642 30.8957C55.7554 30.8957 55.5367 30.8957 55.3089 30.8957C55.081 30.8957 54.8527 30.8957 54.6248 30.8957C54.3968 30.8957 54.15 30.9141 53.8838 30.9515C54.1116 30.4688 54.4156 29.7996 54.7957 28.9447C55.1758 28.0894 55.5936 27.123 56.0499 26.0451C56.5056 24.9668 56.9903 23.8145 57.5035 22.588C58.0353 21.3425 58.5581 20.0878 59.0714 18.8242C59.6032 17.5603 60.1164 16.3153 60.6105 15.0887C61.1232 13.8619 61.589 12.7187 62.007 11.6597C62.1971 11.6966 62.3775 11.7335 62.5485 11.7709C62.7192 11.7892 62.8996 11.7983 63.0899 11.7983C63.2799 11.7983 63.4602 11.7892 63.6314 11.7709C63.8027 11.7335 63.9832 11.6964 64.1734 11.6597C64.7815 13.2391 65.4271 14.9306 66.1112 16.7334C66.8145 18.5362 67.5175 20.3115 68.2205 22.0587C68.9232 23.7871 69.6076 25.4315 70.2725 26.9928C70.9373 28.554 71.5454 29.8739 72.0968 30.9515ZM74.3197 19.5215V23.3132C74.3197 24.8554 74.3009 26.2309 74.2625 27.439C74.2248 28.6285 74.1678 29.7997 74.0918 30.9515C74.2434 30.9328 74.4246 30.9141 74.6331 30.8957C74.8612 30.8957 75.1841 30.8957 75.6022 30.8957C76.0393 30.8957 76.6095 30.8957 77.3122 30.8957C78.0348 30.8957 78.975 30.8957 80.1345 30.8957C81.4454 30.8957 82.4717 30.8957 83.2123 30.8957C83.9724 30.9141 84.6091 30.9328 85.122 30.9515C85.0839 30.84 85.0554 30.7008 85.0366 30.5339C85.0175 30.3664 85.0078 30.1338 85.0078 29.8368C85.0078 29.5393 85.0175 29.3069 85.0366 29.1399C85.0552 28.9726 85.0839 28.7868 85.122 28.5822C84.0198 28.7124 82.9274 28.8049 81.8443 28.8606C80.7609 28.9167 79.6781 28.9448 78.5952 28.9448C78.5761 28.2198 78.557 27.3647 78.5382 26.3798C78.5382 25.3945 78.5382 24.3725 78.5382 23.3134V19.5216C78.5382 17.9787 78.5568 16.6129 78.5952 15.4231C78.6329 14.2151 78.6899 13.0071 78.7661 11.7987C78.443 11.8362 78.0913 11.8731 77.7112 11.9102C77.3311 11.9289 76.9037 11.9385 76.4289 11.9385C75.9539 11.9385 75.5263 11.9289 75.1462 11.9102C74.7661 11.8729 74.4146 11.8362 74.0915 11.7987C74.1675 13.0071 74.2246 14.2151 74.2622 15.4231C74.3009 16.6127 74.3197 17.9784 74.3197 19.5215ZM91.8205 22.2814H91.8775C92.8466 23.7313 93.7967 25.19 94.7272 26.6584C95.6586 28.1083 96.6085 29.5393 97.5776 30.9515C97.9958 30.9141 98.4046 30.8957 98.8031 30.8957C99.2213 30.8957 99.6389 30.8957 100.057 30.8957C100.476 30.8957 100.903 30.8957 101.34 30.8957C101.777 30.8957 102.271 30.9141 102.822 30.9515C102.442 30.5057 101.939 29.8457 101.311 28.9725C100.684 28.0802 100 27.1136 99.2595 26.073C98.5372 25.0136 97.8056 23.9353 97.0642 22.8392C96.3235 21.7425 95.6486 20.739 95.0407 19.8284C95.4209 19.382 95.9527 18.7777 96.6368 18.016C97.3208 17.2355 98.0337 16.4362 98.7744 15.6185C99.5344 14.8005 100.247 14.0384 100.912 13.3326C101.577 12.6264 102.071 12.115 102.395 11.7987C102.071 11.8362 101.767 11.8731 101.482 11.9102C101.216 11.9289 100.95 11.9385 100.684 11.9385C100.418 11.9385 100.152 11.9289 99.8857 11.9102C99.6202 11.8729 99.3541 11.8362 99.0878 11.7987C98.8405 12.1519 98.442 12.682 97.8911 13.3882C97.34 14.0756 96.7224 14.8379 96.0383 15.6741C95.3541 16.5105 94.6418 17.375 93.9009 18.267C93.1597 19.1403 92.4658 19.949 91.8201 20.6922V18.0158C91.8201 16.6589 91.8296 15.423 91.8484 14.3079C91.8865 13.1928 91.9533 12.3561 92.048 11.7983C91.7249 11.8359 91.3734 11.8728 90.9932 11.9098C90.6132 11.9285 90.1858 11.9381 89.7108 11.9381C89.2358 11.9381 88.8082 11.9285 88.4283 11.9098C88.0482 11.8726 87.6967 11.8359 87.3733 11.7983C87.4496 13.0068 87.5066 14.2148 87.5443 15.4228C87.5825 16.6126 87.6011 17.9784 87.6011 19.5213V23.313C87.6011 24.8553 87.5827 26.2307 87.5443 27.4389C87.5064 28.6283 87.4496 29.7996 87.3733 30.9513C87.6965 30.9139 88.048 30.8956 88.4283 30.8956C88.8082 30.8956 89.2357 30.8956 89.7108 30.8956C90.1856 30.8956 90.6132 30.8956 90.9932 30.8956C91.3734 30.8956 91.7247 30.9139 92.048 30.9513C91.9341 30.0967 91.8675 28.9445 91.8484 27.4946C91.8298 26.0452 91.8205 24.3073 91.8205 22.2814ZM113.539 25.6549C113.539 26.2683 113.453 26.8075 113.282 27.2719C113.111 27.7365 112.883 28.1358 112.598 28.4705C112.313 28.7865 111.98 29.0282 111.601 29.1955C111.221 29.3628 110.821 29.4463 110.403 29.4463C110.08 29.4463 109.805 29.4463 109.577 29.4463C109.349 29.428 109.102 29.4091 108.836 29.3907C108.836 29.1492 108.826 28.8424 108.807 28.4705C108.807 28.0989 108.807 27.69 108.807 27.2438C108.807 26.798 108.798 26.3424 108.779 25.8776C108.779 25.4132 108.779 24.9575 108.779 24.5118C108.779 23.9353 108.779 23.4433 108.779 23.0339C108.798 22.6064 108.807 22.1979 108.807 21.8074C108.978 21.8074 109.159 21.8074 109.349 21.8074C109.539 21.7889 109.767 21.7794 110.033 21.7794C111.173 21.7794 112.037 22.1049 112.627 22.7553C113.235 23.387 113.539 24.3534 113.539 25.6549ZM113.339 16.65C113.339 17.2448 113.244 17.765 113.054 18.2114C112.864 18.6571 112.617 19.0289 112.313 19.3264C112.009 19.6049 111.658 19.819 111.259 19.9672C110.878 20.1161 110.489 20.1906 110.09 20.1906H108.808C108.808 19.7073 108.798 19.2422 108.779 18.7966C108.779 18.3322 108.779 17.8489 108.779 17.3469C108.779 16.8636 108.788 16.2689 108.808 15.5626C108.827 14.8561 108.855 14.1592 108.893 13.4712C109.083 13.4343 109.254 13.4156 109.406 13.4156C109.577 13.3973 109.872 13.388 110.29 13.388C110.86 13.388 111.335 13.4805 111.715 13.6666C112.095 13.8338 112.408 14.0665 112.655 14.3637C112.902 14.6425 113.074 14.9862 113.168 15.395C113.282 15.7855 113.339 16.2036 113.339 16.65ZM104.561 19.5215V23.3132C104.561 24.8554 104.542 26.2309 104.503 27.439C104.466 28.6285 104.409 29.7997 104.333 30.9515C104.656 30.9141 105.083 30.8957 105.615 30.8957C106.166 30.8957 106.698 30.8957 107.212 30.8957C107.934 30.8957 108.618 30.9048 109.264 30.9237C109.929 30.9421 110.641 30.9515 111.402 30.9515C112.256 30.9515 113.083 30.8683 113.881 30.7008C114.679 30.515 115.382 30.1992 115.99 29.7531C116.617 29.3069 117.111 28.7311 117.472 28.0244C117.852 27.3181 118.043 26.4632 118.043 25.4597C118.043 24.6233 117.853 23.9171 117.472 23.3408C117.111 22.7462 116.665 22.2627 116.133 21.8911C115.6 21.5198 115.04 21.2498 114.451 21.0825C113.862 20.8967 113.349 20.7946 112.912 20.7759V20.7202C113.349 20.6457 113.833 20.5061 114.365 20.3019C114.917 20.0973 115.42 19.8188 115.876 19.4655C116.351 19.0939 116.75 18.6386 117.074 18.0992C117.396 17.5418 117.558 16.8823 117.558 16.1197C117.558 15.3581 117.415 14.7074 117.13 14.1685C116.864 13.6107 116.475 13.1648 115.962 12.8303C115.449 12.4772 114.841 12.2166 114.137 12.0495C113.434 11.8825 112.655 11.7983 111.8 11.7983C110.983 11.7983 110.128 11.8266 109.235 11.8825C108.342 11.9196 107.487 11.9383 106.67 11.9383C106.195 11.9383 105.767 11.9287 105.387 11.91C105.007 11.8728 104.656 11.836 104.333 11.7985C104.409 13.007 104.466 14.215 104.503 15.423C104.542 16.6127 104.561 17.9784 104.561 19.5215ZM127.248 17.04C126.754 18.1551 126.289 19.2609 125.852 20.3577C125.415 21.4356 124.988 22.5419 124.569 23.6754H129.785C129.367 22.5417 128.949 21.4356 128.531 20.3577C128.132 19.2609 127.704 18.1551 127.248 17.04ZM137.338 30.9515C136.882 30.9141 136.445 30.8957 136.027 30.8957C135.628 30.8957 135.229 30.8957 134.83 30.8957C134.431 30.8957 134.023 30.8957 133.604 30.8957C133.206 30.8957 132.806 30.9141 132.408 30.9515C132.104 30.0411 131.79 29.1118 131.467 28.1639C131.144 27.2162 130.802 26.2683 130.441 25.3199C129.833 25.3018 129.225 25.2924 128.616 25.2924C128.008 25.2737 127.4 25.2643 126.792 25.2643C126.298 25.2643 125.804 25.2737 125.31 25.2924C124.816 25.2924 124.322 25.3018 123.828 25.3199C123.448 26.2683 123.096 27.2162 122.774 28.1639C122.45 29.1116 122.156 30.0411 121.89 30.9515C121.662 30.9141 121.434 30.8957 121.206 30.8957C120.997 30.8957 120.779 30.8957 120.55 30.8957C120.322 30.8957 120.094 30.8957 119.866 30.8957C119.639 30.8957 119.391 30.9141 119.125 30.9515C119.353 30.4688 119.657 29.7997 120.037 28.9447C120.418 28.0894 120.835 27.123 121.292 26.0451C121.747 24.9668 122.232 23.8145 122.745 22.588C123.277 21.3426 123.8 20.0878 124.313 18.8242C124.845 17.5603 125.358 16.3153 125.852 15.0887C126.365 13.8619 126.831 12.7187 127.248 11.6597C127.439 11.6966 127.619 11.7335 127.79 11.7709C127.961 11.7892 128.141 11.7983 128.332 11.7983C128.522 11.7983 128.702 11.7892 128.873 11.7709C129.045 11.7335 129.225 11.6964 129.415 11.6597C130.023 13.2391 130.669 14.9306 131.353 16.7334C132.056 18.5362 132.759 20.3112 133.462 22.0587C134.165 23.7871 134.849 25.4315 135.514 26.9928C136.179 28.554 136.787 29.8739 137.338 30.9515ZM139.818 17.3469C139.818 18.7592 139.789 20.2371 139.732 21.7796C139.694 23.3039 139.637 24.7255 139.561 26.0452C139.504 27.3465 139.447 28.4519 139.39 29.3629C139.333 30.2738 139.286 30.8032 139.248 30.9517C139.685 30.9143 140.122 30.8959 140.559 30.8959C140.768 30.8959 140.987 30.8959 141.214 30.8959C141.443 30.8959 141.671 30.9143 141.898 30.9517C141.88 30.7476 141.861 30.4778 141.842 30.1434C141.822 29.7905 141.804 29.3442 141.785 28.805C141.766 28.2661 141.747 27.6065 141.728 26.8258C141.728 26.0452 141.728 25.0973 141.728 23.9825V20.7482C141.728 20.1907 141.728 19.6424 141.728 19.1037C141.747 18.5646 141.765 18.0254 141.785 17.4865C146.174 22.0033 150.326 26.4916 154.24 30.9518C154.563 30.9144 154.934 30.8961 155.352 30.8961C155.751 30.8961 156.14 30.9144 156.52 30.9518V27.6066C156.52 26.2687 156.52 25.0139 156.52 23.8432C156.539 22.6537 156.568 21.4548 156.606 20.2468C156.644 19.0385 156.691 17.756 156.748 16.3995C156.805 15.0242 156.881 13.4904 156.977 11.7988C156.444 11.892 156.017 11.9386 155.694 11.9386C155.371 11.9386 154.943 11.892 154.411 11.7988C154.449 11.9849 154.477 12.3473 154.497 12.8863C154.534 13.4254 154.554 14.067 154.554 14.8099C154.573 15.5535 154.582 16.3712 154.582 17.2633C154.601 18.1371 154.61 19.0291 154.61 19.9401V22.6443V25.0695C152.483 22.821 150.402 20.609 148.369 18.4344C146.355 16.2597 144.312 14.0482 142.241 11.799C141.709 11.8921 141.281 11.9388 140.958 11.9388C140.635 11.9388 140.208 11.8921 139.675 11.799C139.694 12.4684 139.723 13.2396 139.761 14.1134C139.799 14.9862 139.818 16.0641 139.818 17.3469ZM164.986 22.2814H165.042C166.011 23.7313 166.962 25.19 167.893 26.6584C168.824 28.1083 169.774 29.5393 170.743 30.9515C171.161 30.9141 171.569 30.8957 171.968 30.8957C172.386 30.8957 172.804 30.8957 173.223 30.8957C173.641 30.8957 174.068 30.8957 174.505 30.8957C174.943 30.8957 175.436 30.9141 175.988 30.9515C175.607 30.5057 175.104 29.8459 174.476 28.9725C173.849 28.0802 173.165 27.1136 172.425 26.073C171.702 25.0136 170.971 23.9353 170.229 22.8393C169.489 21.7425 168.814 20.739 168.206 19.8284C168.586 19.382 169.118 18.7777 169.802 18.016C170.486 17.2355 171.199 16.4362 171.94 15.6185C172.7 14.8005 173.413 14.0384 174.078 13.3326C174.742 12.6264 175.237 12.115 175.559 11.7987C175.237 11.8362 174.932 11.8731 174.647 11.9102C174.381 11.9289 174.115 11.9385 173.849 11.9385C173.583 11.9385 173.317 11.9289 173.051 11.9102C172.785 11.8729 172.519 11.8362 172.253 11.7987C172.006 12.1519 171.607 12.682 171.056 13.3882C170.505 14.0756 169.888 14.8379 169.203 15.6741C168.519 16.5105 167.807 17.375 167.066 18.267C166.325 19.1403 165.631 19.949 164.985 20.6922V18.0158C164.985 16.6589 164.995 15.4231 165.014 14.3079C165.052 13.1928 165.118 12.3561 165.213 11.7983C164.89 11.8359 164.538 11.8728 164.158 11.9098C163.778 11.9285 163.351 11.9381 162.876 11.9381C162.401 11.9381 161.974 11.9285 161.593 11.9098C161.213 11.8726 160.861 11.8359 160.538 11.7983C160.614 13.0066 160.672 14.2148 160.709 15.423C160.748 16.6126 160.766 17.9784 160.766 19.5213V23.313C160.766 24.8553 160.748 26.2309 160.709 27.4389C160.671 28.6283 160.614 29.7996 160.538 30.9513C160.861 30.9139 161.213 30.8956 161.593 30.8956C161.974 30.8956 162.401 30.8956 162.876 30.8956C163.351 30.8956 163.778 30.8956 164.158 30.8956C164.538 30.8956 164.89 30.9139 165.213 30.9513C165.099 30.0967 165.033 28.9445 165.014 27.4948C164.995 26.0449 164.986 24.3071 164.986 22.2814Z" fill="#005596"/>
</g>
<defs>
<clipPath id="clip0_46_1462">
<rect width="176" height="33" fill="white" transform="translate(0 5)"/>
</clipPath>
</defs>
</svg>
