<svg width="176" height="44" viewBox="0 0 176 44" fill="none" xmlns="http://www.w3.org/2000/svg">
<g clip-path="url(#clip0_46_1464)">
<path d="M89.8625 21.9742L67.3773 1.52588e-05V44L89.8625 21.9742Z" fill="#DB0011"/>
<path d="M44.8922 21.9742L67.3773 1.52588e-05H22.407L44.8922 21.9742Z" fill="#DB0011"/>
<path d="M-0.131073 21.9742L22.407 44V1.52588e-05L-0.131073 21.9742Z" fill="#DB0011"/>
<path d="M44.8922 21.9742L22.407 44H67.3773L44.8922 21.9742Z" fill="#DB0011"/>
<path d="M109.597 23.2668H101.449V31.1258H97.3752V12.7709H101.449V20.3196H109.597V12.7709H113.67V31.1775H109.597V23.2668Z" fill="black"/>
<path d="M123.511 31.5394C119.437 31.5394 116.104 29.9365 116.051 25.5417H120.125C120.178 27.5065 121.342 28.6956 123.564 28.6956C125.204 28.6956 127.109 27.8684 127.109 26.0588C127.109 24.611 125.839 24.1974 123.723 23.577L122.347 23.215C119.384 22.3878 116.421 21.2503 116.421 17.9412C116.421 13.8566 120.337 12.4606 123.881 12.4606C127.532 12.4606 130.706 13.7015 130.759 17.7861H126.685C126.527 16.1316 125.521 15.1492 123.617 15.1492C122.082 15.1492 120.601 15.9248 120.601 17.5793C120.601 18.9236 121.871 19.3372 124.516 20.1645L126.103 20.6298C129.331 21.6122 131.394 22.698 131.394 25.8002C131.341 29.9365 127.214 31.5394 123.511 31.5394Z" fill="black"/>
<path d="M133.669 12.8226H140.229C141.446 12.7709 142.716 12.8226 143.933 13.0294C146.208 13.5464 147.954 14.9941 147.954 17.4759C147.954 19.8543 146.419 21.0435 144.197 21.6122C146.737 22.0776 148.641 23.3185 148.641 26.0588C148.641 30.2468 144.409 31.1774 141.129 31.1774H133.722L133.669 12.8226ZM140.229 20.423C142.028 20.423 143.88 20.0611 143.88 17.9413C143.88 16.0282 142.187 15.5112 140.494 15.5112H137.637V20.423H140.229ZM140.6 28.4371C142.504 28.4371 144.356 28.0235 144.356 25.7485C144.356 23.4736 142.769 23.0599 140.811 23.0599H137.584V28.4371H140.6Z" fill="black"/>
<path d="M159.223 31.5394C153.139 31.5394 150.44 27.765 150.44 22.1293C150.44 16.4935 153.456 12.4089 159.434 12.4089C163.191 12.4089 166.841 14.0635 166.947 18.1998H162.715C162.503 16.3384 161.233 15.4078 159.434 15.4078C155.731 15.4078 154.62 19.2856 154.62 22.2327C154.62 25.1798 155.731 28.5922 159.276 28.5922C161.127 28.5922 162.503 27.6099 162.767 25.7485H167C166.577 29.9883 163.138 31.5394 159.223 31.5394Z" fill="black"/>
</g>
<defs>
<clipPath id="clip0_46_1464">
<rect width="176" height="44" fill="white" transform="matrix(-1 0 0 -1 176 44)"/>
</clipPath>
</defs>
</svg>
