<svg width="176" height="44" viewBox="0 0 176 44" fill="none" xmlns="http://www.w3.org/2000/svg">
<g clip-path="url(#clip0_46_1358)">
<path fill-rule="evenodd" clip-rule="evenodd" d="M132.231 13.5203V10.1393H121.231V13.5203V16.8949V20.2797H124.621H127.977V23.6645H124.621H121.231V27.0375V30.4263V33.3507V33.7979H132.231V30.4263H124.621V27.0377H131.393V26.5894V23.6648V20.28V16.8952H127.966H124.621V13.5206L132.231 13.5203ZM110.993 21.9874C110.993 9.84393 120.858 0 133.045 0C145.224 0 155.1 9.84393 155.1 21.9874C155.1 34.1343 145.224 43.9807 133.045 43.9807C120.858 43.9807 110.993 34.1343 110.993 21.9874ZM114.41 21.9874C114.41 11.73 122.748 3.40169 133.045 3.40169C143.332 3.40169 151.681 11.73 151.681 21.9874C151.681 32.2488 143.332 40.571 133.045 40.571C122.748 40.571 114.41 32.2488 114.41 21.9874ZM133.946 30.4343V33.8092H144.94V30.4343V27.0495V23.6648H141.545H138.176V20.2947H141.545H144.94V16.91V13.5292V10.5895V10.1452H133.946V13.5292H141.545V16.91H134.775V17.351V20.2947V23.6648V27.0495H138.206H141.545V30.4343H133.946Z" fill="#B2292E"/>
<path d="M66.7408 33.7654C69.5995 33.7654 71.7413 33.0754 73.1343 31.7243C74.5612 30.3313 74.8674 28.5429 74.8674 27.2787C74.8674 24.5225 73.701 22.6039 71.4101 21.593L71.3057 21.5474L71.402 21.4948C72.4409 20.9563 73.8092 19.8617 73.8092 16.5851C73.8092 14.7915 73.1193 13.1734 71.8732 12.0372C70.5149 10.7821 68.5253 10.1259 66.1209 10.1259L53.7006 10.1149V33.7601L66.7408 33.7654ZM58.2184 19.4024V14.5157V14.458H58.2759H65.7433C67.0667 14.458 69.2812 14.458 69.2812 17.0677C69.2812 18.0252 68.8724 18.6997 68.0491 19.0772C67.3193 19.4174 66.3854 19.455 65.7641 19.455H58.2757H58.2181L58.2184 19.4024ZM58.2184 23.7957V23.742H58.2759H66.4346C67.1923 23.742 68.2692 23.8611 69.1353 24.4302C69.9417 24.9555 70.3545 25.733 70.3545 26.7399C70.3545 27.5491 70.1328 28.1726 69.699 28.6081C68.8966 29.4129 67.5026 29.4019 66.4873 29.4019H66.4217H58.2401H58.1906V29.3544L58.2184 23.7957Z" fill="#161519"/>
<path d="M25.7282 10.1256H21V33.7654H25.7282V10.1256Z" fill="#161519"/>
<path d="M29.5781 21.7414C29.5781 24.0237 29.9629 25.9133 30.7623 27.5137C31.4267 28.842 32.3711 29.9616 33.7276 31.0372C35.8495 32.7169 38.8276 33.5723 42.582 33.5723H49.0563V29.0998H42.9402C39.5415 29.0998 37.0716 28.2641 35.6038 26.6095C34.5657 25.4258 34.0297 23.8405 34.0208 21.8943C34.0058 19.7984 34.5945 18.1326 35.7798 16.9451C37.2543 15.4598 39.6647 14.7083 42.9399 14.7083H49.056V10.2826H42.8086C40.7058 10.2826 38.9388 10.4927 37.4134 10.919C35.8831 11.3474 34.6341 11.982 33.5841 12.8721C32.0821 14.1213 29.5781 16.9448 29.5781 21.7414Z" fill="#161519"/>
<path d="M77.7183 21.7414C77.7183 24.0237 78.1211 26.0384 78.9106 27.7248C79.5927 29.1814 80.5902 30.4373 81.8747 31.4576C83.8613 33.0341 86.6815 33.7665 90.7255 33.7665H97.5536V29.3062H91.0911C87.6965 29.3062 85.2175 28.4278 83.7559 26.7077C82.7137 25.4892 82.1909 23.8748 82.1659 21.8943C82.15 19.7399 82.7635 18.0255 83.9875 16.7941C85.4739 15.2991 87.8563 14.5377 91.0909 14.5377H97.5533V10.1259H90.951C88.8479 10.1259 87.0838 10.3201 85.5576 10.7545C84.0263 11.1779 82.7735 11.8215 81.7292 12.7029C80.5162 13.7106 77.7183 16.6175 77.7183 21.7414Z" fill="#161519"/>
<path d="M132.231 13.5203V10.1393H121.231V13.5203V16.8949V20.2797H124.621H127.977V23.6645H124.621H121.231V27.0375V30.4263V33.3507V33.7979H132.231V30.4263H124.621V27.0377H131.393V26.5894V23.6648V20.28V16.8952H127.966H124.621V13.5206L132.231 13.5203ZM110.993 21.9874C110.993 9.84393 120.858 0 133.045 0C145.224 0 155.1 9.84393 155.1 21.9874C155.1 34.1343 145.224 43.9807 133.045 43.9807C120.858 43.9807 110.993 34.1343 110.993 21.9874ZM114.41 21.9874C114.41 11.73 122.748 3.40169 133.045 3.40169C143.332 3.40169 151.681 11.73 151.681 21.9874C151.681 32.2488 143.332 40.571 133.045 40.571C122.748 40.571 114.41 32.2488 114.41 21.9874ZM133.946 30.4343V33.8092H144.94V30.4343V27.0495V23.6648H141.545H138.176V20.2947H141.545H144.94V16.91V13.5292V10.5895V10.1452H133.946V13.5292H141.545V16.91H134.775V17.351V20.2947V23.6648V27.0495H138.206H141.545V30.4343H133.946Z" stroke="#B2292E" stroke-width="0.017"/>
</g>
<defs>
<clipPath id="clip0_46_1358">
<rect width="134" height="44" fill="white" transform="translate(21)"/>
</clipPath>
</defs>
</svg>
