<svg width="176" height="44" viewBox="0 0 176 44" fill="none" xmlns="http://www.w3.org/2000/svg">
<g clip-path="url(#clip0_46_1394)">
<path d="M4.18713 17.2669V19.4813H7.67397V27.8763H10.2626V19.4731H13.8409V17.2669H4.18713Z" fill="#00428A"/>
<path d="M19.7895 15.2705C19.7895 16.0209 19.174 16.6316 18.4131 16.6316C17.6541 16.6316 17.0366 16.023 17.0366 15.2705C17.0366 14.52 17.6521 13.9093 18.4131 13.9093C19.174 13.9114 19.7895 14.52 19.7895 15.2705Z" fill="#00428A"/>
<path d="M23.5944 15.2705C23.5944 16.0209 22.979 16.6316 22.218 16.6316C21.4591 16.6316 20.8416 16.023 20.8416 15.2705C20.8416 14.52 21.457 13.9093 22.218 13.9093C22.979 13.9114 23.5944 14.52 23.5944 15.2705Z" fill="#00428A"/>
<path d="M27.4368 17.269V27.8701H29.8549V24.0766H32.3625L34.5893 27.8721H37.4087L35.0301 23.7847C35.0301 23.7847 37.3609 23.2234 37.3609 20.7211C37.3609 18.2189 35.2567 17.269 33.6183 17.269C31.9799 17.269 27.4368 17.269 27.4368 17.269Z" fill="#00428A"/>
<path d="M39.2675 17.2669V27.8824H41.7272V24.7099L43.6796 22.7793L47.0292 27.8824H49.9671L45.474 20.9267L49.046 17.2669H46.0603L41.7272 21.8211V17.2669H39.2675Z" fill="#00428A"/>
<path d="M53.8262 17.2978H51.302V27.8763H53.8262V17.2978Z" fill="#00428A"/>
<path d="M53.9488 15.2951C53.9488 16.0456 53.3334 16.6563 52.5724 16.6563C51.8134 16.6563 51.1959 16.0477 51.1959 15.2951C51.1959 14.5447 51.8114 13.934 52.5724 13.934C53.3334 13.9361 53.9488 14.5447 53.9488 15.2951Z" fill="#00428A"/>
<path d="M84.9311 6.15794V6.7542C84.9311 6.7542 86.5404 6.82616 86.5404 8.25513C86.5404 9.68411 86.5404 18.1634 86.5404 18.1634L90.6551 20.46V8.19962C90.6551 8.19962 90.5824 6.75214 92.227 6.75214V6.15588L84.9311 6.15794Z" fill="#00428A"/>
<path d="M91.1334 9.6944V10.6525C91.1334 10.6525 94.8655 12.1781 95.1067 16.5576H95.7409V9.70674H95.1774C95.1774 9.70674 94.8073 10.6422 93.8135 10.6422C92.8196 10.6402 91.1334 9.6944 91.1334 9.6944Z" fill="#00428A"/>
<path d="M86.0601 9.32019V10.1591C86.0601 10.1591 82.3342 10.7245 82.3342 14.0307C82.3342 14.0307 82.0389 16.6522 86.5446 18.9138L92.1231 21.9465C92.1231 21.9465 96.1422 23.7456 97.3731 26.949C98.604 30.1523 97.8055 34.4372 93.7178 36.4748C92.0545 37.3136 90.5637 37.4 90.0272 37.4679C90.0272 37.4679 91.3787 38.1361 91.3787 39.7645C91.3787 41.3929 89.5428 43.9116 88.7444 43.928H88.2765C88.2765 43.928 88.2079 43.8417 88.4491 43.5682C88.6924 43.2948 89.8193 41.9583 89.5407 41.1873C89.5407 41.1873 88.8837 41.4751 88.235 41.4751C87.5842 41.4751 86.3283 40.92 86.3283 39.4581C86.3283 37.9963 87.449 37.3959 87.8524 37.3959C87.8524 37.3959 87.2245 37.3301 85.2284 36.6207C83.2324 35.9114 81.6854 35.2247 80.677 36.9312H80.1385V29.6568H80.7893C80.7893 29.6568 82.2697 36.5755 89.5116 36.5755C94.5349 36.5529 95.14 32.451 95.14 31.6965C95.14 30.9419 95.14 28.637 91.3953 26.5295C87.6507 24.4221 84.062 22.4935 84.062 22.4935C84.062 22.4935 79.8682 20.5649 79.8682 15.9963C79.8703 11.4318 84.1077 9.32019 86.0601 9.32019Z" fill="#00428A"/>
<path d="M86.528 24.4837L90.6344 26.7804V31.4744C90.6344 31.4744 90.5824 32.8972 92.2291 32.8972V33.5305H84.9166V32.8458C84.9166 32.8458 86.528 32.8808 86.528 31.3901C86.528 29.8994 86.528 24.4837 86.528 24.4837Z" fill="#00428A"/>
<path d="M54.8117 17.2731H57.7538L60.7478 21.7327L63.8313 17.2895H66.684L61.9413 23.6531V27.8845H59.5003V23.6531L54.8117 17.2731Z" fill="#00428A"/>
<path d="M67.5031 17.2546H76.0965V19.4052H69.9816V21.2372H73.4767V23.2665H69.9816V25.7873H76.346V27.8845H67.4865L67.5031 17.2546Z" fill="#00428A"/>
<path d="M90.8506 2.36449C90.8506 1.12262 89.8318 0.115143 88.5759 0.115143C87.3201 0.115143 86.3013 1.12262 86.3013 2.36449C86.3013 3.60636 87.3201 4.61384 88.5759 4.61384C89.8318 4.61384 90.8506 3.60636 90.8506 2.36449Z" fill="#00428A"/>
<path d="M101.209 17.2813V27.8763H107.197C107.197 27.8763 111.208 27.8639 111.208 24.4652C111.208 22.5346 109.412 22.1604 109.372 22.1604C109.333 22.1604 110.753 21.7101 110.753 19.9583C110.753 18.2065 109.073 17.2936 106.964 17.2936C104.854 17.2936 101.209 17.2813 101.209 17.2813Z" fill="#00428A"/>
<path d="M103.629 23.1123V25.8551H107.262C107.262 25.8551 108.622 25.8037 108.622 24.5105C108.622 23.2172 107.21 23.1144 107.21 23.1144H103.629V23.1123Z" fill="white"/>
<path d="M103.617 21.2454H107.274C107.274 21.2454 108.276 21.2454 108.276 20.2421C108.276 20.2421 108.374 19.2757 107.206 19.2757H103.615L103.617 21.2454Z" fill="white"/>
<path d="M116.25 17.2854H118.708L123.382 27.8865H120.621L119.616 25.5364H115.165L114.177 27.8536H111.545L116.25 17.2854Z" fill="#00428A"/>
<path d="M115.963 23.4845H118.866L117.415 19.872L115.963 23.4845Z" fill="white"/>
<path d="M124.386 17.2587V27.9112H126.817V21.0748L132.131 27.8989H134.366V17.2834H131.859V24.0314L126.679 17.2608L124.386 17.2587Z" fill="#00428A"/>
<path d="M136.618 17.2669H139.113V21.9116L143.509 17.2793H146.544L142.835 20.972L146.729 26.8708L151.017 17.2669H153.406L158.078 27.8763H155.333L154.383 25.5406H149.884L148.906 27.8763H144.405L141.066 22.8122L139.113 24.7839V27.8763H136.618V17.2669Z" fill="#00428A"/>
<path d="M150.713 23.5688H153.616L152.164 19.9563L150.713 23.5688Z" fill="white"/>
<path d="M165.475 20.3264L167.289 18.7905C167.289 18.7905 165.54 17.1045 162.885 17.1045C160.23 17.1045 158.396 18.4286 158.396 20.2852C158.396 22.1419 159.864 22.9108 162.303 23.3796C164.741 23.8505 165.23 24.3172 165.022 25.1294C164.814 25.9415 163.113 26.0237 162.604 25.9826C162.095 25.9415 160.943 25.9189 159.776 24.7449L157.963 26.1965C157.963 26.1965 159.681 28.0757 162.691 28.0757C165.7 28.0757 167.526 26.9222 167.569 24.7243C167.613 22.5264 165.821 21.9486 163.879 21.4798L161.893 21.0748C161.893 21.0748 161.007 20.8609 161.007 20.1578C161.007 19.4525 161.72 19.1976 162.885 19.1976C164.049 19.1955 165.453 20.0488 165.475 20.3264Z" fill="#00428A"/>
<path d="M169.443 17.2854V27.8763H171.904V17.2834L169.443 17.2854Z" fill="#00428A"/>
<path d="M15.2797 17.271H17.7831V23.5503C17.7831 23.5503 17.8517 25.9929 20.2532 25.9929C22.6547 25.9929 22.8085 23.5421 22.8085 23.5421V17.2793H25.287V23.2768C25.287 23.2768 25.4782 28.0264 20.3759 28.0264C15.2735 28.0264 15.2818 23.8237 15.2818 23.285C15.2818 22.7464 15.2797 17.271 15.2797 17.271Z" fill="#00428A"/>
<path d="M29.8612 19.3107V22.1295H33.4312C33.4312 22.1295 34.843 22.0781 34.843 20.6985C34.843 19.3189 33.3709 19.3107 33.3709 19.3107H29.8612Z" fill="white"/>
</g>
<defs>
<clipPath id="clip0_46_1394">
<rect width="168" height="44" fill="white" transform="translate(4)"/>
</clipPath>
</defs>
</svg>
