<svg width="176" height="44" viewBox="0 0 176 44" fill="none" xmlns="http://www.w3.org/2000/svg">
<path fill-rule="evenodd" clip-rule="evenodd" d="M44.2626 44C35.5973 44 30 39.6599 30 29.1238C30 19.9048 36.3306 13.2599 45.6245 13.2599C54.2898 13.2599 59.8871 17.8993 59.8871 28.0612C59.8871 37.3252 53.4218 44 44.2626 44ZM45.0707 19.6653C41.5537 19.6653 38.1116 22.2844 38.1116 28.3605C38.1116 34.4218 40.3864 37.5197 44.951 37.5197C48.8122 37.5197 51.7755 34.4816 51.7755 28.4653C51.7755 22.7633 49.6803 19.6653 45.0707 19.6653ZM82.4857 38.4027H82.351C80.7646 41.6803 77.3823 43.985 72.7129 44C65.2898 44 61.6082 38.5374 61.6082 30.1116C61.6082 20.1293 67.6245 13.2449 77.7415 13.2449C79.0435 13.2449 80.2558 13.3048 81.6027 13.4844V0H89.4898V43.4014H82.4857V38.4027ZM81.6177 19.785C80.2109 19.4707 78.849 19.2912 77.502 19.2912C73.0272 19.3061 69.8245 22.0299 69.8245 29.3184C69.8245 34.8408 71.4857 37.6993 75.0476 37.6993C79.1633 37.6993 81.6177 33.0599 81.6177 28.0313V19.785ZM100.041 29.8571C99.966 35.3796 102.795 38.0435 108.452 38.0435C111.445 38.0435 114.707 37.385 117.341 36.2027L118.06 42.0843C114.827 43.3265 110.966 43.985 107.15 43.985C97.4517 43.985 92.049 39.3007 92.049 28.9143C92.049 19.8898 97.2122 13.2449 106.356 13.2449C115.246 13.2449 119.182 19.1116 119.182 26.415C119.182 27.4177 119.122 28.6 118.928 29.8571H100.041ZM106.117 18.8122C102.854 18.8122 100.595 21.132 100.161 24.6939H111.385C111.505 21.0122 109.424 18.8122 106.117 18.8122ZM139.865 38.3279H139.79C138.324 41.6653 134.582 43.985 130.033 43.985C124.525 43.985 121.322 40.9469 121.322 36.2027C121.322 29.1388 128.566 25.3973 138.922 25.3973V23.7959C138.922 20.7129 137.396 19.0966 132.981 19.0966C130.212 19.0966 126.531 19.9946 123.956 21.4163L123.283 15.0558C126.351 13.9932 130.287 13.2449 134.208 13.2449C144.026 13.2299 146.78 17.0313 146.78 23.4816L146.795 37.5646C146.795 37.5646 146.81 42.7878 146.81 43.3864H139.865V38.3279ZM138.922 30.3061C130.646 30.3211 128.805 32.6258 128.805 35.0054C128.805 36.9061 130.152 38.1483 132.427 38.1483C136.288 38.1483 138.922 34.5864 138.922 31.0245V30.3061Z" fill="#1E1E1B"/>
</svg>
