<svg width="176" height="44" viewBox="0 0 176 44" fill="none" xmlns="http://www.w3.org/2000/svg">
<mask id="mask0_46_1541" style="mask-type:luminance" maskUnits="userSpaceOnUse" x="30" y="0" width="116" height="44">
<path d="M145.935 0H30V44H145.935V0Z" fill="white"/>
</mask>
<g mask="url(#mask0_46_1541)">
<path d="M123.624 0H52.3112C39.9891 0 30 9.74853 30 21.774V22.2261C30 34.2515 39.9891 44 52.3112 44H123.624C135.946 44 145.935 34.2515 145.935 22.2261V21.774C145.935 9.74853 135.946 0 123.624 0Z" fill="#00FF00"/>
<path d="M81.204 4.50957H52.5476C42.6651 4.50957 34.6255 12.3556 34.6255 22.0001C34.6255 31.6447 42.6651 39.4907 52.5476 39.4907C52.9451 39.4907 62.7054 39.4775 63.104 39.4521H80.0033C80.4032 39.4775 80.8064 39.4907 81.204 39.4907C91.0865 39.4907 99.1261 31.6447 99.1261 22.0001C99.1261 12.3556 91.0865 4.50957 81.204 4.50957Z" fill="white"/>
<path d="M112.154 9.43984L120.011 20.9403C120.229 21.2586 120.737 21.1083 120.737 20.7259V10.2335C120.737 9.44757 121.391 8.80976 122.196 8.80976H128.29C129.095 8.80976 129.749 9.44757 129.749 10.2335V33.7695C129.749 34.5554 129.095 35.1932 128.29 35.1932H121.518C121.03 35.1932 120.574 34.9555 120.305 34.5598L112.452 23.0649C112.234 22.7465 111.726 22.8968 111.726 23.2793V33.7695C111.726 34.5554 111.072 35.1932 110.267 35.1932H104.173C103.368 35.1932 102.714 34.5554 102.714 33.7695V10.2302C102.714 9.44426 103.368 8.80645 104.173 8.80645H110.941C111.429 8.80645 111.884 9.0441 112.154 9.43984Z" fill="#2D2A26"/>
<path d="M81.1998 8.01797C73.287 8.01797 66.8716 14.2789 66.8716 22.0011C66.8716 29.7234 73.287 35.9843 81.1998 35.9843C89.1127 35.9843 95.528 29.7234 95.528 22.0011C95.528 14.2789 89.1127 8.01797 81.1998 8.01797Z" fill="#2D2A26"/>
</g>
</svg>
