<svg width="176" height="44" viewBox="0 0 176 44" fill="none" xmlns="http://www.w3.org/2000/svg">
<path d="M147.39 19.513H175.662C175.745 20.1824 175.788 20.8648 175.788 21.5571C175.788 30.5889 168.479 37.9101 159.463 37.9101C158.772 37.9101 158.092 37.867 157.423 37.7836V29.7336H145.323C144.592 28.4682 144.026 27.0958 143.654 25.6453H161.504V33.6524C166.63 32.7906 170.677 28.7374 171.537 23.6012H143.265C143.182 22.9314 143.139 22.2494 143.139 21.5571C143.139 12.5253 150.448 5.2041 159.463 5.2041C160.155 5.2041 160.835 5.24713 161.504 5.33053V13.3806H173.604C174.335 14.646 174.901 16.0184 175.273 17.4688H157.423V9.46181C152.296 10.3236 148.25 14.3771 147.39 19.513Z" fill="#0D6928"/>
<path fill-rule="evenodd" clip-rule="evenodd" d="M56.6126 19.3702C56.6342 18.3614 56.3936 17.572 55.89 17.002C55.3863 16.4098 54.6861 16.114 53.7882 16.114C52.9132 16.114 52.1905 16.4095 51.6215 17.002C51.0524 17.5941 50.7134 18.3835 50.6035 19.3702H56.6126ZM60.7822 20.3237C60.7822 20.9817 60.7381 21.6176 60.6503 22.2315H50.5377C50.5161 25.2581 52.0157 26.7706 55.0362 26.7706C56.7437 26.7706 58.33 26.4309 59.7969 25.7512L60.1907 29.0074C58.4178 29.7092 56.47 30.0592 54.3466 30.0592C48.9621 30.0592 46.2696 27.2748 46.2696 21.7052C46.2696 19.1394 46.9482 17.0564 48.3052 15.4556C49.6623 13.833 51.5337 13.0215 53.9197 13.0215C56.196 13.0215 57.9362 13.7344 59.1401 15.1597C60.2345 16.4536 60.7822 18.1752 60.7822 20.3237Z" fill="#0D6928"/>
<path fill-rule="evenodd" clip-rule="evenodd" d="M83.8306 21.1462C83.8306 18.0762 82.9004 16.5412 81.0397 16.5412C79.989 16.5412 79.1353 17.0671 78.4792 18.1196C77.8443 19.1504 77.5269 20.3781 77.5269 21.8035V26.4081C78.118 26.6057 78.8509 26.7043 79.7268 26.7043C82.4625 26.7047 83.8306 24.8517 83.8306 21.1462ZM88.2303 20.7186C88.2303 23.5251 87.4643 25.7725 85.9316 27.4614C84.3339 29.1932 82.1562 30.0592 79.3983 30.0592C77.2312 30.0592 75.2066 29.7964 73.3238 29.2701V5.7197H77.5266V12.7588C77.5266 13.9647 77.4387 15.0283 77.2643 15.9491H77.297C78.1948 14.0192 79.8358 13.0546 82.2223 13.0546C84.1701 13.0546 85.6587 13.7233 86.6877 15.0607C87.7155 16.3992 88.2303 18.2845 88.2303 20.7186Z" fill="#0D6928"/>
<path fill-rule="evenodd" clip-rule="evenodd" d="M98.7693 22.8895V22.495C95.1577 22.495 93.3517 23.3605 93.3517 25.0932C93.3517 26.2554 93.9976 26.8361 95.2892 26.8361C96.2962 26.8361 97.139 26.4195 97.8171 25.5863C98.4519 24.819 98.7693 23.9196 98.7693 22.8895ZM103.071 29.7305H99.0978C99.0978 28.5908 99.1525 27.6697 99.262 26.9678L99.2289 26.9351C98.8351 27.8783 98.1672 28.6346 97.2264 29.2046C96.2852 29.7743 95.2125 30.0592 94.0086 30.0592C92.5421 30.0592 91.3929 29.6757 90.5612 28.9084C89.7511 28.1411 89.3463 27.0886 89.3463 25.7508C89.3463 23.843 90.2214 22.3522 91.973 21.2776C93.6585 20.2688 95.9237 19.7643 98.7693 19.7643V18.8763C98.7693 17.1436 97.7076 16.2777 95.5846 16.2777C93.855 16.2777 92.2467 16.7053 90.7581 17.5606L90.397 14.0413C92.279 13.3612 94.2276 13.0215 96.2411 13.0215C98.7367 13.0215 100.521 13.5261 101.593 14.5348C102.512 15.4114 102.972 16.8043 102.972 18.7121V25.5204C102.972 26.9675 103.005 28.3715 103.071 29.7305Z" fill="#0D6928"/>
<path fill-rule="evenodd" clip-rule="evenodd" d="M71.912 13.0219L71.7151 17.1665C71.343 17.1006 71.0039 17.0675 70.6971 17.0675C68.3555 17.0675 67.184 19.0629 67.184 23.054V29.7305H62.9813V13.3836H66.954C66.954 14.4145 66.8559 15.5108 66.659 16.673H66.7248C67.7314 14.0417 69.4606 12.8246 71.912 13.0219Z" fill="#0D6928"/>
<path fill-rule="evenodd" clip-rule="evenodd" d="M116.269 29.7305V19.2712C116.269 17.4513 115.601 16.5416 114.266 16.5416C113.215 16.5416 112.318 17.0675 111.574 18.12C110.83 19.1508 110.458 20.3896 110.458 21.837V29.7305H106.255V13.3836H110.228C110.228 14.5241 110.151 15.4887 109.998 16.2781L110.031 16.3112C111.147 14.1186 112.996 13.0219 115.58 13.0219C118.819 13.0219 120.439 14.7656 120.439 18.2514V29.7305H116.269Z" fill="#0D6928"/>
<path fill-rule="evenodd" clip-rule="evenodd" d="M138.201 29.7305H132.948L127.892 21.6397V29.7305H123.689V5.72009H127.892V20.1923L132.653 13.3836H137.774L132.062 20.8503L138.201 29.7305Z" fill="#0D6928"/>
<path fill-rule="evenodd" clip-rule="evenodd" d="M25.6518 19.3702C25.6735 18.3614 25.4328 17.572 24.9295 17.0016C24.4262 16.4095 23.7257 16.1136 22.8282 16.1136C21.9531 16.1136 21.2305 16.4091 20.6614 17.0016C20.0924 17.5937 19.7533 18.3831 19.6435 19.3702H25.6518ZM29.8214 20.3237C29.8214 20.9817 29.7773 21.6176 29.6895 22.2315H19.5773C19.5556 25.2581 21.0553 26.7706 24.0754 26.7706C25.7826 26.7706 27.3692 26.4309 28.8361 25.7512L29.2299 29.0074C27.457 29.7092 25.5092 30.0595 23.3862 30.0595C18.0017 30.0595 15.3096 27.2751 15.3096 21.7056C15.3096 19.1402 15.9878 17.0568 17.3452 15.4563C18.7023 13.8337 20.5733 13.0223 22.9597 13.0223C25.2355 13.0223 26.9762 13.7347 28.1796 15.1604C29.274 16.4536 29.8214 18.1752 29.8214 20.3237Z" fill="#0D6928"/>
<path fill-rule="evenodd" clip-rule="evenodd" d="M8.97284 31.4057C9.3887 32.195 9.59663 32.9407 9.59663 33.6421C9.59663 35.3968 8.31598 36.8218 5.75504 37.9181L3.78521 36.3065C5.05446 35.4513 5.68928 34.4646 5.68928 33.3458C5.68928 32.732 5.5034 32.085 5.13125 31.4057H8.97284Z" fill="#0D6928"/>
<path fill-rule="evenodd" clip-rule="evenodd" d="M13.9594 22.8541C13.9594 24.9812 13.1824 26.7135 11.6284 28.0512C10.0087 29.4107 7.86362 30.09 5.19359 30.09C3.50848 30.09 1.99784 29.9148 0.662829 29.5645L0.925116 25.5848C2.45742 26.1114 4.00074 26.3742 5.55471 26.3742C8.11565 26.3742 9.39631 25.3986 9.39631 23.4466C9.39631 22.3286 8.59727 21.4074 6.99959 20.6839C4.19765 19.4558 2.69804 18.7761 2.50151 18.6447C0.90383 17.5267 0.104797 15.9255 0.104797 13.8429C0.104797 11.8475 0.848711 10.2352 2.3373 9.00751C3.84755 7.77943 5.91622 7.16559 8.54291 7.16559C9.70269 7.16559 11.0377 7.29697 12.5483 7.5601L12.3184 11.3098C10.9617 10.9153 9.63693 10.7181 8.34563 10.7181C7.14176 10.7181 6.2226 10.9701 5.58779 11.4743C4.95297 11.9564 4.63594 12.6034 4.63594 13.4149C4.63594 14.4674 5.44562 15.355 7.06573 16.0789C9.82357 17.3508 11.3122 18.0633 11.5304 18.2171C13.1497 19.3351 13.9594 20.8808 13.9594 22.8541Z" fill="#0D6928"/>
<path fill-rule="evenodd" clip-rule="evenodd" d="M46.5323 29.7305H41.2797L36.2236 21.6397V29.7305H32.0209V5.7197H36.2236V20.1923L40.9843 13.3836H46.1054L40.3932 20.8503L46.5323 29.7305Z" fill="#0D6928"/>
</svg>
