<svg width="176" height="44" viewBox="0 0 176 44" fill="none" xmlns="http://www.w3.org/2000/svg">
<g clip-path="url(#clip0_46_1424)">
<path fill-rule="evenodd" clip-rule="evenodd" d="M39.437 0.334717H83.9691V43.7695H39.437V0.334717Z" fill="#00A76D"/>
<path fill-rule="evenodd" clip-rule="evenodd" d="M121.207 15.488C121.329 16.9028 121.424 20.4417 121.424 21.7402C121.424 22.9224 121.406 26.9133 121.184 28.6335L121.166 28.7765H128.606C132.235 28.7765 136.117 27.8096 136.117 25.0947C136.117 23.3897 134.647 22.1325 131.895 21.4395C133.91 20.9969 135.289 19.8152 135.289 18.4617C135.289 16.247 132.245 15.4063 129.406 15.355C129.398 15.355 121.194 15.3497 121.194 15.3497L121.207 15.488ZM126.955 16.8515C130.063 16.8578 131.217 17.3968 131.217 18.8168C131.217 19.194 131.077 19.5297 130.799 19.8047C130.204 20.4066 129.023 20.7161 127.547 20.6507H127.48L126.623 22.5395H127.49C129.202 22.4934 130.69 22.9418 131.447 23.7254C131.801 24.0921 131.98 24.4991 131.98 24.9475C131.98 26.4335 130.424 27.1978 127.365 27.1978C126.849 27.1978 126.018 27.1978 125.486 27.1669C125.375 25.2015 125.371 22.5343 125.371 21.7397C125.371 20.8031 125.415 18.721 125.493 16.9332C125.835 16.8819 126.419 16.8473 126.955 16.8515Z" fill="black"/>
<path fill-rule="evenodd" clip-rule="evenodd" d="M119.664 28.7661V26.8311C116.683 26.9741 113.672 26.9945 110.659 27.0301C110.591 25.6551 110.563 23.9748 110.554 22.8093L116.45 22.9161V20.8843L110.554 21.0016C110.571 19.9372 110.586 18.4355 110.644 17.1521C111.512 17.137 111.949 17.1212 112.57 17.1212C114.797 17.1212 117.022 17.0804 119.252 17.2889V15.3387H110.158V15.344H106.376L106.394 15.477C106.514 16.8976 106.608 20.4359 106.608 21.7287C106.608 22.9156 106.587 26.9018 106.369 28.6231L106.353 28.765H119.664V28.7661Z" fill="black"/>
<path fill-rule="evenodd" clip-rule="evenodd" d="M99.4678 28.7556L99.4522 28.6126C99.232 26.8871 99.2143 22.9051 99.2143 21.7187C99.2143 20.7769 99.2637 18.6597 99.3367 17.0249C101.741 17.0657 102.419 17.1013 104.525 17.2894V15.3288H89.9558V17.2894C92.0589 17.1013 92.7405 17.0657 95.1476 17.0249C95.2174 18.6597 95.2668 20.7769 95.2668 21.7187C95.2668 22.9046 95.2491 26.8866 95.0289 28.6126L95.0144 28.7556H99.4678Z" fill="black"/>
<path fill-rule="evenodd" clip-rule="evenodd" d="M74.1944 11.7632C71.4355 13.3393 70.5902 13.4651 67.6138 15.2099C69.3453 13.3708 69.9484 12.594 71.0316 11.0492C68.2727 11.1901 64.2705 11.516 61.4026 12.1314C63.8994 10.8423 68.8372 9.39034 71.4387 9.05248C70.8335 8.24005 65.9472 5.65557 64.7302 5.16424C68.5971 5.45653 73.3282 6.85824 75.6171 8.23377C76.5377 7.96034 77.4625 7.94043 79.1328 7.79586C78.708 8.514 78.6994 8.92886 77.0506 9.98905C77.5065 11.1802 76.4211 17.7252 75.5226 19.469C75.4829 16.7237 75.231 13.2608 74.1944 11.7632Z" fill="white"/>
<path fill-rule="evenodd" clip-rule="evenodd" d="M54.063 35.2466C52.476 34.6746 51.3363 34.0073 50.0871 32.8664C50.4598 31.8628 50.8884 31.0645 51.5919 30.0651C50.2998 30.2448 49.3653 30.382 48.2557 30.5947C47.3475 29.05 46.9463 27.5749 46.4844 25.5137C46.2341 27.6949 46.1477 29.2558 46.4667 30.9985C45.4516 31.2672 44.7304 31.5113 43.8958 31.8743C45.0623 32.5778 46.0097 33.1215 47.3239 33.7087C48.0215 35.178 48.7498 36.179 49.9249 37.3005C49.6461 36.3435 49.5801 35.573 49.6827 34.5636C51.1499 34.9831 52.3997 35.1948 54.063 35.2466Z" fill="white"/>
<path fill-rule="evenodd" clip-rule="evenodd" d="M58.1785 13.4724C57.6785 14.0926 57.1055 15.2528 56.9589 15.7965C61.0229 16.3413 64.2963 18.3747 64.2963 18.3747H64.3006C60.7216 17.7608 58.8552 17.8352 57.5292 17.951C56.2032 18.0788 55.9363 18.2312 55.9363 18.2312C54.9781 20.2693 54.4029 23.8019 54.4029 23.8035C53.7547 22.2813 52.8181 19.2301 52.8181 19.2301C51.021 20.1709 46.8931 23.957 46.8931 23.957H46.891C49.1606 19.5234 51.462 17.4895 51.462 17.4895H51.4641C50.6725 16.7158 48.594 16.3308 47.08 16.2627C47.8684 15.9458 49.8943 15.576 51.4464 15.51C53.0007 15.4629 53.9411 15.5571 53.9411 15.5571H53.9454C55.3348 14.4844 57.439 13.5803 58.1785 13.4724Z" fill="white"/>
<path fill-rule="evenodd" clip-rule="evenodd" d="M62.4896 32.5008C61.7667 33.4458 61.1555 34.1953 60.3547 35.068C58.9836 35.4315 57.8928 35.5688 56.5577 35.5745C57.3778 35.9852 58.1737 36.2392 59.0244 36.4058C58.1737 37.1638 57.4438 37.7022 56.6162 38.2172C58.0061 37.894 59.8483 37.3131 61.2049 36.5347C61.9112 36.5561 62.5771 36.5132 63.0642 36.4262C62.9498 36.0156 62.8639 35.7181 62.7554 35.1901C64.0417 34.2194 64.98 33.3441 66.0348 32.2929C64.9037 33.0644 63.9192 33.6443 62.6212 34.2472C62.5594 33.6574 62.5186 33.1619 62.4896 32.5008Z" fill="white"/>
</g>
<defs>
<clipPath id="clip0_46_1424">
<rect width="97.2093" height="44" fill="white" transform="translate(39)"/>
</clipPath>
</defs>
</svg>
