<svg width="176" height="44" viewBox="0 0 176 44" fill="none" xmlns="http://www.w3.org/2000/svg">
<path d="M151.853 29.3996C151.691 29.558 151.529 29.558 151.529 29.7164L151.367 29.8748L151.204 30.0331C150.88 30.5083 150.718 30.9834 150.556 31.6169C150.556 32.2505 150.556 32.7256 150.718 33.5175C150.88 34.151 151.204 34.7845 151.529 35.418C151.853 36.0516 152.339 36.6851 152.987 37.3186L157.201 41.7532L160.28 39.3775C160.766 39.0608 161.09 38.5856 161.252 37.9521C161.414 37.3186 161.414 36.6851 161.414 35.8932C161.252 35.1013 161.09 34.3094 160.604 33.6759C160.118 32.884 159.632 32.0921 158.983 31.4586L158.821 31.3002L158.659 31.1418L158.497 30.9834L158.335 30.825L155.742 33.3591L151.853 29.3996Z" fill="#00C4B3"/>
<path d="M148.936 2L146.181 8.49355C145.856 9.28545 145.694 10.2357 145.694 11.0276C145.694 11.9779 145.694 12.7698 146.018 13.7201C146.181 14.512 146.505 15.4622 146.991 16.2541C147.477 17.046 147.963 17.8379 148.611 18.4715L148.774 18.6298L148.936 18.7882L149.098 18.9466L149.26 19.105L151.529 15.1455L155.742 19.105L155.904 18.9466L156.066 18.7882L156.228 18.6298L156.39 18.4715C156.877 17.6796 157.201 16.8877 157.363 15.9374C157.525 14.9871 157.525 13.8785 157.363 12.9282C157.201 11.8195 156.877 10.8692 156.39 9.91897C155.904 8.96869 155.256 8.01842 154.446 7.22652L148.936 2Z" fill="#00C4B3"/>
<path d="M143.912 18.3131C143.588 18.3131 143.425 18.3131 143.101 18.4715C142.939 18.4715 142.615 18.6298 142.453 18.7882C142.291 18.9466 142.129 19.105 141.967 19.2633C141.805 19.4217 141.643 19.7385 141.643 19.8969L140.184 23.5396L143.75 27.3407C144.074 27.6575 144.236 27.8158 144.56 28.1326C144.884 28.291 145.046 28.6077 145.37 28.7661C145.694 28.9245 145.856 29.0829 146.181 29.2413C146.505 29.3996 146.667 29.3996 146.991 29.3996C147.315 29.3996 147.477 29.3996 147.801 29.3996C147.963 29.3996 148.287 29.3996 148.449 29.2413C148.611 29.2413 148.936 29.0829 149.098 28.9245C149.26 28.7661 149.422 28.6077 149.584 28.4494C149.584 28.4494 149.584 28.291 149.746 28.291C149.746 28.291 149.746 28.1326 149.908 28.1326C149.908 28.1326 149.908 27.9742 150.07 27.9742V27.8158L146.667 24.1731L148.449 21.0055L148.287 20.8471L148.125 20.6888L147.963 20.5304L147.801 20.372C147.477 20.0552 147.153 19.7385 146.829 19.5801C146.505 19.4217 146.181 19.105 145.856 18.9466C145.532 18.7882 145.208 18.6298 144.884 18.6298C144.56 18.3131 144.236 18.3131 143.912 18.3131Z" fill="#00C4B3"/>
<path d="M163.359 18.3131C162.873 18.3131 162.387 18.3131 161.901 18.4715C161.414 18.6298 161.09 18.6298 160.604 18.9466C160.28 19.105 159.794 19.4217 159.47 19.5801C159.146 19.8969 158.821 20.2136 158.497 20.5304L158.335 20.6888C158.335 20.6888 158.173 20.8471 158.173 21.0055C158.173 21.1639 158.011 21.1639 158.011 21.3223C158.011 21.4807 157.849 21.4807 157.849 21.639L162.225 25.9153L158.983 29.2413C158.983 29.3996 159.146 29.3996 159.146 29.558C159.146 29.7164 159.308 29.7164 159.308 29.8748C159.308 30.0331 159.47 30.0331 159.47 30.1915C159.47 30.3499 159.632 30.3499 159.632 30.5083C159.956 30.825 160.442 31.1418 160.766 31.4586C161.252 31.7753 161.576 32.0921 162.063 32.2505C162.549 32.4088 163.035 32.7256 163.359 32.884C163.845 33.0424 164.332 33.2007 164.818 33.2007C165.304 33.2007 165.79 33.3591 166.114 33.3591C166.6 33.3591 167.087 33.3591 167.411 33.2007C167.897 33.2007 168.221 33.0424 168.707 32.884C169.193 32.7256 169.518 32.5672 169.842 32.2505L176 27.6575L169.031 21.3223C168.545 20.8471 168.059 20.5304 167.573 20.2136C167.087 19.8969 166.438 19.5801 165.952 19.4217C165.466 19.2633 164.818 19.105 164.332 18.9466C164.332 18.3131 163.845 18.3131 163.359 18.3131Z" fill="#00C4B3"/>
<path d="M11.5064 19.7385H7.45488L5.02394 31.3002H1.78269L4.05157 19.7385H0L0.64825 16.7293H11.9926L11.5064 19.7385Z" fill="#231F20"/>
<path d="M9.56171 28.6077C9.56171 28.1326 9.56171 27.6575 9.72377 27.1823L10.8582 21.7974H14.2615L13.2891 26.5488C13.2891 26.8656 13.1271 27.1823 13.1271 27.4991C13.1271 28.6077 13.7753 28.9245 14.4236 28.9245C15.558 28.9245 16.3683 28.1326 16.6925 26.3904L17.6648 21.7974H20.9061L19.1234 31.3002H15.8821L16.2063 29.7164C15.396 30.9834 14.4236 31.6169 12.965 31.6169C11.1823 31.6169 9.56171 30.825 9.56171 28.6077ZM13.2891 16.8877H16.0442L15.396 19.7385H12.6409L13.2891 16.8877ZM17.3407 16.8877H20.0958L19.4475 19.7385H16.6925L17.3407 16.8877Z" fill="#231F20"/>
<path d="M23.175 21.639H26.4162L25.93 23.5396C26.5783 21.7974 28.1989 21.3223 29.4954 21.3223C29.8195 21.3223 29.8195 21.3223 29.9816 21.3223L29.3334 24.6483C29.1713 24.6483 29.1713 24.6483 28.8472 24.6483C26.9024 24.6483 25.768 25.4401 25.2818 27.6575L24.4715 31.3002H21.2302L23.175 21.639Z" fill="#231F20"/>
<path d="M36.6261 26.3904L40.0294 31.4586H35.9779L33.3849 27.0239L32.5746 31.3002H29.3333L32.2504 16.7293H35.4917L33.709 25.4401L37.4364 21.639H41.8121L36.6261 26.3904Z" fill="#231F20"/>
<path d="M42.2983 21.639H45.5396L43.5948 31.3002H40.3536L42.2983 21.639ZM46.0258 19.8969H42.4604L43.1086 16.7293H46.674L46.0258 19.8969Z" fill="#231F20"/>
<path d="M58.0184 21.639L48.9429 35.418H45.3776L48.9429 30.0331L46.3499 21.4807H49.9153L51.2118 26.7072L54.6151 21.4807L58.0184 21.639Z" fill="#231F20"/>
<path d="M67.418 27.3407H60.2873C60.4493 28.4494 61.0976 29.0829 62.5561 29.0829C63.8526 29.0829 64.9871 28.6077 65.6353 28.291L66.6077 30.825C65.3112 31.4586 64.0147 31.9337 62.232 31.9337C59.1528 31.9337 57.046 30.1915 57.046 27.3407C57.046 24.6482 58.8287 21.7974 63.0423 21.7974C65.9595 21.7974 67.7422 23.2228 67.7422 25.7569C67.7422 25.9153 67.7421 26.5488 67.418 27.3407ZM64.5009 25.1234C64.5009 24.1731 63.8526 23.698 62.8803 23.698C61.7458 23.698 60.7735 24.3315 60.4493 25.4401H64.5009C64.5009 25.2818 64.5009 25.1234 64.5009 25.1234Z" fill="#231F20"/>
<path d="M79.7348 19.7385L79.0866 22.7477H84.5967L83.9484 25.7569H78.6004L77.4659 31.3002H74.0626L76.9797 16.7293H86.7035L86.0553 19.7385H79.7348Z" fill="#231F20"/>
<path d="M87.3517 21.639H90.593L88.6482 31.3002H85.407L87.3517 21.639ZM91.0792 19.8969H87.5138L88.162 16.7293H91.7274L91.0792 19.8969Z" fill="#231F20"/>
<path d="M92.6998 21.639H95.9411L95.6169 23.0645C96.5893 21.9558 97.5617 21.3223 99.0202 21.3223C100.965 21.3223 102.261 22.2726 102.261 24.4899C102.261 24.965 102.262 25.5985 102.099 26.3904L101.127 31.3002H97.8858L98.8582 26.5488C99.0202 26.232 99.0202 25.7569 99.0202 25.4401C99.0202 24.3315 98.372 24.0147 97.3996 24.0147C96.2652 24.0147 95.4549 24.6483 95.1307 26.5488L94.1584 31.3002H90.9171L92.6998 21.639Z" fill="#231F20"/>
<path d="M102.91 27.1823C102.91 23.8563 105.179 21.4807 108.258 21.4807C109.878 21.4807 111.175 22.1142 111.823 23.5396L112.147 21.7974H115.389L113.444 31.3002H110.203L110.527 30.0331C109.716 30.9834 108.582 31.6169 107.285 31.6169C104.53 31.6169 102.91 29.8748 102.91 27.1823ZM111.013 26.3904C111.013 25.1234 110.041 24.3315 108.744 24.3315C107.285 24.3315 106.313 25.4401 106.313 26.8656C106.313 28.1326 107.285 28.9245 108.582 28.9245C110.041 28.7661 111.013 27.6575 111.013 26.3904Z" fill="#231F20"/>
<path d="M117.009 21.639H120.25L119.926 23.0645C120.899 21.9558 121.871 21.3223 123.33 21.3223C125.274 21.3223 126.571 22.2726 126.571 24.4899C126.571 24.965 126.571 25.5985 126.409 26.3904L125.274 31.3002H122.033L123.006 26.5488C123.168 26.232 123.168 25.7569 123.168 25.4401C123.168 24.3315 122.519 24.0147 121.547 24.0147C120.413 24.0147 119.602 24.6483 119.278 26.5488L118.306 31.3002H115.064L117.009 21.639Z" fill="#231F20"/>
<path d="M131.271 29.0829C131.757 29.0829 131.919 28.9245 131.919 28.6077C131.919 28.291 131.757 28.291 131.271 27.9742L129.812 27.1823C128.516 26.5488 127.867 25.7569 127.867 24.3315C127.867 22.4309 129.164 21.1639 131.757 21.1639C133.215 21.1639 134.674 21.4807 136.133 22.2726L134.998 24.6483C133.864 24.1731 132.729 23.8564 131.919 23.8564C131.433 23.8564 131.271 24.0147 131.271 24.1731C131.271 24.4899 131.433 24.4899 131.919 24.8066L133.215 25.4402C134.512 26.0737 135.16 26.7072 135.16 28.1326C135.16 30.3499 133.54 31.4586 131.109 31.4586C129.164 31.4586 127.705 30.9834 126.247 29.8748L127.867 27.4991C129.164 28.6077 130.46 29.0829 131.271 29.0829Z" fill="#231F20"/>
</svg>
