<svg width="176" height="44" viewBox="0 0 176 44" fill="none" xmlns="http://www.w3.org/2000/svg">
<path d="M30.6404 17.5709C31.0164 15.3796 28.9956 12.3665 23.3563 12.3665H9.4459C5.63934 12.3665 3.24262 14.9231 2.81967 17.4796L0 31.9057C2.49071 31.9057 18.8448 31.9057 18.7978 31.9057H19.8787C25.753 31.86 29.0896 30.5818 29.7005 26.4731C30.1235 23.6883 27.5858 21.9078 25.565 21.5426C27.6328 21.1774 30.1235 20.4926 30.6404 17.5709Z" fill="#FBC34E"/>
<path d="M17.576 18.4383C16.1661 20.1731 10.9967 26.2448 9.96284 27.3861C7.61311 29.9426 2.81967 29.5774 2.77268 29.5317C2.77268 29.5317 4.51148 21.5883 5.07541 19.3057C6.62623 13.1883 11.9366 14.6491 11.9366 14.6491C11.9366 14.6491 10.5268 14.8317 9.53989 16.0644C8.50601 17.3426 7.37814 23.4144 6.72022 26.2904C9.77486 22.8209 13.9574 18.3926 14.6623 17.5252C17.7169 13.9644 22.4634 14.4665 22.4634 14.4665C22.4634 14.4665 20.5836 14.7404 17.576 18.4383Z" fill="white"/>
<path d="M48.3104 31.9057L59.3071 12.3665H55.4536L47.3705 27.7057L45.3027 12.3665H40.9792L44.6918 31.9057H48.3104ZM65.3694 24.2361L64.1945 30.3991C63.4896 30.4448 63.0667 30.4448 61.7978 30.4448C59.918 30.3991 58.3202 29.6687 58.6022 27.8426C58.9781 25.2405 61.5158 24.51 65.3694 24.2361ZM69.4579 22.4557C70.1628 18.8491 67.2492 17.4796 63.7716 17.4796C61.4689 17.4796 60.2 17.7535 58.8372 18.3013L57.7093 20.447C59.4011 19.7622 61.1869 19.5796 62.6907 19.5796C64.7585 19.5796 66.1683 20.1731 65.7924 21.9991L65.6514 22.7296C59.965 23.0491 55.4066 24.2818 54.7956 27.797C54.3727 30.3078 57.0984 32.1339 61.6568 32.1339C64.0066 32.1339 66.0743 32.0426 67.6251 31.9057L69.4579 22.4557ZM79.7027 24.2817L87.0809 17.8448H82.9924L76.0372 24.2817L78.3399 12.3665H74.4863L70.6798 31.9057H74.5333L75.9432 24.647L80.5486 31.86H85.0601L79.7027 24.2817ZM90.2295 31.9057L92.9552 17.8904H89.3366L86.6109 31.9057H90.2295ZM106.913 12.96C107.383 12.5035 108.134 12.3209 108.134 12.3209C103.623 11.3165 98.7355 12.6861 97.9836 16.2013L97.6546 17.8904H95.1639L94.788 19.8991H97.2787L94.976 31.9057H98.7825L101.085 19.8991H103.999L104.422 17.8904H101.508L101.696 16.8405C102.025 15.06 102.683 13.3709 106.349 13.9187C106.349 13.8731 106.443 13.3709 106.913 12.96ZM118.567 17.5252C118.191 19.5339 116.546 20.7209 112.317 20.6296C111.095 20.5839 110.813 20.5383 110.813 20.5383L111.988 14.4209C112.787 14.147 113.539 13.9644 114.62 13.9644C117.533 13.9187 119.037 15.1513 118.567 17.5252ZM110.531 22.3644L111.706 22.3187C116.452 22.1818 117.862 24.0535 117.345 26.5187C116.828 28.8926 114.714 29.897 111.847 29.897C110.672 29.897 110.061 29.897 109.027 29.8513L110.531 22.3644ZM122.703 17.3426C123.126 15.1057 120.87 12.0013 115.09 12.0013C112.223 12.0013 108.275 12.6405 107.899 14.7861L104.61 31.9513C106.584 32.1796 108.557 32.1796 111.565 32.1339C117.58 32.0883 121.058 30.7644 121.716 26.5644C122.139 23.6883 119.554 21.8622 117.439 21.4513C119.554 21.0404 122.139 20.31 122.703 17.3426ZM133.417 24.2361L132.243 30.3991C131.538 30.4448 131.115 30.4448 129.846 30.4448C127.966 30.3991 126.368 29.6687 126.65 27.8426C127.026 25.2405 129.564 24.51 133.417 24.2361ZM137.506 22.4557C138.211 18.8491 135.344 17.4796 131.82 17.4796C129.517 17.4796 128.248 17.7535 126.885 18.3013L125.757 20.4926C127.449 19.8078 129.235 19.6252 130.739 19.6252C132.807 19.6252 134.216 20.2187 133.84 22.0448L133.699 22.7752C128.013 23.0948 123.455 24.3274 122.844 27.8426C122.421 30.3535 125.146 32.1796 129.705 32.1796C132.055 32.1796 134.122 32.0883 135.673 31.9513L137.506 22.4557ZM154.283 21.9078C154.706 19.6252 153.39 17.6165 148.08 17.6165C145.072 17.6165 142.863 18.0731 141.078 18.7122L138.493 31.9057H142.393L144.649 20.1274C145.448 19.8535 146.2 19.6252 147.516 19.6252C150.054 19.6252 150.664 20.7665 150.477 21.9535L148.55 31.9513H152.309L154.283 21.9078ZM160.58 24.2361H160.533L162.836 12.4122H158.982L155.176 31.9057H159.029L160.392 24.7839H160.439L164.998 31.9513H169.509L164.152 24.3274L171.53 17.8904H167.442L160.58 24.2361Z" fill="black"/>
</svg>
