<svg width="176" height="44" viewBox="0 0 176 44" fill="none" xmlns="http://www.w3.org/2000/svg">
<g clip-path="url(#clip0_46_1652)">
<path d="M18.5148 18.5535L12.0891 12.1453C11.4792 11.537 11.4792 10.5378 12.0891 9.92956L18.5148 3.52135C19.1247 2.91311 20.1049 2.91311 20.7366 3.52135L27.1623 9.92956C27.7722 10.5378 27.7722 11.537 27.1623 12.1453L20.7366 18.5535C20.1049 19.1617 19.1247 19.1617 18.5148 18.5535ZM16.8812 10.6247C16.6633 10.8419 16.6633 11.2112 16.8812 11.4284L19.2119 13.7528C19.4297 13.97 19.8 13.97 20.0178 13.7528L22.3485 11.4284C22.5663 11.2112 22.5663 10.8419 22.3485 10.6247L20.0178 8.30035C19.8 8.08313 19.4297 8.08313 19.2119 8.30035L16.8812 10.6247Z" fill="#E31D93"/>
<path d="M19.2119 25.6568C19.4297 25.4396 19.8 25.4396 20.0178 25.6568L22.3485 27.9812C22.5663 28.1984 22.5663 28.5677 22.3485 28.7849L20.0178 31.1092C19.8 31.3265 19.4297 31.3265 19.2119 31.1092L16.8812 28.7849C16.6634 28.5677 16.6634 28.1984 16.8812 27.9812L19.2119 25.6568ZM10.8911 22.8546C11.1089 22.6374 11.1089 22.2681 10.8911 22.0509L8.56039 19.7265C8.34257 19.5093 7.97228 19.5093 7.75445 19.7265L5.42376 22.0509C5.20594 22.2681 5.20594 22.6374 5.42376 22.8546L7.75445 25.1789C7.97228 25.3962 8.34257 25.3962 8.56039 25.1789L10.8911 22.8546ZM28.3386 22.0726C28.1208 22.2898 28.1208 22.6591 28.3386 22.8763L30.6693 25.2006C30.8871 25.4179 31.2574 25.4179 31.4752 25.2006L33.8059 22.8763C34.0238 22.6591 34.0238 22.2898 33.8059 22.0726L31.4752 19.7482C31.2574 19.531 30.8871 19.531 30.6693 19.7482L28.3386 22.0726ZM20.7148 41.4058C20.1049 42.0141 19.103 42.0141 18.4931 41.4058L12.0673 34.9976L6.31683 29.2411L0.631681 23.5714C0.0217801 22.9632 0.0217801 21.964 0.631681 21.3557L7.05742 14.9475C7.66732 14.3393 8.66931 14.3393 9.27921 14.9475L15.7049 21.3557C16.3148 21.964 16.3148 22.9415 15.7049 23.5714L11.8059 27.4598C11.4356 28.0463 11.5228 28.8283 12.0238 29.328L13.7881 31.0875L18.5802 35.8665C19.1465 36.4313 20.0832 36.4313 20.6495 35.8665L22 34.5197L27.2713 29.2628C27.7287 28.7849 27.7941 28.0463 27.4673 27.5033L23.5247 23.5714C22.9148 22.9632 22.9148 21.964 23.5247 21.3557L29.9505 14.9475C30.5604 14.3393 31.5624 14.3393 32.1723 14.9475L38.598 21.3557C39.2079 21.964 39.2079 22.9632 38.598 23.5714L32.1723 29.9797L27.1406 34.9976L20.7148 41.4058ZM122.35 27.4598C122.263 27.1991 122.024 27.0036 121.741 27.0036H118.451C118.19 27.0036 117.95 27.1774 117.863 27.4164L117.145 29.8276C117.079 30.0448 116.905 30.2186 116.687 30.262L114.291 30.2838C113.964 30.2403 113.725 29.9797 113.725 29.6538C113.725 29.5886 113.747 29.5235 113.747 29.4583L118.299 15.3168C118.386 15.0561 118.626 14.8823 118.909 14.8823H119.366H120.935H121.283C121.566 14.8823 121.806 15.0561 121.871 15.3168L126.424 29.4583C126.446 29.5235 126.467 29.5886 126.467 29.6538C126.467 30.0014 126.184 30.2838 125.836 30.2838H123.636C123.352 30.2838 123.091 30.0883 123.026 29.8276L122.35 27.4598ZM118.844 24.1362H121.392L120.129 19.8134L118.844 24.1362ZM47.6812 29.8493L43.1287 15.7947C43.1069 15.7295 43.1069 15.6644 43.1069 15.5992C43.1069 15.2516 43.3901 14.9692 43.7386 14.9692H45.9168C46.2218 14.9692 46.4614 15.1647 46.5485 15.4254L49.4455 25.3527L52.4297 15.4254C52.5168 15.1647 52.7564 14.9692 53.0396 14.9692H55.2178C55.5663 14.9692 55.8495 15.2516 55.8495 15.5992C55.8495 15.6644 55.8495 15.7295 55.8277 15.7947L51.2752 29.8493C51.1881 30.0883 50.9485 30.2838 50.6871 30.2838H48.3129C48.0079 30.2838 47.7683 30.0883 47.6812 29.8493ZM84.0574 14.8823C84.3406 14.8823 84.5584 15.1865 84.5584 15.5557V29.6104C84.5584 29.9797 84.3406 30.2838 84.0574 30.2838H81.8574C81.5743 30.2838 81.3564 29.9797 81.3564 29.6104V15.5557C81.3564 15.1865 81.5743 14.8823 81.8574 14.8823H84.0574ZM74.8 23.0067L80.0713 29.5452C80.2238 29.719 80.2673 29.9145 80.202 30.0665C80.1366 30.1969 80.0277 30.262 79.8752 30.262H77.196C76.804 30.262 76.5644 30.0014 76.303 29.6755L74.7564 27.8074L72.1426 24.6141L71.1624 25.9175V29.5886C71.1624 29.9579 70.9446 30.262 70.6614 30.262H68.4614C68.1782 30.262 67.9604 29.9579 67.9604 29.5886V15.534C67.9604 15.1647 68.1782 14.8606 68.4614 14.8606H70.6614C70.9446 14.8606 71.1624 15.1647 71.1624 15.534V20.6171C71.1624 20.6171 71.1842 20.8127 71.2931 20.8127C71.3366 20.8127 71.4673 20.7692 71.7505 20.4651L75.0178 16.5767L75.9327 15.4471C76.1941 15.143 76.4337 14.8606 76.8257 14.8606H79.5049C79.6792 14.8606 79.8535 14.9692 79.9406 15.1213C79.9842 15.2082 80.0277 15.382 79.8535 15.5992L74.7564 21.5729C74.1901 22.1595 74.7129 22.898 74.8 23.0067ZM90.8535 24.0928H90.5267C90.2436 24.0928 90.0257 24.3969 90.0257 24.7662V25.2224C90.0257 25.2224 90.0257 25.2224 90.0257 28.937V29.5886C90.0257 29.9579 89.8079 30.262 89.5248 30.262H87.4337C87.1505 30.262 86.9327 29.9579 86.9327 29.5886V19.2921V19.14V15.5557C86.9327 15.1865 87.1505 14.8823 87.4337 14.8823H88.3485H89.0891H93.0099H95.9505C96.3208 14.8823 96.6257 15.0996 96.6257 15.382V17.2718C96.6257 17.5542 96.3208 17.7715 95.9505 17.7715H91.7683H90.5267C90.2436 17.7715 90.0257 18.0756 90.0257 18.4449V18.8793V19.4658V20.6171C90.0257 20.8778 90.2654 21.0733 90.5921 21.1168H94.8396C95.2099 21.1168 95.5148 21.334 95.5148 21.6164V23.5497C95.5148 23.8321 95.2099 24.0493 94.8396 24.0493H90.8535V24.0928ZM141.846 14.8823C142.129 14.8823 142.347 15.1865 142.347 15.5557V29.6104C142.347 29.9797 142.129 30.2838 141.846 30.2838H139.646C139.362 30.2838 139.145 29.9797 139.145 29.6104V15.5557C139.145 15.1865 139.362 14.8823 139.646 14.8823H141.846ZM158.727 14.8823C159.01 14.8823 159.228 15.1865 159.228 15.5557V29.6104C159.228 29.9797 159.01 30.2838 158.727 30.2838H156.527C156.244 30.2838 156.026 29.9797 156.026 29.6104V15.5557C156.026 15.1865 156.244 14.8823 156.527 14.8823H158.727ZM108.192 23.0067L113.463 29.5452C113.616 29.719 113.659 29.9145 113.594 30.0665C113.529 30.1969 113.42 30.262 113.267 30.262H110.588C110.196 30.262 109.956 30.0014 109.695 29.6755L108.149 27.8074L105.535 24.6141L104.554 25.9175V29.5886C104.554 29.9579 104.337 30.262 104.053 30.262H101.853C101.57 30.262 101.352 29.9579 101.352 29.5886V15.534C101.352 15.1647 101.57 14.8606 101.853 14.8606H104.053C104.337 14.8606 104.554 15.1647 104.554 15.534V20.6171C104.554 20.6171 104.576 20.8127 104.685 20.8127C104.729 20.8127 104.859 20.7692 105.143 20.4651L108.41 16.5767L109.325 15.4471C109.586 15.143 109.826 14.8606 110.218 14.8606H112.897C113.071 14.8606 113.246 14.9692 113.333 15.1213C113.376 15.2082 113.42 15.382 113.246 15.5992L108.149 21.5729C107.582 22.1595 108.127 22.898 108.192 23.0067ZM153.739 27.3729C154.109 27.3729 154.414 27.5901 154.414 27.8725V29.7624C154.414 30.0448 154.109 30.262 153.739 30.262H150.798H146.877H146.137H145.222C144.939 30.262 144.721 29.9579 144.721 29.5886V26.0261V25.874V15.5557C144.721 15.1865 144.939 14.8823 145.222 14.8823H147.313C147.596 14.8823 147.814 15.1865 147.814 15.5557V16.2074V19.922V21.0516V24.5055V25.6568V26.2433V26.6778C147.814 27.0471 148.032 27.3512 148.315 27.3512H149.556L153.739 27.3729ZM175.303 14.8823C175.586 14.8823 175.804 15.1865 175.804 15.5557V29.6104C175.804 29.9797 175.586 30.2838 175.303 30.2838H173.103C172.82 30.2838 172.602 29.9797 172.602 29.6104V21.6164L169.182 27.1774C169.03 27.4381 168.485 27.4381 168.311 27.1774L164.891 21.5947V29.5886C164.891 29.9579 164.673 30.262 164.39 30.262H162.19C161.907 30.262 161.689 29.9579 161.689 29.5886V15.534C161.689 15.1647 161.907 14.8606 162.19 14.8606H163.78C163.998 14.8606 164.325 15.0561 164.477 15.382L168.703 22.9198L172.95 15.4689C173.059 15.0778 173.43 14.8389 173.691 14.8389L175.303 14.8823ZM136.836 14.8823C137.206 14.8823 137.511 15.0996 137.511 15.382V17.576C137.511 17.8584 137.206 18.0756 136.836 18.0756H133.307C132.958 18.0756 132.697 18.358 132.697 18.6838V29.5886C132.697 29.9579 132.479 30.262 132.196 30.262H129.996C129.713 30.262 129.495 29.9579 129.495 29.5886V18.6838C129.495 18.3363 129.212 18.0756 128.885 18.0756H125.356C124.986 18.0756 124.681 17.8584 124.681 17.576V15.382C124.681 15.0996 124.986 14.8823 125.356 14.8823H130.018H132.218H136.836ZM59.2257 24.1362H61.7743L60.5109 19.8134L59.2257 24.1362ZM62.7327 27.4598C62.6455 27.1991 62.4059 27.0036 62.1228 27.0036H58.8337C58.5723 27.0036 58.3327 27.1774 58.2455 27.4164L57.5267 29.8276C57.4614 30.0448 57.2871 30.2186 57.0693 30.262L54.6733 30.2838C54.3683 30.2403 54.1069 29.9797 54.1069 29.6538C54.1069 29.5886 54.1069 29.5235 54.1287 29.4583L58.6812 15.3168C58.7683 15.0561 59.0079 14.8823 59.2911 14.8823H59.7485H61.3168H61.6653C61.9485 14.8823 62.1881 15.0561 62.2535 15.3168L66.8059 29.4583C66.8277 29.5235 66.8495 29.5886 66.8495 29.6538C66.8495 30.0014 66.5663 30.2838 66.2178 30.2838H64.0178C63.7347 30.2838 63.4733 30.0883 63.4079 29.8276L62.7327 27.4598Z" fill="#194F90"/>
</g>
<defs>
<clipPath id="clip0_46_1652">
<rect width="176" height="38.8837" fill="white" transform="translate(0 3)"/>
</clipPath>
</defs>
</svg>
