<svg width="176" height="44" viewBox="0 0 176 44" fill="none" xmlns="http://www.w3.org/2000/svg">
<g clip-path="url(#clip0_46_1426)">
<path d="M176 7.06358H170.979V11.1593H176V7.06358Z" fill="#054A76"/>
<path d="M82.9608 32.6922L82.7385 31.7219C81.8585 32.6922 80.9044 33.1774 78.9406 33.1774C76.8472 33.224 75.3651 31.2835 75.4021 28.9604L75.4484 25.6483C75.5411 20.2838 82.7848 21.9071 82.7848 17.9047C82.7848 17.065 82.7385 16.3653 81.7752 16.3653C80.8581 16.3653 80.5987 17.065 80.5987 17.9047V19.5374H75.4484V17.9047C75.4484 14.434 78.4126 12.8013 81.7752 12.8013C86.064 12.8013 88.0278 15.2177 88.0278 17.858V32.6922H82.9608ZM82.6922 22.9241C81.4695 23.7077 80.5987 24.1089 80.5987 25.7323V28.1114C80.5987 29.2589 80.9044 29.6974 81.6455 29.6974C82.3865 29.6974 82.6922 29.2589 82.6922 28.1114V22.9241Z" fill="#054A76"/>
<path d="M103.117 27.4676C103.117 30.5464 102.599 33.1307 99.1899 33.1307C97.2724 33.1307 96.2627 32.515 95.4754 31.3674V37.3571H90.4547V13.2398H95.4754L95.4383 15.2177C96.4387 13.4171 97.4855 12.848 99.4493 12.848C102.2 12.848 103.117 15.4883 103.117 17.998V27.4116V27.4676ZM97.7541 18.3898C97.7541 17.5128 97.2724 17.0277 96.6147 17.0277C95.92 17.0277 95.4383 17.5595 95.4383 18.4738V27.6729C95.4383 28.5499 95.92 29.035 96.5684 29.035C97.2724 29.035 97.7448 28.5499 97.7448 27.6262V18.3898H97.7541Z" fill="#054A76"/>
<path d="M110.547 13.2865H105.526V32.6922H110.547V13.2865Z" fill="#054A76"/>
<path d="M122.867 32.6642L119.587 23.6891L118.809 25.0885V32.6642H113.131V7.05426H118.809V15.0125L122.422 7.05426H128.063L122.867 17.83L128.499 32.6642H122.867Z" fill="#054A76"/>
<path d="M139.531 18.5578C138.271 18.0726 134.909 18.0353 134.909 21.1514V32.6829H129.888V13.2772H134.566L134.52 15.339C136.27 12.8293 138.141 12.7827 139.503 12.7827V18.5484H139.531V18.5578Z" fill="#054A76"/>
<path d="M153.667 27.8035C153.667 31.6753 151.008 33.1774 147.386 33.1774C144.07 33.1774 141.096 31.5447 141.096 27.7288V18.6604C141.096 14.9658 143.329 12.8946 147.386 12.8946C150.702 12.8946 153.676 14.2568 153.676 18.707V23.8197H146.293V28.4752C146.293 29.2682 146.636 29.7161 147.386 29.7161C148.127 29.7161 148.479 29.2776 148.479 28.4752V25.6203H153.676V27.8595L153.667 27.8035ZM148.387 17.5968C148.387 16.8038 148.035 16.3653 147.34 16.3653C146.599 16.3653 146.247 16.8038 146.247 17.5968V20.2371H148.433L148.387 17.5968Z" fill="#054A76"/>
<path d="M163.56 32.6922V30.705C163.087 32.4217 161.512 33.0841 159.632 33.0841C156.529 33.0841 155.917 30.4438 155.917 27.9807V18.5578C155.917 15.479 156.659 12.8013 159.762 12.8013C161.559 12.8013 162.948 13.5944 163.56 14.5553V7.08224H168.589V32.6922H163.56ZM163.56 18.2592C163.56 17.3822 163.087 16.8877 162.383 16.9437C161.688 16.9437 161.207 17.4289 161.207 18.3059L161.244 27.5516C161.244 28.4286 161.725 28.9044 162.383 28.9044C163.087 28.9044 163.56 28.3819 163.56 27.4956V18.2592Z" fill="#054A76"/>
<path d="M176 13.3145H170.979V32.7202H176V13.3145Z" fill="#054A76"/>
<path d="M71.7987 21.5992V32.6922H66.1204V21.5992L61.1368 7.08224H67.1672L68.9642 14.2101L70.789 7.08224H76.8194L71.7987 21.5992Z" fill="#054A76"/>
<path d="M52.6425 27.5516C50.6695 29.3056 48.0387 29.8187 45.8989 28.8484C44.6206 28.2233 43.6758 27.0944 43.3979 25.9282C45.1949 27.7288 48.437 28.6431 51.4013 25.4897C51.4013 25.4897 54.1895 22.8961 52.6055 17.998C51.8181 15.5816 48.8724 13.5664 46.4269 13.3145C42.7773 12.7267 39.3314 13.9769 36.9507 17.3356C34.144 21.7112 33.7827 26.5813 31.7448 31.4421C31.4021 32.2444 30.6796 32.5896 29.957 32.5523C29.2345 32.5896 28.512 32.2444 28.1693 31.4421C26.1314 26.5813 25.7794 21.7019 22.9726 17.3356C20.592 13.9676 17.1461 12.7174 13.4964 13.3145C11.0509 13.5664 8.10526 15.5723 7.32715 17.998C5.74315 22.8867 8.53136 25.4897 8.53136 25.4897C11.5048 28.6431 14.7377 27.7288 16.5347 25.9282C16.2476 27.0944 15.312 28.2326 14.0244 28.8484C11.8846 29.8094 9.25389 29.3056 7.28084 27.5516C4.36294 24.6407 3.92757 20.8995 5.08547 17.4569C6.48421 13.2678 10.6897 11.1687 14.0337 10.9074C17.989 10.5529 23.4543 12.9973 25.6312 17.1676C26.1406 18.1286 27.2059 20.6196 27.2059 20.6196H29.9756H32.7545C32.7545 20.6196 33.8198 18.1286 34.3293 17.1676C36.5061 12.9973 41.9714 10.5529 45.9267 10.9074C49.2707 11.1687 53.4762 13.2678 54.8749 17.4569C55.9958 20.8995 55.5604 24.6407 52.6425 27.5516ZM59.2101 16.328C55.968 6.91431 46.6585 6.39185 45.6952 6.37319C41.536 6.28922 36.9322 7.74465 33.4307 11.1966C32.0227 12.4655 31.0223 13.9396 29.957 15.5443C28.901 13.9489 27.8914 12.4655 26.4926 11.1966C22.9912 7.74465 18.3874 6.28922 14.2282 6.37319C13.2741 6.39185 3.96463 6.91431 0.713258 16.328C-0.444637 19.696 -0.185268 24.0623 1.54694 27.2717C3.26063 30.9756 7.35494 33.9891 11.6716 33.6719C14.8118 33.5879 18.2299 31.5727 19.4989 28.3633C20.5549 25.4711 20.2307 22.3736 17.7853 19.8826C17.8501 20.517 17.8779 21.394 17.2573 22.2057C16.2754 23.5771 14.7099 23.913 13.0981 23.3346C11.6716 22.6815 11.1436 21.6459 11.2825 20.2744C11.3844 19.1082 12.3107 18.2126 13.2741 17.7741C15.1638 16.9531 16.9145 17.3636 18.6097 19.0056C21.4072 22.1497 21.7314 26.9172 23.056 30.5277C23.9916 33.5039 25.4829 36.0882 28.7436 36.8253C29.1419 36.9093 29.5402 36.9559 29.9478 36.9559C30.3554 36.9559 30.7629 36.9093 31.152 36.8253C34.4126 36.0789 35.8947 33.4946 36.8396 30.5277C38.1642 26.9172 38.4884 22.1497 41.2859 19.0056C42.9903 17.3636 44.7318 16.9531 46.6215 17.7741C47.5848 18.2126 48.5204 19.1082 48.6223 20.2744C48.7613 21.6459 48.2333 22.6815 46.8067 23.3346C45.1949 23.913 43.6387 23.5865 42.6568 22.2057C42.0362 21.3847 42.064 20.517 42.1196 19.8826C39.6741 22.3736 39.3499 25.4617 40.4059 28.3633C41.6657 31.582 45.093 33.5972 48.2333 33.6719C52.5499 33.9891 56.6535 30.9756 58.3579 27.2717C60.1086 24.0623 60.368 19.6867 59.2101 16.328ZM29.9663 6.37319V6.38252C29.9756 6.38252 29.9663 6.37319 29.9663 6.37319Z" fill="#BAB9BB"/>
</g>
<defs>
<clipPath id="clip0_46_1426">
<rect width="176" height="31.7209" fill="white" transform="translate(0 6)"/>
</clipPath>
</defs>
</svg>
