<svg width="176" height="44" viewBox="0 0 176 44" fill="none" xmlns="http://www.w3.org/2000/svg">
<path fill-rule="evenodd" clip-rule="evenodd" d="M14.0488 12.1042L11.3821 14.2018L9.52844 15.6002V21.9564L10.4553 21.2572V24.2129L9.52844 24.9121V31.2683L10.4553 30.5373V33.493L9.52844 34.1922V40.5484L11.3821 39.2136L14.0975 37.116L17.7236 34.3511V23.6726C17.6987 23.4438 17.6233 23.223 17.5026 23.0254C17.3819 22.8279 17.2187 22.6583 17.0244 22.5285C17.2557 22.3604 17.4407 22.1389 17.5627 21.8837C17.6848 21.6285 17.74 21.3477 17.7236 21.0665V9.33925L14.0488 12.1042ZM16.3902 28.3285C16.3902 28.8847 16.1626 29.139 15.6585 29.5203L14.0325 30.7439L11.7398 32.6031V29.5839L14.0488 27.8359L15.4471 26.7871C15.9187 26.4217 16.3902 26.517 16.3902 27.0096V28.3285ZM16.3902 19.0007C16.3902 19.5728 16.1626 19.8112 15.6585 20.2084L14.0325 21.432L11.7398 23.2118V20.2561L14.0488 18.4764L15.4471 17.4276C15.9187 17.0621 16.3902 17.1415 16.3902 17.65V19.0007Z" fill="#EC1C24"/>
<path fill-rule="evenodd" clip-rule="evenodd" d="M13.1382 10.9442V8.67185L11.3333 10.0702L10.813 10.4834V8.09978L11.3333 7.68663L13.1382 6.27236V4L11.3333 5.41427L9.52844 6.82853V13.7727L11.3333 12.3585L13.1382 10.9442Z" fill="#EC1C24"/>
<path fill-rule="evenodd" clip-rule="evenodd" d="M4.53659 4V6.27236L5.69106 7.19402V9.68884L5.25204 9.32336V11.6116L6.32521 12.4697L7.4309 13.3437V11.0713L6.97562 10.7058V8.19513L8.13009 9.11678V6.82853L6.32521 5.41427L4.53659 4Z" fill="#EC1C24"/>
<path fill-rule="evenodd" clip-rule="evenodd" d="M0 9.33925V15.7114L6.3252 20.5898L7.08943 21.1619L6.3252 21.9087L5.39837 22.7986L0 18.667V25.0392L1.72358 26.3422L0 27.9948V34.3511L6.3252 39.2136L8.13008 40.5961V34.2398L6.3252 32.8415L1.05691 28.7894L2.76423 27.1367L6.3252 29.8858L8.13008 31.2842V24.9121L6.43902 23.5931L8.13008 21.9564V15.6002L6.3252 14.2018L0 9.33925Z" fill="#EC1C24"/>
<path d="M27.9837 12.4538L27.0569 15.7273H35.2846L26.2764 30.1242V33.2546H38.8781L40.1626 30.1242H31.1545L40.1951 15.6796V12.4538H27.9837Z" fill="#231F20"/>
<path d="M43.4309 16.9191C43.8425 16.9191 44.2449 16.7998 44.5872 16.5763C44.9295 16.3528 45.1962 16.0351 45.3538 15.6635C45.5113 15.2918 45.5525 14.8828 45.4722 14.4883C45.3919 14.0937 45.1937 13.7313 44.9026 13.4468C44.6115 13.1624 44.2407 12.9687 43.8369 12.8902C43.4332 12.8117 43.0147 12.852 42.6344 13.0059C42.2541 13.1599 41.929 13.4206 41.7003 13.7551C41.4716 14.0895 41.3496 14.4828 41.3496 14.8851C41.3496 15.4245 41.5689 15.9419 41.9592 16.3233C42.3495 16.7048 42.8789 16.9191 43.4309 16.9191Z" fill="#231F20"/>
<path d="M45.1382 18.0791H41.8049V33.2387H45.1382V18.0791Z" fill="#231F20"/>
<path d="M176 18.0791H173.512V33.2387H176V18.0791Z" fill="#231F20"/>
<path d="M48.1138 33.2069V18.1426H50.8781V19.8906C51.5096 19.2503 52.2992 18.7797 53.1707 18.524C53.9949 18.3407 54.8507 18.3407 55.6748 18.524V21.432H53.4959C52.6016 21.432 50.9919 22.6079 50.9919 23.7361V33.2705L48.1138 33.2069Z" fill="#231F20"/>
<path d="M63.4146 29.425C63.4146 30.0129 62.5528 31.0141 60.6992 31.0141C60.3914 31.0471 60.08 31.0175 59.7845 30.9272C59.489 30.8369 59.2158 30.6878 58.9821 30.4893C58.7484 30.2908 58.5593 30.0471 58.4267 29.7737C58.294 29.5003 58.2207 29.203 58.2114 28.9006C58.2145 28.1984 58.4926 27.5239 58.9885 27.0157C59.4843 26.5075 60.1604 26.2039 60.878 26.1674H63.4146V29.425ZM66.9756 33.3023V22.8463C66.9756 18.7783 64.2764 17.6659 62.2439 17.6659C60.8413 17.6971 59.4461 17.8729 58.0813 18.1903L57.3171 21.2413C58.6533 20.8624 60.0268 20.6227 61.4146 20.5262C61.9298 20.4913 62.4381 20.6573 62.8282 20.9879C63.2183 21.3185 63.4584 21.7868 63.4959 22.2901V23.752C61.9198 23.697 60.3436 23.8574 58.813 24.2288C57.6369 24.4985 56.5985 25.1707 55.8857 26.1239C55.1729 27.077 54.8327 28.248 54.9268 29.425C54.9268 32.8256 58 33.4612 59.9187 33.4612C61.0844 33.4762 62.2243 33.1253 63.1707 32.4601H63.7561V33.1752L66.9756 33.3023Z" fill="#231F20"/>
<path d="M76.5529 29.425C76.5529 30.0129 75.6911 31.0141 73.8374 31.0141C73.5296 31.0471 73.2182 31.0175 72.9227 30.9272C72.6272 30.8369 72.354 30.6878 72.1203 30.4893C71.8867 30.2908 71.6976 30.0471 71.5649 29.7737C71.4323 29.5003 71.359 29.203 71.3496 28.9006C71.3528 28.1984 71.6308 27.5239 72.1267 27.0157C72.6226 26.5075 73.2987 26.2039 74.0163 26.1674H76.5529V29.425ZM80.1138 33.3023V22.8463C80.1138 18.7783 77.4146 17.6659 75.3821 17.6659C73.9796 17.6971 72.5843 17.8729 71.2195 18.1903L70.4553 21.2413C71.7915 20.8624 73.165 20.6227 74.5528 20.5262C75.068 20.4913 75.5763 20.6573 75.9664 20.9879C76.3566 21.3185 76.5967 21.7868 76.6342 22.2901V23.752C75.0581 23.697 73.4819 23.8574 71.9512 24.2288C70.7661 24.4887 69.7163 25.1568 68.9938 26.1109C68.2713 27.065 67.9243 28.2414 68.0163 29.425C68.0163 32.8256 71.0732 33.4612 73.0081 33.4612C74.1738 33.4762 75.3137 33.1253 76.2602 32.4601H76.8455V33.1752L80.1138 33.3023Z" fill="#231F20"/>
<path d="M82.813 14.1223H86.0651V18.1903H89.7561L88.9106 20.5262H86.0813V29.2184C86.0813 30.3466 86.2927 30.9981 87.3984 30.9981H89.3171V33.2069H85.8862C85.4743 33.2261 85.0626 33.1649 84.6752 33.027C84.2877 32.889 83.9323 32.677 83.6295 32.4033C83.3268 32.1297 83.0829 31.7999 82.912 31.4331C82.7411 31.0663 82.6467 30.67 82.6342 30.2672V20.4627H81.0081V18.1426H82.6342L82.813 14.1223Z" fill="#231F20"/>
<path d="M105.398 18.0473C105.398 18.8902 105.056 19.6986 104.446 20.2946C103.836 20.8906 103.009 21.2254 102.146 21.2254H97.8049V14.8692H101.837C102.287 14.839 102.738 14.8983 103.164 15.0434C103.59 15.1886 103.981 15.4166 104.314 15.7137C104.647 16.0108 104.914 16.3707 105.101 16.7718C105.287 17.173 105.388 17.6069 105.398 18.0473ZM97.7236 23.6408H103.041C103.526 23.6785 103.998 23.8107 104.43 24.0297C104.862 24.2487 105.244 24.55 105.555 24.9158C105.866 25.2817 106.098 25.7047 106.239 26.1598C106.379 26.6149 106.425 27.093 106.374 27.5658C106.355 28.0406 106.236 28.5064 106.023 28.934C105.811 29.3616 105.511 29.7417 105.142 30.0506C104.772 30.3594 104.342 30.5903 103.876 30.7288C103.411 30.8672 102.922 30.9102 102.439 30.8551H97.7236V23.6408ZM108.033 17.2846C108.033 14.3448 104.894 12.5174 101.659 12.5174H94.9919V33.1752H104.065C105.457 32.9198 106.71 32.1904 107.603 31.1168C108.497 30.0432 108.971 28.6949 108.943 27.3115C108.948 26.1681 108.58 25.0529 107.893 24.1273C107.206 23.2017 106.236 22.5138 105.122 22.163C105.939 21.6055 106.622 20.88 107.122 20.0372C107.622 19.1944 107.927 18.2549 108.016 17.2846" fill="#231F20"/>
<path d="M118.699 27.8359C118.765 28.3377 118.719 28.8475 118.564 29.3302C118.409 29.8128 118.148 30.2569 117.801 30.6315C117.453 31.0062 117.026 31.3027 116.549 31.5004C116.073 31.6981 115.558 31.7924 115.041 31.7768C112.211 31.7768 112.13 30.0288 112.13 28.7099C112.138 28.221 112.254 27.7396 112.468 27.2977C112.682 26.8559 112.99 26.4638 113.372 26.1479C113.754 25.8319 114.2 25.5993 114.682 25.4657C115.163 25.332 115.668 25.3004 116.163 25.3729H118.699V27.8359ZM121.252 33.5406V22.163C121.248 21.567 121.122 20.9779 120.881 20.4303C120.641 19.8827 120.29 19.3878 119.851 18.9746C119.411 18.5614 118.892 18.2384 118.322 18.0245C117.753 17.8107 117.146 17.7104 116.537 17.7295C114.854 17.8122 113.201 18.1945 111.659 18.8577L111.382 21.146C112.591 20.5418 113.884 20.1135 115.219 19.8747C117.512 19.4616 118.732 20.7487 118.732 21.7498V23.752H115.154C114.438 23.7206 113.723 23.835 113.055 24.088C112.386 24.3409 111.779 24.727 111.272 25.2216C110.764 25.7162 110.367 26.3085 110.106 26.961C109.845 27.6135 109.726 28.3119 109.756 29.0118C109.756 32.7143 113.236 33.4771 115.187 33.4771C116.517 33.4088 117.806 33.0036 118.927 32.3012V33.4771L121.252 33.5406Z" fill="#231F20"/>
<path d="M157.154 27.8359C157.221 28.3391 157.174 28.8503 157.018 29.3341C156.862 29.818 156.6 30.2628 156.251 30.6378C155.901 31.0128 155.472 31.3089 154.994 31.5055C154.515 31.7022 153.998 31.7948 153.48 31.7768C150.667 31.7768 150.585 30.0288 150.585 28.7099C150.594 28.2226 150.709 27.7427 150.922 27.3021C151.135 26.8615 151.442 26.4703 151.822 26.1546C152.202 25.8389 152.646 25.6059 153.126 25.4711C153.605 25.3363 154.108 25.3028 154.602 25.3729H157.154V27.8359ZM159.707 33.5406V22.163C159.701 21.5677 159.574 20.9795 159.332 20.433C159.091 19.8864 158.74 19.3923 158.301 18.9795C157.862 18.5668 157.344 18.2436 156.775 18.029C156.207 17.8144 155.601 17.7126 154.992 17.7295C153.309 17.8126 151.656 18.1949 150.114 18.8577L149.854 21.146C151.056 20.5398 152.344 20.1114 153.675 19.8747C155.967 19.4616 157.187 20.7487 157.187 21.7498V23.752H153.61C152.895 23.7228 152.182 23.8389 151.515 24.0929C150.849 24.3469 150.243 24.7333 149.738 25.2277C149.232 25.722 148.836 26.3136 148.576 26.965C148.317 27.6163 148.198 28.3133 148.228 29.0118C148.228 32.7143 151.707 33.4771 153.659 33.4771C154.984 33.4105 156.268 33.005 157.382 32.3012V33.4771L159.707 33.5406Z" fill="#231F20"/>
<path d="M122.813 33.3023H125.463V22.9257C125.463 21.9723 127.268 20.4786 129.301 20.4786C131.333 20.4786 131.398 21.7816 131.398 22.5126V33.3023H134.179V21.5591C134.033 20.506 133.511 19.5372 132.705 18.8246C131.898 18.1119 130.859 17.7015 129.772 17.6659C128.93 17.6622 128.097 17.8347 127.328 18.1718C126.56 18.5089 125.874 19.0029 125.317 19.6205V17.6183L122.813 18.1268V33.3023Z" fill="#231F20"/>
<path d="M135.902 12.5492H138.862V23.6885H139.463L144.569 17.3481H148.325L141.691 24.483L149.008 33.1116H144.959L139.463 25.2299H138.813V33.2546H135.886L135.902 12.5492Z" fill="#231F20"/>
<path d="M170.585 20.7805L171.138 18.9531C169.764 18.2764 168.254 17.9072 166.715 17.8725C165.519 17.7802 164.335 18.1548 163.42 18.9142C162.506 19.6736 161.937 20.7561 161.837 21.9246C161.837 24.483 163.463 26.0403 166.244 26.6918C169.024 27.3433 169.496 28.1696 169.496 28.9642C169.496 29.7587 168.683 31.1889 166.244 31.1889C164.773 31.1611 163.335 30.7496 162.081 29.9971L161.301 32.0152C162.914 32.8703 164.718 33.3233 166.553 33.3341C167.898 33.3435 169.198 32.8587 170.195 31.9758C171.192 31.0929 171.813 29.8762 171.935 28.5669C171.935 26.3422 169.463 24.7849 167.366 24.3718C165.268 23.9586 164.358 23.1005 164.358 21.8452C164.358 20.5898 165.87 20.0019 167.252 20.0019C168.37 20.0761 169.469 20.3284 170.504 20.7487" fill="#231F20"/>
</svg>
